{
.appVersion = "3306";
.formatVersion = 3;
DisplayStrings = (
"DÙ SAO ĐI NỮA THÌ MỘT CỘNG MỘT VẪN BẰNG BA THƯƠNG CON VÌ CON GIỐNG ÔNG HÀNG XÓM THIỆT LUÔN Á HẢ MÁ ANH CHỊ EM NHƯ THỂ TAY CHÂN CHỊ NGÃ EM CƯỜI HA HẢHẢ HÀ ÁNH MINH HỒ NGUYỄN VŨ ANH THƯ PHẠM MINH THÔNG HUỲNH NGỌC MINH MINHI263 ÁI QUỲNH QUẢ TẮC HIEGINE FOUNDER JAPAN KIỀU NỮ VÀ ĐẠI GIA 0932704052123456789 AJT1T ATM JACK J97 SƠN TÙNG MTP CHUỴ YÊN YÝỲỶỸỴ ANH THÀNH CON KHỐN MINH ÁNH VẬT THẦN CÂY LƯỢC THẦN THÁNH CHIỆU THẬT TỘI CHO EM QUÁ CHỈ VÌ GẢ SĂN CÁ CHẲNG THỂ NÀO NÓI RA ĐÂU MÁ ĐỂ VIỆC TỐT LÊN TIẾNG ĐI MÁ ĐI ĐU ĐƯA ĐIĐI CÁC VIVID UNIQLO HÃ HẠ
HÁ HÀ HÃ HẠ HẴ A TÁ TÀ TẢ TÃ TẠ Ă Ắ Ằ Ẳ Ẵ Ặ Â Ấ Ầ Ẩ Ẫ Ậ 
LOREM IPSUM DOLOR SIT AMET, CONSECTETUER ADIPISCING ELIT, SED DIAM NONUMMY NIBH EUISMOD TINCIDUNT UT LAOREET DOLORE MAGNA ALIQUAM ERAT VOLUTPAT LADYGAGAWWqƯ
lorem ipsum dolor sit amet, consectetuer adipiscing elit, sed diam nonummy nibh euismod tincidunt ut laoreet dolore magna aliquam erat volutpat ga ra"
);
customParameters = (
{
name = vendorID;
value = CLGR;
},
{
name = panose;
value = (
2,
0,
5,
3,
0,
0,
0,
0,
0,
0
);
},
{
name = unicodeRanges;
value = (
0,
1
);
},
{
name = codePageRanges;
value = (
"1252"
);
},
{
name = fsType;
value = (
);
},
{
name = glyphOrder;
value = (
.notdef,
.null,
CR,
CR.001,
space,
exclam,
quotedbl,
quotesingle,
comma,
period,
zero,
one,
two,
three,
four,
five,
six,
seven,
eight,
nine,
colon,
semicolon,
question,
A,
B,
C,
D,
E,
F,
G,
H,
I,
J,
K,
L,
M,
N,
O,
P,
Q,
R,
S,
T,
U,
V,
W,
X,
Y,
Z,
a,
b,
c,
d,
e,
f,
g,
h,
i,
j,
k,
l,
m,
n,
o,
p,
q,
r,
s,
t,
u,
v,
w,
x,
y,
z,
nbsp
);
}
);
date = "2025-07-04 07:39:09 +0000";
familyName = Anhchiem;
featurePrefixes = (
{
automatic = 1;
code = "languagesystem DFLT dflt;
";
name = Languagesystems;
}
);
features = (
{
automatic = 1;
code = "lookupflag IgnoreMarks;
sub L A by L_A;
sub L E by L_E;
";
tag = dlig;
}
);
fontMaster = (
{
customParameters = (
{
name = typoAscender;
value = 800;
},
{
name = typoDescender;
value = -200;
},
{

glyphs = (
{
glyphname = .notdef;
lastChange = "2025-07-04 11:07:49 +0000";
layers = (
{
layerId = m01;
shapes = (
{
closed = 1;
nodes = (
(275,666,l),
(10,666,l),
(10,0,l),
(275,0,l)
);
},
{
closed = 1;
nodes = (
(242,633,l),
(242,33,l),
(43,33,l),
(43,633,l)
);
}
);
width = 285;
}
);
note = .notdef;
},
{
glyphname = exclam;
lastChange = "2025-07-04 11:08:29 +0000";
layers = (
{
layerId = m01;
shapes = (
{
closed = 1;
nodes = (
(54,525,qs),
(49,493,o),
(49,456,qs),
(49,440,l),
(49,424,ls),
(49,376,o),
(43,319,qs),
(37,270,o),
(37,245,qs),
(37,235,o),
(39,219,qs),
(41,201,o),
(41,184,qs),
(41,168,o),
(40,162,qs),
(36,132,o),
(41,132,qs),
(45,132,o),
(41,124,q),
(39,115,o),
(44,112,qs),
(48,110,o),
(48,114,qs),
(48,119,o),
(58,123,qs),
(68,126,o),
(80,154,o),
(85,154,qs),
(92,154,o),
(92,202,o),
(101,227,qs),
(109,248,o),
(132,373,o),
(133,376,qs),
(156,499,o),
(156,557,qs),
(156,569,ls),
(154,608,o),
(152,610,q),
(150,610,ls),
(146,610,o),
(95,601,o),
(87,601,qs),
(82,601,o),
(82,603,qs),
(82,604,o),
(87,607,qs),
(91,610,o),
(90,628,o),
(84,621,qs),
(68,602,o)
);
},
{
closed = 1;
nodes = (
(27,27,qs),
(10,-5,o),
(10,-13,qs),
(10,-17,o),
(13,-17,qs),
(17,-17,o),
(17,-5,o),
(47,9,qs),
(77,24,o),
(97,52,qs),
(114,76,o),
(114,80,qs),
(114,82,o),
(110,84,qs),
(104,87,o),
(99,87,qs),
(92,87,o),
(67,70,qs),
(42,52,o)
);
}
);
width = 166;
}
);
note = exclam;
unicode = 33;
},
{
glyphname = quotedbl;
lastChange = "2025-07-04 11:08:29 +0000";
layers = (
{
layerId = m01;
shapes = (
{
closed = 1;
nodes = (
(92,611,qs),
(86,613,o),
(84,611,o),
(88,604,qs),
(91,597,o),
(90,593,o),
(84,592,qs),
(76,591,o),
(65,559,o),
(65,540,qs),
(65,530,o),
(66,525,qs),
(71,498,o),
(71,483,qs),
(71,462,o),
(51,434,qs),
(34,412,o),
(10,365,o),
(10,356,qs),
(10,353,o),
(11,353,qs),
(18,353,o),
(54,387,qs),
(85,416,o),
(117,467,o),
(132,510,qs),
(144,546,l),
(136,577,ls),
(122,630,o),
(113,630,q),
(107,619,l),
(103,608,o)
);
},
{
closed = 1;
nodes = (
(197,551,qs),
(191,538,o),
(188,538,qs),
(184,538,o),
(184,522,o),
(188,518,qs),
(190,516,o),
(190,510,qs),
(190,487,o),
(169,454,qs),
(158,437,o),
(123,370,o),
(123,366,qs),
(123,363,o),
(125,363,qs),
(133,363,o),
(194,428,o),
(218,464,qs),
(233,487,o),
(241,507,o),
(243,531,qs),
(248,581,o),
(248,599,qs),
(248,612,o),
(246,612,qs),
(242,612,o),
(222,588,qs),
(201,561,o)
);
}
);
width = 258;
}
);
note = quotedbl;
unicode = 34;
},
{
glyphname = quotesingle;
lastChange = "2025-07-04 11:08:29 +0000";
layers = (
{
layerId = m01;
shapes = (
{
closed = 1;
nodes = (
(49,487,o),
(44,485,qs),
(39,484,o),
(43,459,qs),
(45,445,o),
(45,441,qs),
(45,427,o),
(29,378,qs),
(10,322,o),
(10,308,qs),
(10,302,o),
(13,302,qs),
(26,302,o),
(87,392,o),
(112,447,qs),
(126,477,o),
(130,523,qs),
(132,549,o),
(132,552,qs),
(132,566,o),
(125,573,qs),
(119,581,o),
(115,581,qs),
(112,581,o),
(81,544,qs),
(49,507,o)
);
}
);
width = 142;
}
);
note = quotesingle;
unicode = 39;
},
{
glyphname = comma;
lastChange = "2025-07-04 11:08:29 +0000";
layers = (
{
layerId = m01;
shapes = (
{
closed = 1;
nodes = (
(43,92,qs),
(43,90,o),
(44,82,o),
(44,78,o),
(45,72,o),
(45,70,qs),
(45,53,o),
(26,-5,qs),
(7,-67,o),
(10,-70,q),
(12,-71,l),
(19,-71,o),
(50,-46,o),
(50,-36,o),
(70,-5,qs),
(94,35,o),
(109,67,qs),
(122,95,o),
(128,121,o),
(129,151,qs),
(130,162,o),
(130,177,qs),
(130,195,o),
(122,200,qs),
(118,202,o),
(117,202,qs),
(111,202,o),
(83,171,qs),
(43,124,o)
);
}
);
width = 140;
}
);
note = comma;
unicode = 44;
},
{
glyphname = period;
lastChange = "2025-07-04 11:08:29 +0000";
layers = (
{
layerId = m01;
shapes = (
{
closed = 1;
nodes = (
(12,134,qs),
(10,116,o),
(10,114,qs),
(10,106,o),
(22,90,qs),
(35,74,o),
(44,74,qs),
(52,74,o),
(57,75,qs),
(77,79,o),
(78,80,qs),
(80,82,o),
(89,107,qs),
(98,131,o),
(98,141,qs),
(98,152,o),
(89,155,qs),
(81,157,o),
(81,166,qs),
(81,176,o),
(71,184,o),
(57,186,qs),
(52,187,o),
(46,187,qs),
(37,187,o),
(28,175,qs),
(17,161,o)
);
}
);
width = 108;
}
);
note = period;
unicode = 46;
},
{
glyphname = zero;
lastChange = "2025-07-04 11:08:29 +0000";
layers = (
{
layerId = m01;
shapes = (
{
closed = 1;
nodes = (
(277,480,qs),
(273,476,o),
(273,471,qs),
(273,465,o),
(286,423,qs),
(301,373,l),
(275,302,ls),
(249,233,o),
(223,198,qs),
(176,137,o),
(130,117,qs),
(105,107,l),
(102,126,ls),
(100,136,o),
(100,158,qs),
(100,216,o),
(125,293,qs),
(142,344,o),
(165,389,o),
(227,477,o),
(248,491,qs),
(271,507,o),
(279,507,o),
(281,498,qs),
(284,489,o)
);
},
{
closed = 1;
nodes = (
(15,241,qs),
(10,220,o),
(10,202,qs),
(10,188,o),
(13,163,qs),
(18,121,l),
(28,112,o),
(67,76,o),
(76,67,q),
(115,66,ls),
(180,66,o),
(258,110,o),
(310,175,qs),
(395,284,o),
(395,381,qs),
(395,433,o),
(373,481,qs),
(363,505,o),
(350,519,o),
(326,534,qs),
(293,554,o),
(256,562,qs),
(226,568,o),
(216,568,qs),
(211,568,o),
(175,541,qs),
(59,456,o)
);
}
);
width = 405;
}
);
note = zero;
unicode = 48;
},
{
glyphname = one;
lastChange = "2025-07-10 04:19:59 +0000";
layers = (
{
layerId = m01;
shapes = (
{
closed = 1;
nodes = (
(94,279,o),
(50,240,qs),
(10,205,o),
(10,202,qs),
(10,198,o),
(52,180,qs),
(95,161,l),
(125,192,o),
(185,256,q),
(186,225,l),
(186,201,ls),
(186,120,o),
(182,104,qs),
(180,98,o),
(145,79,qs),
(112,63,o),
(109,51,qs),
(106,41,o),
(108,36,q),
(112,34,o),
(186,34,qs),
(263,34,o),
(294,42,qs),
(322,49,o),
(344,49,qs),
(361,49,o),
(372,48,qs),
(402,46,o),
(409,46,qs),
(415,46,o),
(420,47,q),
(422,49,o),
(411,64,qs),
(404,75,o),
(392,79,o),
(362,81,qs),
(344,83,o),
(298,86,qs),
(273,89,l),
(271,116,ls),
(270,125,o),
(270,146,qs),
(270,252,o),
(298,361,qs),
(311,417,o),
(313,435,qs),
(316,458,l),
(282,468,ls),
(255,476,o),
(241,480,q),
(239,480,ls),
(232,480,o),
(220,454,qs),
(202,415,o)
);
}
);
width = 410;
}
);
note = one;
unicode = 49;
},
{
glyphname = two;
lastChange = "2025-07-10 04:19:51 +0000";
layers = (
{
layerId = m01;
shapes = (
{
closed = 1;
nodes = (
(52,489,qs),
(37,459,o),
(37,457,o),
(70,428,qs),
(92,409,o),
(117,394,o),
(145,385,qs),
(153,383,o),
(175,376,o),
(186,373,o),
(187,373,qs),
(188,373,l),
(188,376,o),
(157,402,qs),
(125,429,l),
(145,457,ls),
(162,480,o),
(183,491,o),
(235,506,qs),
(240,507,o),
(242,500,o),
(242,483,qs),
(242,458,o),
(222,419,qs),
(164,303,o),
(58,204,qs),
(10,160,o),
(10,153,qs),
(10,151,o),
(48,128,qs),
(82,106,l),
(122,121,ls),
(210,152,o),
(342,162,qs),
(398,166,o),
(398,168,qs),
(398,172,o),
(373,206,qs),
(346,241,l),
(315,238,ls),
(288,236,o),
(254,230,qs),
(227,225,o),
(217,225,o),
(217,227,qs),
(217,231,o),
(231,251,qs),
(308,361,o),
(308,451,qs),
(308,488,l),
(279,517,ls),
(250,546,o),
(216,562,qs),
(186,577,o),
(179,577,qs),
(175,577,o),
(146,568,qs),
(82,548,o)
);
}
);
width = 388;
}
);
note = two;
unicode = 50;
},
{
glyphname = three;
lastChange = "2025-07-04 11:07:49 +0000";
layers = (
{
layerId = m01;
shapes = (
{
closed = 1;
nodes = (
(104,524,o),
(97,507,qs),
(87,481,o),
(87,473,o),
(141,438,o),
(148,438,qs),
(153,438,o),
(173,456,qs),
(194,475,o),
(242,501,o),
(254,501,qs),
(262,501,o),
(262,495,qs),
(262,490,o),
(187,421,o),
(157,397,qs),
(111,361,o),
(78,339,qs),
(39,313,o),
(39,309,o),
(71,277,qs),
(103,245,l),
(134,256,ls),
(175,273,o),
(202,287,qs),
(241,306,o),
(258,306,qs),
(268,306,o),
(280,303,qs),
(292,300,l),
(275,273,ls),
(255,244,o),
(226,224,qs),
(136,163,o),
(44,138,qs),
(15,131,o),
(11,127,qs),
(10,126,l),
(10,120,o),
(32,87,qs),
(56,50,l),
(101,59,ls),
(189,75,o),
(302,161,qs),
(319,174,o),
(332,192,o),
(339,211,qs),
(349,241,o),
(349,256,qs),
(349,268,o),
(348,276,qs),
(347,299,o),
(340,317,o),
(329,333,qs),
(312,355,o),
(294,365,qs),
(275,375,l),
(297,393,ls),
(313,406,o),
(347,463,o),
(347,475,qs),
(347,478,o),
(346,479,q),
(321,520,o),
(280,542,qs),
(257,555,o),
(238,559,o),
(211,559,qs),
(173,559,o),
(140,545,qs),
(116,534,o)
);
}
);
width = 359;
}
);
note = three;
unicode = 51;
},
{
glyphname = four;
lastChange = "2025-07-04 11:08:29 +0000";
layers = (
{
layerId = m01;
shapes = (
{
closed = 1;
nodes = (
(317,344,qs),
(312,263,o),
(306,254,qs),
(303,248,o),
(279,241,qs),
(256,234,o),
(161,212,o),
(154,212,qs),
(153,212,l),
(153,216,o),
(206,283,o),
(224,302,qs),
(251,331,o),
(277,366,qs),
(298,394,o),
(320,420,o),
(321,419,q),
(317,348,ls),
(317,346,o)
);
},
{
closed = 1;
nodes = (
(177,398,qs),
(165,383,o),
(101,288,o),
(82,268,qs),
(60,244,o),
(10,166,o),
(10,156,qs),
(10,155,o),
(11,154,qs),
(21,145,o),
(80,106,o),
(84,106,qs),
(91,106,o),
(166,131,qs),
(238,156,o),
(268,162,qs),
(273,163,o),
(289,166,o),
(299,169,o),
(301,169,qs),
(303,169,ls),
(308,169,o),
(308,98,qs),
(307,25,l),
(359,24,l),
(403,24,l),
(410,24,l),
(409,26,l),
(409,27,o),
(408,31,o),
(406,36,o),
(404,42,o),
(403,45,qs),
(396,66,o),
(396,112,qs),
(396,139,o),
(399,166,qs),
(402,193,l),
(423,190,ls),
(425,190,o),
(432,189,o),
(433,189,qs),
(448,189,o),
(448,209,o),
(427,244,qs),
(404,281,l),
(403,303,o),
(400,392,o),
(400,414,q),
(374,431,ls),
(351,446,o),
(351,456,qs),
(351,464,o),
(311,485,qs),
(269,507,o),
(267,507,o),
(232,465,qs),
(207,434,o)
);
}
);
width = 458;
}
);
note = four;
unicode = 52;
},
{
glyphname = five;
lastChange = "2025-07-10 04:19:14 +0000";
layers = (
{
layerId = m01;
shapes = (
{
closed = 1;
nodes = (
(83,555,ls),
(87,541,o),
(87,540,qs),
(87,536,o),
(75,507,qs),
(67,488,o),
(43,402,o),
(45,400,q),
(82,381,l),
(118,363,l),
(155,376,ls),
(163,379,o),
(183,386,o),
(188,388,qs),
(194,390,l),
(197,390,o),
(197,355,qs),
(197,330,o),
(192,315,o),
(176,292,qs),
(153,262,o),
(127,239,qs),
(100,217,l),
(56,233,ls),
(26,245,o),
(12,245,qs),
(10,245,o),
(10,244,qs),
(10,235,o),
(20,207,qs),
(32,172,l),
(63,167,ls),
(97,161,o),
(99,160,q),
(100,160,o),
(140,166,qs),
(261,187,o),
(283,312,qs),
(289,348,l),
(263,387,o),
(242,422,q),
(204,438,ls),
(164,453,o),
(164,458,qs),
(164,467,o),
(186,525,o),
(190,525,qs),
(191,525,o),
(202,526,o),
(224,528,o),
(232,529,qs),
(269,534,o),
(326,538,qs),
(393,542,o),
(393,549,qs),
(393,553,o),
(365,572,qs),
(330,595,l),
(287,594,ls),
(213,594,o),
(111,577,qs),
(76,572,l)
);
}
);
width = 343;
}
);
note = five;
unicode = 53;
},
{
glyphname = six;
lastChange = "2025-07-04 11:08:29 +0000";
layers = (
{
layerId = m01;
shapes = (
{
closed = 1;
nodes = (
(225,201,ls),
(207,174,o),
(177,154,qs),
(148,135,l),
(133,143,ls),
(129,145,o),
(108,159,qs),
(98,167,l),
(130,197,ls),
(151,216,o),
(206,254,o),
(213,254,qs),
(216,254,o),
(230,242,qs),
(244,230,l)
);
},
{
closed = 1;
nodes = (
(110,457,o),
(80,411,qs),
(21,325,o),
(13,265,qs),
(10,244,o),
(10,232,qs),
(10,222,o),
(18,187,qs),
(28,149,l),
(58,128,ls),
(87,107,o),
(126,93,qs),
(163,79,l),
(198,89,ls),
(282,113,o),
(324,179,qs),
(344,212,o),
(344,215,qs),
(344,221,o),
(327,250,qs),
(311,277,o),
(280,295,o),
(229,308,qs),
(189,318,l),
(159,308,ls),
(133,299,o),
(125,299,q),
(121,300,o),
(163,369,o),
(186,399,qs),
(202,420,o),
(226,442,o),
(249,455,qs),
(286,477,l),
(325,457,ls),
(356,441,o),
(359,441,qs),
(360,441,o),
(360,442,qs),
(360,445,o),
(359,447,q),
(359,448,o),
(349,489,qs),
(342,521,l),
(306,538,ls),
(265,557,o),
(263,557,qs),
(262,557,ls),
(254,557,o),
(205,531,qs),
(163,508,o)
);
}
);
width = 370;
}
);
note = six;
unicode = 54;
},
{
glyphname = seven;
lastChange = "2025-07-10 04:19:25 +0000";
layers = (
{
layerId = m01;
shapes = (
{
closed = 1;
nodes = (
(162,472,qs),
(92,468,o),
(73,464,qs),
(38,459,o),
(19,459,qs),
(-10,459,o),
(-10,456,qs),
(-10,451,o),
(19,427,qs),
(50,401,l),
(117,403,ls),
(139,404,o),
(164,404,qs),
(183,404,o),
(183,401,qs),
(183,400,o),
(182,400,o),
(182,399,q),
(171,370,o),
(141,311,o),
(136,309,q),
(126,307,o),
(105,302,qs),
(86,298,o),
(74,289,o),
(62,269,qs),
(44,240,o),
(44,238,qs),
(44,237,o),
(76,237,qs),
(101,237,o),
(117,232,o),
(117,221,qs),
(117,213,o),
(112,190,qs),
(105,153,o),
(105,112,qs),
(105,72,l),
(129,69,ls),
(165,66,o),
(174,66,qs),
(197,66,l),
(197,114,ls),
(197,159,o),
(207,200,qs),
(217,239,l),
(229,240,o),
(276,240,o),
(287,241,q),
(317,283,o),
(333,304,q),
(293,306,ls),
(254,306,o),
(254,309,qs),
(254,314,o),
(271,346,qs),
(283,369,o),
(299,387,o),
(322,403,qs),
(354,426,o),
(354,432,o),
(287,494,o),
(285,494,q),
(281,492,l),
(276,491,o),
(261,487,o),
(254,485,qs),
(231,478,o)
);
}
);
width = 364;
}
);
note = seven;
unicode = 55;
},
{
glyphname = eight;
layers = (
{
layerId = m01;
shapes = (
{
closed = 1;
nodes = (
(197,220,ls),
(178,208,o),
(122,182,o),
(116,182,qs),
(115,182,o),
(115,183,qs),
(115,196,o),
(186,259,qs),
(198,270,o),
(222,291,o),
(235,302,o),
(235,300,o),
(235,293,o),
(233,277,o),
(232,269,qs),
(227,239,l)
);
},
{
closed = 1;
nodes = (
(242,436,qs),
(211,411,l),
(211,436,ls),
(211,455,o),
(217,468,o),
(234,484,qs),
(247,496,o),
(296,528,o),
(301,528,qs),
(302,528,l),
(302,526,o),
(288,494,qs),
(272,459,o)
);
},
{
closed = 1;
nodes = (
(159,542,o),
(141,514,qs),
(118,476,l),
(126,445,ls),
(134,412,o),
(141,394,qs),
(150,376,o),
(150,366,o),
(90,304,o),
(67,285,qs),
(39,263,o),
(35,256,qs),
(32,251,o),
(10,186,o),
(10,182,qs),
(10,177,o),
(40,152,qs),
(60,136,o),
(82,125,o),
(108,119,qs),
(148,110,l),
(186,120,ls),
(247,136,o),
(304,193,qs),
(331,219,l),
(323,270,ls),
(314,323,o),
(303,338,qs),
(290,353,l),
(335,403,ls),
(366,437,o),
(383,462,o),
(389,483,qs),
(399,517,o),
(399,519,qs),
(399,524,o),
(365,552,qs),
(341,573,o),
(322,583,o),
(293,588,qs),
(253,595,o),
(248,597,q),
(244,597,o),
(204,575,qs),
(176,560,o)
);
}
);
width = 409;
}
);
note = eight;
unicode = 56;
},
{
glyphname = nine;
lastChange = "2025-07-04 11:08:29 +0000";
layers = (
{
layerId = m01;
shapes = (
{
closed = 1;
nodes = (
(143,313,qs),
(128,296,l),
(134,324,ls),
(138,344,o),
(156,378,qs),
(166,397,o),
(200,440,o),
(204,440,qs),
(205,440,o),
(205,432,o),
(203,420,o),
(202,414,qs),
(195,372,o)
);
},
{
closed = 1;
nodes = (
(46,364,o),
(44,303,qs),
(42,266,l),
(108,232,o),
(140,214,q),
(172,233,ls),
(181,238,o),
(214,257,o),
(218,259,qs),
(231,268,l),
(229,242,ls),
(224,182,o),
(188,119,qs),
(177,100,o),
(162,87,o),
(141,76,qs),
(111,61,l),
(62,77,ls),
(18,91,o),
(11,91,qs),
(10,91,l),
(10,86,o),
(38,58,qs),
(68,27,l),
(111,27,ls),
(156,27,o),
(197,40,qs),
(225,49,o),
(247,62,o),
(266,80,qs),
(295,108,o),
(320,181,o),
(320,248,qs),
(320,309,o),
(311,412,qs),
(308,449,l),
(283,478,ls),
(266,497,o),
(247,510,o),
(221,520,qs),
(182,533,o),
(180,533,q),
(175,530,ls),
(171,527,o),
(155,515,o),
(148,510,qs),
(101,474,o)
);
}
);
width = 330;
}
);
note = nine;
unicode = 57;
},
{
glyphname = colon;
layers = (
{
layerId = m01;
shapes = (
{
closed = 1;
nodes = (
(17,321,qs),
(19,307,o),
(23,302,o),
(35,302,qs),
(48,302,o),
(53,307,o),
(55,322,qs),
(58,355,o),
(58,375,qs),
(58,407,l),
(41,407,ls),
(28,407,o),
(16,410,qs),
(15,410,l),
(14,411,l),
(11,411,o),
(11,401,qs),
(11,388,o),
(12,376,qs),
(12,366,o)
);
},
{
closed = 1;
nodes = (
(14,190,o),
(14,176,qs),
(14,170,o),
(11,134,qs),
(9,118,o),
(12,110,o),
(18,108,qs),
(26,106,o),
(27,106,qs),
(41,106,o),
(57,152,qs),
(69,188,o),
(69,195,qs),
(69,198,o),
(67,204,qs),
(63,214,o),
(56,214,qs),
(51,214,o),
(33,205,qs),
(19,198,o)
);
}
);
width = 79;
}
);
note = colon;
unicode = 58;
},
{
glyphname = semicolon;
lastChange = "2025-07-04 11:08:29 +0000";
layers = (
{
layerId = m01;
shapes = (
{
closed = 1;
nodes = (
(68,330,o),
(68,282,o),
(87,282,qs),
(95,282,o),
(101,283,qs),
(111,284,o),
(120,298,o),
(131,332,qs),
(147,378,o),
(144,381,q),
(143,381,ls),
(134,381,o),
(107,364,qs),
(80,348,o)
);
},
{
closed = 1;
nodes = (
(83,179,qs),
(77,182,o),
(72,182,qs),
(61,182,o),
(61,164,qs),
(61,163,o),
(62,154,o),
(62,152,qs),
(64,142,o),
(68,123,o),
(70,112,o),
(70,107,qs),
(70,92,o),
(56,53,qs),
(34,-9,o),
(23,-32,qs),
(8,-67,o),
(10,-71,q),
(11,-72,l),
(19,-72,o),
(74,-4,o),
(88,23,qs),
(131,104,o),
(131,156,qs),
(131,158,o),
(130,164,o),
(130,165,qs),
(127,187,o),
(118,187,qs),
(113,187,o),
(104,181,qs),
(95,174,o)
);
}
);
width = 154;
}
);
note = semicolon;
unicode = 59;
},
{
glyphname = question;
lastChange = "2025-07-04 11:08:29 +0000";
layers = (
{
layerId = m01;
shapes = (
{
closed = 1;
nodes = (
(139,596,o),
(104,566,qs),
(58,526,o),
(38,492,qs),
(10,447,o),
(10,441,qs),
(10,438,o),
(16,438,qs),
(17,438,ls),
(28,438,o),
(59,464,qs),
(104,502,o),
(198,522,qs),
(218,526,o),
(244,526,qs),
(293,526,o),
(305,511,qs),
(313,499,o),
(313,497,qs),
(313,494,o),
(291,452,qs),
(269,409,o),
(246,390,qs),
(216,364,o),
(113,235,o),
(99,204,qs),
(82,170,o),
(82,162,qs),
(82,157,o),
(124,106,o),
(128,106,qs),
(133,106,o),
(151,136,qs),
(169,166,l),
(159,197,l),
(150,228,l),
(169,253,ls),
(181,270,o),
(226,315,qs),
(268,356,o),
(356,477,o),
(369,510,qs),
(380,538,o),
(380,550,qs),
(380,575,o),
(321,622,q),
(299,627,o),
(262,627,qs),
(234,627,o),
(219,624,qs),
(174,614,o)
);
},
{
closed = 1;
nodes = (
(95,48,qs),
(95,45,o),
(119,1,qs),
(143,-42,l),
(172,-34,ls),
(204,-24,o),
(207,-21,qs),
(212,-16,o),
(221,-18,qs),
(222,-18,o),
(223,-18,q),
(225,-19,l),
(235,-19,o),
(235,-2,qs),
(235,8,o),
(232,25,qs),
(225,62,o),
(219,75,o),
(205,75,qs),
(192,75,ls),
(167,75,o),
(129,63,qs),
(95,52,o)
);
}
);
width = 390;
}
);
note = question;
unicode = 63;
},
{
glyphname = A;
lastChange = "2026-03-25 05:34:17 +0000";
layers = (
{
layerId = m01;
shapes = (
{
closed = 1;
nodes = (
(239,310,ls),
(237,310,o),
(226,309,o),
(222,309,qs),
(202,309,o),
(185,312,qs),
(154,316,l),
(177,342,ls),
(209,379,o),
(222,414,q),
(222,415,o),
(223,415,qs),
(228,415,o),
(258,351,o),
(260,332,qs),
(261,312,l)
);
},
{
closed = 1;
nodes = (
(133,538,q),
(123,473,o),
(29,313,qs),
(-10,248,o),
(-20,208,qs),
(-30,173,o),
(-30,161,qs),
(-30,155,o),
(14,80,o),
(18,80,qs),
(25,81,o),
(73,154,o),
(81,176,qs),
(94,209,o),
(97,212,qs),
(101,216,o),
(117,206,qs),
(129,199,o),
(159,196,o),
(215,196,qs),
(297,195,l),
(308,162,ls),
(318,130,o),
(343,106,qs),
(365,84,o),
(369,84,q),
(371,88,ls),
(373,92,o),
(380,110,o),
(383,116,qs),
(394,143,o),
(394,156,qs),
(394,170,o),
(385,206,qs),
(379,230,o),
(379,248,o),
(385,274,qs),
(393,307,l),
(374,316,ls),
(361,322,o),
(352,336,o),
(342,363,qs),
(330,399,o),
(324,427,qs),
(317,458,o),
(292,534,qs),
(265,615,l),
(225,625,ls),
(187,634,o),
(183,634,qs),
(180,634,o),
(158,594,qs),
(138,557,o)
);
}
);
width = 409;
}
);
note = A;
unicode = 65;
},
{
glyphname = B;
lastChange = "2026-03-25 05:34:25 +0000";
layers = (
{
layerId = m01;
shapes = (
{
closed = 1;
nodes = (
(124,631,l),
(68,593,l),
(12,519,l),
(12,426,l),
(12,370,l),
(12,296,l),
(-6,222,l),
(12,147,l),
(-6,73,l),
(87,55,l),
(180,55,l),
(254,73,l),
(309,129,l),
(347,185,l),
(365,259,l),
(329,334,l),
(272,370,l),
(309,445,l),
(329,538,l),
(292,612,l),
(218,631,l)
);
},
{
closed = 1;
nodes = (
(87,445,l),
(87,519,l),
(161,519,l),
(235,482,l),
(254,426,l),
(142,390,l),
(87,352,l)
);
},
{
closed = 1;
nodes = (
(142,167,l),
(68,204,l),
(87,278,l),
(161,296,l),
(235,259,l),
(292,185,l),
(218,167,l)
);
}
);
width = 358;
}
);
note = B;
unicode = 66;
},
{
glyphname = C;
lastChange = "2026-03-25 05:34:25 +0000";
layers = (
{
layerId = m01;
shapes = (
{
closed = 1;
nodes = (
(219,543,l),
(128,525,l),
(74,463,l),
(19,385,l),
(1,307,l),
(1,207,l),
(55,127,l),
(128,89,l),
(201,69,l),
(273,89,l),
(347,127,l),
(437,189,l),
(347,207,l),
(292,168,l),
(219,168,l),
(165,189,l),
(128,267,l),
(128,326,l),
(128,405,l),
(183,463,l),
(237,485,l),
(292,445,l),
(364,485,l),
(292,543,l)
);
}
);
width = 398;
}
);
note = C;
unicode = 67;
},
{
glyphname = D;
lastChange = "2026-03-25 05:34:25 +0000";
layers = (
{
layerId = m01;
shapes = (
{
closed = 1;
nodes = (
(375,453,qs),
(391,439,o),
(404,421,o),
(412,399,qs),
(423,368,o),
(423,341,qs),
(423,307,o),
(406,265,qs),
(389,225,o),
(320,166,o),
(248,129,qs),
(229,120,o),
(225,119,qs),
(222,118,o),
(224,123,qs),
(227,130,o),
(235,352,o),
(241,383,qs),
(247,410,o),
(247,452,qs),
(248,487,l),
(269,496,ls),
(291,506,o),
(295,506,qs),
(301,506,o),
(326,490,qs),
(349,475,o)
);
},
{
closed = 1;
nodes = (
(82,472,l),
(82,426,ls),
(82,364,o),
(73,309,qs),
(47,160,o),
(44,157,q),
(43,157,ls),
(39,157,o),
(-13,171,o),
(-17,171,qs),
(-18,171,l),
(-21,168,o),
(-18,140,qs),
(-14,111,l),
(17,95,ls),
(111,48,o),
(218,48,qs),
(221,48,o),
(233,49,o),
(236,49,qs),
(294,52,o),
(401,92,qs),
(464,115,o),
(525,169,qs),
(554,195,o),
(582,258,o),
(587,309,qs),
(593,355,l),
(576,394,ls),
(564,423,o),
(550,441,o),
(526,457,qs),
(432,522,o),
(307,552,qs),
(260,564,o),
(230,582,qs),
(210,594,o),
(143,616,o),
(128,616,qs),
(122,616,o),
(102,596,qs),
(81,577,l)
);
}
);
width = 603;
}
);
note = D;
unicode = 68;
},
{
glyphname = E;
lastChange = "2026-03-25 05:34:17 +0000";
layers = (
{
layerId = m01;
shapes = (
{
closed = 1;
nodes = (
(234,599,l),
(178,580,l),
(121,562,l),
(103,562,l),
(53,540,l),
(16,465,l),
(30,416,l),
(30,359,l),
(17,300,l),
(17,206,l),
(9,112,l),
(-10,37,l),
(9,0,l),
(121,0,l),
(178,19,l),
(234,37,l),
(271,37,l),
(271,112,l),
(290,131,l),
(290,206,l),
(196,187,l),
(121,168,l),
(84,150,l),
(84,225,l),
(140,225,l),
(215,243,l),
(215,356,l),
(103,337,l),
(103,356,l),
(103,431,l),
(178,449,l),
(271,468,l),
(309,580,l)
);
}
);
width = 309;
}
);
note = E;
unicode = 69;
},
{
glyphname = F;
lastChange = "2026-03-25 05:34:25 +0000";
layers = (
{
annotations = (
{
pos = (156,-51);
type = Minus;
},
{
pos = (612,137);
type = Minus;
},
{
pos = (611.756,14.895);
type = Minus;
}
);
layerId = m01;
shapes = (
{
closed = 1;
nodes = (
(33,542,o),
(25,520,qs),
(15,497,o),
(15,482,qs),
(15,479,o),
(17,457,qs),
(19,439,o),
(19,398,qs),
(19,223,o),
(11,211,q),
(11,210,ls),
(10,204,o),
(10,199,qs),
(10,191,o),
(12,159,qs),
(15,110,l),
(68,113,ls),
(157,118,o),
(163,129,qs),
(165,132,o),
(171,168,qs),
(177,202,o),
(189,234,qs),
(199,258,o),
(207,268,o),
(221,271,qs),
(241,278,o),
(245,279,qs),
(295,291,o),
(347,300,qs),
(386,307,o),
(404,309,o),
(416,320,qs),
(433,337,o),
(433,341,qs),
(433,348,o),
(403,360,qs),
(373,373,l),
(312,375,ls),
(189,379,o),
(192,379,qs),
(189,382,o),
(189,414,qs),
(189,459,o),
(193,476,qs),
(199,500,l),
(254,503,ls),
(263,503,o),
(278,504,qs),
(301,504,o),
(316,500,qs),
(329,496,o),
(343,496,qs),
(365,496,o),
(418,511,qs),
(450,520,o),
(450,527,qs),
(450,528,o),
(448,540,o),
(448,546,qs),
(448,555,o),
(385,585,o),
(356,589,qs),
(315,596,o),
(262,596,qs),
(138,596,o),
(62,562,qs),
(44,554,o)
);
}
);
width = 430;
}
);
note = F;
unicode = 70;
},
{
glyphname = G;
lastChange = "2026-03-25 05:34:25 +0000";
layers = (
{
layerId = m01;
shapes = (
{
closed = 1;
nodes = (
(268,372,qs),
(268,370,l),
(267,368,l),
(267,366,o),
(264,354,o),
(261,335,o),
(260,328,qs),
(255,296,l),
(198,290,l),
(175,311,ls),
(151,331,o),
(146,350,qs),
(142,365,o),
(142,373,qs),
(142,377,o),
(144,381,o),
(153,383,o),
(162,383,o),
(172,383,qs),
(178,383,ls),
(214,383,o),
(242,381,qs),
(268,379,o)
);
},
{
closed = 1;
nodes = (
(135,631,o),
(103,595,qs),
(53,539,o),
(10,439,o),
(10,381,qs),
(10,336,o),
(22,301,qs),
(30,276,o),
(43,258,o),
(85,222,o),
(106,212,o),
(136,207,qs),
(168,202,o),
(184,202,qs),
(191,202,o),
(209,204,qs),
(245,208,o),
(247,208,qs),
(253,208,o),
(271,153,o),
(278,115,qs),
(283,86,l),
(314,92,ls),
(348,98,o),
(378,108,qs),
(410,118,l),
(407,151,ls),
(406,159,o),
(405,194,o),
(403,246,o),
(402,262,qs),
(400,314,o),
(400,318,qs),
(400,342,o),
(411,371,qs),
(425,405,o),
(428,408,qs),
(434,414,o),
(519,441,o),
(541,443,qs),
(560,445,o),
(656,480,o),
(664,488,q),
(665,488,o),
(662,495,o),
(655,504,o),
(651,509,qs),
(639,523,o),
(626,529,o),
(602,530,qs),
(594,531,o),
(582,531,qs),
(562,531,o),
(540,524,qs),
(472,504,o),
(339,482,qs),
(331,481,o),
(259,475,qs),
(211,471,o),
(187,466,o),
(170,455,qs),
(156,445,o),
(150,445,qs),
(146,445,o),
(146,450,qs),
(146,458,o),
(152,480,qs),
(157,503,o),
(198,565,o),
(220,584,qs),
(243,603,o),
(246,603,qs),
(250,603,o),
(266,560,qs),
(283,516,l),
(319,518,ls),
(353,521,o),
(382,533,qs),
(410,545,l),
(406,575,ls),
(401,624,o),
(392,648,o),
(368,675,qs),
(338,707,o),
(332,707,o),
(295,700,qs),
(240,689,o)
);
}
);
width = 532;
}
);
note = G;
unicode = 71;
},
{
glyphname = H;
lastChange = "2026-03-25 05:34:25 +0000";
layers = (
{
layerId = m01;
shapes = (
{
closed = 1;
nodes = (
(385,523,qs),
(382,539,o),
(376,604,qs),
(373,644,o),
(354,675,qs),
(335,707,o),
(327,707,qs),
(321,707,o),
(227,678,o),
(227,675,qs),
(227,664,o),
(237,624,qs),
(254,559,o),
(254,510,qs),
(254,498,o),
(252,478,qs),
(248,451,l),
(209,441,ls),
(180,433,o),
(169,433,qs),
(168,433,l),
(159,442,o),
(159,523,qs),
(158,568,l),
(133,600,ls),
(107,633,o),
(104,633,qs),
(102,633,o),
(62,614,qs),
(25,596,l),
(16,566,ls),
(10,545,o),
(10,535,qs),
(10,528,o),
(13,514,qs),
(16,503,o),
(40,300,o),
(44,287,qs),
(48,267,o),
(67,205,o),
(84,160,o),
(86,160,qs),
(93,160,o),
(134,179,qs),
(178,198,l),
(184,228,ls),
(188,245,o),
(188,261,qs),
(188,274,o),
(185,293,qs),
(184,302,o),
(182,320,o),
(182,328,o),
(182,329,q),
(222,347,l),
(262,364,l),
(276,325,ls),
(290,285,o),
(290,243,qs),
(290,216,o),
(305,120,o),
(310,111,qs),
(313,105,o),
(324,105,qs),
(340,105,o),
(383,120,qs),
(424,133,o),
(446,150,o),
(446,173,qs),
(446,180,o),
(444,206,qs),
(440,249,o),
(426,285,qs),
(413,320,o),
(413,390,o),
(424,428,qs),
(430,450,o),
(435,469,q),
(434,469,o),
(391,477,o),
(391,478,qs),
(391,487,o)
);
}
);
width = 471;
}
);
note = H;
unicode = 72;
},
{
glyphname = I;
lastChange = "2026-03-25 05:34:17 +0000";
layers = (
{
layerId = m01;
shapes = (
{
closed = 1;
nodes = (
(151,607,l),
(34,568,l),
(34,487,l),
(34,406,l),
(34,245,l),
(34,144,l),
(10,43,l),
(105,104,l),
(151,144,l),
(151,245,l),
(151,406,l),
(151,487,l)
);
}
);
width = 191;
}
);
note = I;
unicode = 73;
},
{
glyphname = J;
lastChange = "2026-03-25 05:34:25 +0000";
layers = (
{
layerId = m01;
shapes = (
{
closed = 1;
nodes = (
(419,665,l),
(341,646,l),
(243,625,l),
(163,606,l),
(64,584,l),
(105,545,l),
(184,545,l),
(243,566,l),
(262,487,l),
(262,408,l),
(262,328,l),
(243,249,l),
(222,171,l),
(163,113,l),
(123,171,l),
(144,249,l),
(163,348,l),
(64,348,l),
(5,289,l),
(5,210,l),
(26,131,l),
(64,72,l),
(144,32,l),
(222,72,l),
(302,113,l),
(341,190,l),
(361,270,l),
(381,447,l),
(361,526,l),
(361,606,l),
(419,606,l),
(498,625,l),
(519,665,l)
);
}
);
width = 409;
}
);
note = J;
unicode = 74;
},
{
glyphname = K;
lastChange = "2026-03-25 05:34:25 +0000";
layers = (
{
layerId = m01;
shapes = (
{
closed = 1;
nodes = (
(321,583,l),
(262,524,l),
(201,444,l),
(161,384,l),
(122,344,l),
(102,384,l),
(122,464,l),
(102,563,l),
(-19,504,l),
(-19,423,l),
(-19,344,l),
(-19,264,l),
(-19,184,l),
(-19,104,l),
(1,4,l),
(82,24,l),
(122,83,l),
(122,104,l),
(122,104,l),
(122,164,l),
(122,223,l),
(161,184,l),
(201,124,l),
(262,63,l),
(321,4,l),
(442,83,l),
(381,144,l),
(321,204,l),
(262,284,l),
(201,324,l),
(201,324,l),
(242,384,l),
(282,444,l),
(361,524,l),
(422,624,l)
);
}
);
width = 350;
}
);
note = K;
unicode = 75;
},
{
glyphname = L;
lastChange = "2026-03-25 05:34:17 +0000";
layers = (
{
layerId = m01;
shapes = (
{
closed = 1;
nodes = (
(198,194,o),
(194,247,o),
(193,260,q),
(221,338,ls),
(246,413,o),
(257,463,qs),
(267,510,l),
(238,526,ls),
(209,543,o),
(168,545,qs),
(127,547,l),
(99,517,ls),
(81,497,o),
(70,477,o),
(66,457,qs),
(62,434,o),
(46,381,qs),
(26,313,o),
(14,248,o),
(12,191,qs),
(10,120,l),
(26,111,o),
(60,95,q),
(211,96,ls),
(330,97,o),
(438,106,o),
(499,122,qs),
(525,130,o),
(569,135,qs),
(599,139,o),
(622,146,o),
(642,159,qs),
(672,178,o),
(672,184,o),
(654,204,qs),
(641,219,o),
(628,225,o),
(602,227,qs),
(595,228,o),
(579,228,qs),
(520,228,o),
(453,209,qs),
(419,199,o),
(384,199,qs),
(363,199,o),
(255,181,o),
(233,181,qs),
(199,181,l)
);
}
);
width = 582;
}
);
note = L;
unicode = 76;
},
{
glyphname = M;
lastChange = "2026-03-25 05:34:25 +0000";
layers = (
{
layerId = m01;
shapes = (
{
closed = 1;
nodes = (
(326,602,o),
(314,581,qs),
(289,540,o),
(270,521,qs),
(252,502,o),
(229,475,qs),
(212,456,l),
(197,473,ls),
(182,492,o),
(164,526,qs),
(145,561,o),
(106,611,o),
(97,611,qs),
(72,610,o),
(51,585,qs),
(38,570,o),
(31,549,o),
(26,510,qs),
(10,396,o),
(10,237,qs),
(10,225,ls),
(12,137,o),
(47,73,qs),
(72,29,o),
(85,29,qs),
(87,29,o),
(88,30,qs),
(91,33,o),
(91,95,qs),
(91,209,o),
(84,309,qs),
(80,359,o),
(78,400,q),
(154,262,o),
(171,236,qs),
(192,205,o),
(208,188,o),
(227,180,qs),
(249,171,o),
(255,171,qs),
(257,171,l),
(260,174,o),
(275,213,qs),
(288,245,o),
(341,324,o),
(354,330,qs),
(365,334,l),
(367,277,ls),
(372,154,o),
(415,100,qs),
(427,85,o),
(439,77,o),
(450,77,qs),
(465,76,l),
(470,113,ls),
(472,125,o),
(472,150,qs),
(472,168,o),
(471,175,qs),
(467,203,o),
(467,263,qs),
(467,325,o),
(460,358,qs),
(454,386,o),
(454,429,qs),
(454,467,o),
(447,511,qs),
(440,558,l),
(408,592,ls),
(376,628,o),
(375,628,qs),
(372,628,o),
(353,621,qs),
(340,616,o)
);
}
);
width = 492;
}
);
note = M;
unicode = 77;
},
{
glyphname = N;
lastChange = "2026-03-25 05:34:25 +0000";
layers = (
{
layerId = m01;
shapes = (
{
closed = 1;
nodes = (
);
},
{
closed = 1;
nodes = (
(341,622,l),
(309,534,l),
(300,421,l),
(263,299,l),
(255,241,l),
(244,241,l),
(225,318,l),
(206,394,l),
(171,440,l),
(152,535,l),
(114,631,l),
(29,535,l),
(10,459,l),
(18,414,l),
(10,268,l),
(10,191,l),
(10,115,l),
(94,13,l),
(112,141,l),
(104,217,l),
(113,324,l),
(113,343,l),
(133,286,l),
(190,96,l),
(209,19,l),
(302,38,l),
(334,128,l),
(381,363,l),
(400,440,l),
(400,516,l),
(417,622,l)
);
}
);
width = 417;
}
);
note = N;
unicode = 78;
},
{
glyphname = O;
lastChange = "2026-03-25 05:34:17 +0000";
layers = (
{
layerId = m01;
shapes = (
{
closed = 1;
nodes = (
(334,360,qs),
(343,323,o),
(343,258,qs),
(343,193,l),
(327,156,ls),
(315,130,o),
(303,117,o),
(279,104,qs),
(247,86,l),
(212,92,ls),
(187,97,o),
(172,104,o),
(154,123,qs),
(130,150,o),
(113,186,qs),
(100,213,o),
(94,242,o),
(91,289,qs),
(89,311,o),
(89,347,qs),
(89,413,o),
(121,457,qs),
(134,475,o),
(152,499,o),
(168,506,qs),
(194,519,o),
(202,519,o),
(227,510,qs),
(301,484,o)
);
},
{
closed = 1;
nodes = (
(147,572,o),
(127,550,o),
(88,505,o),
(85,502,qs),
(63,479,o),
(14,350,o),
(2,280,qs),
(-5,243,o),
(-5,228,qs),
(-5,210,o),
(-1,188,qs),
(10,129,o),
(18,101,qs),
(28,69,o),
(40,50,o),
(64,29,qs),
(98,1,o),
(132,-15,qs),
(167,-31,l),
(208,-23,ls),
(247,-15,o),
(256,-6,qs),
(263,-4,o),
(308,47,qs),
(366,113,l),
(416,267,o),
(429,339,q),
(417,422,ls),
(410,478,o),
(399,516,o),
(386,540,qs),
(375,563,o),
(358,570,o),
(338,584,qs),
(306,605,o),
(273,607,qs),
(239,612,o),
(233,616,qs),
(231,618,o),
(228,618,qs),
(222,618,o),
(194,600,qs),
(181,592,o)
);
}
);
width = 437;
}
);
note = O;
unicode = 79;
},
{
glyphname = P;
lastChange = "2026-03-25 05:34:25 +0000";
layers = (
{
layerId = m01;
shapes = (
{
closed = 1;
nodes = (
(343,518,o),
(343,514,qs),
(343,508,o),
(280,467,o),
(256,457,qs),
(207,436,o),
(195,430,qs),
(174,418,l),
(171,446,ls),
(168,489,o),
(167,515,qs),
(166,557,l),
(199,555,ls),
(238,553,o),
(261,547,qs),
(284,542,o)
);
},
{
closed = 1;
nodes = (
(6,624,o),
(-19,578,qs),
(-30,560,l),
(-2,528,ls),
(19,504,o),
(29,486,o),
(34,457,qs),
(39,426,o),
(50,239,o),
(50,170,qs),
(50,121,l),
(82,117,ls),
(104,115,o),
(120,115,qs),
(125,115,o),
(143,116,o),
(146,116,qs),
(179,118,l),
(187,149,ls),
(194,176,o),
(194,207,qs),
(194,236,o),
(188,285,qs),
(182,328,o),
(182,344,qs),
(182,351,o),
(223,359,qs),
(268,368,o),
(423,432,o),
(457,456,qs),
(480,472,o),
(492,485,o),
(492,496,qs),
(492,509,o),
(488,529,qs),
(484,550,o),
(475,564,o),
(456,581,qs),
(434,602,o),
(397,620,qs),
(364,635,l),
(263,639,ls),
(189,641,o),
(154,645,o),
(138,653,qs),
(114,664,o),
(105,664,qs),
(101,664,o),
(55,650,qs),
(21,639,o)
);
}
);
width = 462;
}
);
note = P;
unicode = 80;
},
{
glyphname = Q;
lastChange = "2026-03-25 05:34:25 +0000";
layers = (
{
layerId = m01;
shapes = (
{
closed = 1;
nodes = (
(297,449,ls),
(311,413,o),
(311,373,qs),
(311,333,l),
(290,293,ls),
(267,252,o),
(263,252,qs),
(259,252,o),
(246,292,qs),
(238,321,o),
(225,340,o),
(215,340,qs),
(208,340,o),
(199,291,qs),
(190,249,o),
(190,235,qs),
(190,228,o),
(192,215,qs),
(193,204,o),
(194,187,o),
(193,187,qs),
(191,187,ls),
(181,187,o),
(127,194,o),
(108,201,q),
(84,216,o),
(81,238,qs),
(73,283,l),
(79,323,ls),
(93,415,o),
(139,470,qs),
(181,522,o),
(194,514,qs),
(197,514,ls),
(212,512,o),
(246,499,qs),
(283,485,l)
);
},
{
closed = 1;
nodes = (
(131,589,o),
(78,535,o),
(54,487,qs),
(25,430,o),
(0,258,o),
(0,192,qs),
(0,173,o),
(1,165,qs),
(4,136,o),
(11,114,o),
(26,89,qs),
(48,53,l),
(61,48,o),
(113,24,o),
(126,19,q),
(152,26,ls),
(157,27,o),
(194,36,o),
(203,40,o),
(224,51,o),
(234,59,qs),
(256,77,o),
(258,75,q),
(273,47,ls),
(286,20,o),
(307,4,qs),
(325,-11,o),
(331,-11,qs),
(342,-11,o),
(342,81,qs),
(342,116,o),
(338,136,o),
(329,150,qs),
(316,168,l),
(329,200,ls),
(339,224,o),
(373,342,o),
(379,375,qs),
(384,398,o),
(388,449,qs),
(390,464,o),
(390,491,qs),
(390,557,o),
(359,601,qs),
(343,624,o),
(309,655,o),
(301,655,qs),
(294,655,o),
(190,629,o),
(158,607,qs)
);
}
);
width = 410;
}
);
note = Q;
unicode = 81;
},
{
glyphname = R;
lastChange = "2026-03-25 05:34:25 +0000";
layers = (
{
layerId = m01;
shapes = (
{
closed = 1;
nodes = (
(235,316,o),
(187,276,o),
(174,276,qs),
(171,276,l),
(162,279,o),
(162,295,qs),
(162,298,o),
(164,328,qs),
(164,342,o),
(169,400,qs),
(171,419,o),
(182,426,o),
(211,427,qs),
(231,427,l),
(249,401,o),
(268,369,q),
(250,340,ls)
);
},
{
closed = 1;
nodes = (
(117,511,qs),
(97,503,o),
(22,467,o),
(22,465,qs),
(21,460,ls),
(20,455,o),
(16,437,o),
(14,430,qs),
(10,413,o),
(10,401,qs),
(10,392,o),
(19,361,qs),
(30,324,o),
(30,277,qs),
(30,240,o),
(50,39,o),
(51,24,qs),
(54,-27,l),
(91,-28,l),
(107,-28,ls),
(132,-28,o),
(180,-8,o),
(190,18,o),
(190,71,qs),
(190,112,o),
(200,112,o),
(212,98,qs),
(220,89,o),
(254,62,qs),
(285,38,o),
(318,5,qs),
(349,-25,l),
(377,-18,ls),
(473,7,o),
(473,16,qs),
(473,22,o),
(457,50,qs),
(435,89,o),
(350,146,qs),
(316,169,o),
(294,187,qs),
(267,209,l),
(308,243,ls),
(335,266,o),
(369,291,qs),
(387,303,o),
(398,335,qs),
(406,361,o),
(406,373,o),
(396,417,o),
(362,479,o),
(351,489,qs),
(309,525,o),
(263,532,qs),
(224,539,l),
(220,539,o),
(182,531,qs),
(155,525,o)
);
}
);
width = 443;
}
);
note = R;
unicode = 82;
},
{
glyphname = S;
lastChange = "2026-03-25 05:34:25 +0000";
layers = (
{
layerId = m01;
shapes = (
{
closed = 1;
nodes = (
(250,576,l),
(178,570,l),
(43,493,l),
(5,416,l),
(-14,340,l),
(43,282,l),
(101,263,l),
(178,242,l),
(255,242,l),
(293,185,l),
(332,128,l),
(322,51,l),
(255,31,l),
(178,51,l),
(140,108,l),
(159,204,l),
(63,146,l),
(24,51,l),
(82,-26,l),
(159,-65,l),
(236,-46,l),
(313,-8,l),
(370,51,l),
(428,108,l),
(447,204,l),
(409,282,l),
(332,320,l),
(255,340,l),
(197,340,l),
(120,378,l),
(101,436,l),
(120,493,l),
(178,493,l),
(255,454,l),
(332,531,l),
(304,559,l)
);
}
);
width = 447;
}
);
note = S;
unicode = 83;
},
{
glyphname = T;
lastChange = "2026-03-25 05:34:25 +0000";
layers = (
{
layerId = m01;
shapes = (
{
closed = 1;
nodes = (
(233,527,qs),
(179,519,o),
(106,504,qs),
(63,496,o),
(32,496,qs),
(22,496,l),
(-17,497,l),
(-37,478,o),
(-60,460,q),
(-57,429,ls),
(-54,394,o),
(-43,379,o),
(-14,371,qs),
(21,361,l),
(56,374,ls),
(98,395,o),
(130,395,qs),
(162,395,l),
(168,364,ls),
(178,310,o),
(179,169,o),
(186,141,qs),
(195,102,o),
(221,38,o),
(228,38,qs),
(229,38,ls),
(266,38,o),
(282,28,qs),
(312,36,l),
(309,84,ls),
(305,148,o),
(300,168,qs),
(297,180,o),
(283,363,o),
(277,376,qs),
(273,384,o),
(272,392,q),
(277,396,o),
(334,426,o),
(354,426,qs),
(389,426,o),
(425,438,qs),
(460,449,o),
(460,456,qs),
(460,459,o),
(459,461,q),
(456,474,o),
(379,551,o),
(369,552,qs),
(356,552,o),
(336,547,qs),
(314,540,o)
);
}
);
width = 435;
}
);
note = T;
unicode = 84;
},
{
glyphname = U;
lastChange = "2026-03-25 05:34:17 +0000";
layers = (
{
layerId = m01;
shapes = (
{
closed = 1;
nodes = (
(84,538,l),
(29,501,l),
(29,427,l),
(10,353,l),
(10,279,l),
(29,188,l),
(47,114,l),
(66,58,l),
(103,21,l),
(176,3,l),
(249,3,l),
(305,21,l),
(342,40,l),
(342,95,l),
(397,21,l),
(452,40,l),
(452,132,l),
(434,206,l),
(416,279,l),
(416,335,l),
(416,409,l),
(397,483,l),
(379,520,l),
(379,520,l),
(323,520,l),
(268,483,l),
(268,409,l),
(268,335,l),
(268,243,l),
(249,169,l),
(213,132,l),
(176,151,l),
(157,225,l),
(157,298,l),
(157,390,l),
(157,464,l),
(140,538,l)
);
}
);
width = 487;
}
);
note = U;
unicode = 85;
},
{
glyphname = V;
lastChange = "2026-03-25 05:34:25 +0000";
layers = (
{
layerId = m01;
shapes = (
{
closed = 1;
nodes = (
(26,517,o),
(21,503,o),
(19,497,qs),
(10,473,o),
(10,458,qs),
(10,440,o),
(30,349,qs),
(44,288,o),
(60,261,qs),
(79,227,o),
(85,204,qs),
(93,174,o),
(112,142,qs),
(124,121,o),
(159,40,o),
(173,17,qs),
(192,-19,o),
(212,-31,qs),
(232,-44,o),
(234,-42,qs),
(235,-41,o),
(253,30,qs),
(278,126,o),
(336,237,o),
(389,289,qs),
(415,314,l),
(416,385,ls),
(416,454,o),
(406,484,qs),
(397,513,o),
(387,523,o),
(364,525,qs),
(339,526,l),
(317,493,ls),
(235,371,o),
(210,316,qs),
(191,273,l),
(160,349,ls),
(124,436,o),
(93,490,o),
(66,514,qs),
(40,537,o),
(34,537,qs),
(32,537,o),
(32,535,o),
(29,527,o)
);
}
);
width = 436;
}
);
note = V;
unicode = 86;
},
{
glyphname = W;
lastChange = "2026-03-25 05:34:25 +0000";
layers = (
{
layerId = m01;
shapes = (
{
closed = 1;
nodes = (
(72,677,q),
(44,689,o),
(43,706,qs),
(22,706,l),
(10,709,l),
(10,667,ls),
(10,637,o),
(15,615,o),
(28,589,qs),
(41,564,o),
(47,537,o),
(50,494,qs),
(56,428,o),
(56,368,qs),
(57,284,o),
(76,208,qs),
(82,182,o),
(114,10,o),
(121,-21,qs),
(134,-76,l),
(145,-77,o),
(188,-84,o),
(199,-86,q),
(218,-65,ls),
(236,-45,o),
(236,-39,qs),
(236,-24,o),
(210,98,o),
(210,104,qs),
(210,121,ls),
(210,225,o),
(214,225,qs),
(215,225,o),
(221,197,qs),
(233,132,o),
(286,58,qs),
(314,21,l),
(359,15,ls),
(401,11,o),
(404,11,qs),
(406,11,l),
(407,12,o),
(422,48,qs),
(459,138,o),
(468,204,qs),
(473,243,o),
(495,309,qs),
(528,404,o),
(528,428,qs),
(528,456,o),
(546,556,o),
(556,585,qs),
(591,685,o),
(598,693,qs),
(601,697,o),
(624,705,qs),
(645,713,l),
(648,740,ls),
(648,747,o),
(650,764,o),
(653,781,o),
(653,784,q),
(656,800,l),
(601,800,ls),
(548,800,o),
(542,792,qs),
(537,783,o),
(520,690,o),
(517,682,qs),
(497,630,o),
(475,526,qs),
(467,491,o),
(450,432,qs),
(445,414,o),
(412,280,o),
(388,199,o),
(377,179,qs),
(356,142,o),
(351,142,qs),
(348,142,o),
(334,169,qs),
(334,210,o),
(303,372,qs),
(300,448,o),
(277,468,qs),
(242,498,l),
(214,495,ls),
(162,489,o),
(162,486,q),
(165,485,l),
(172,485,o),
(172,479,qs),
(172,472,o),
(166,441,qs),
(163,423,o),
(163,412,qs),
(163,395,o),
(167,374,qs),
(171,354,o),
(171,336,o),
(165,332,qs),
(149,321,o),
(147,321,qs),
(133,333,o),
(130,350,qs),
(132,389,o),
(118,414,qs),
(118,447,o),
(100,506,o),
(100,615,o),
(77,672,o)
);
}
);
width = 556;
}
);
note = W;
unicode = 87;
},
{
glyphname = X;
lastChange = "2026-03-25 05:34:25 +0000";
layers = (
{
layerId = m01;
shapes = (
{
closed = 1;
nodes = (
(21,453,ls),
(26,432,o),
(38,413,o),
(60,391,qs),
(85,364,o),
(119,335,qs),
(146,311,l),
(99,251,ls),
(57,199,o),
(25,165,qs),
(0,138,l),
(6,107,ls),
(8,96,o),
(9,85,o),
(15,74,o),
(16,70,o),
(27,64,o),
(31,63,o),
(52,58,o),
(57,57,qs),
(81,51,o),
(89,51,qs),
(94,51,o),
(100,55,qs),
(103,57,o),
(165,127,qs),
(209,177,o),
(236,204,o),
(244,204,qs),
(248,204,o),
(269,188,qs),
(297,167,o),
(342,106,qs),
(389,46,o),
(391,46,qs),
(392,46,o),
(412,68,qs),
(431,89,l),
(416,128,ls),
(396,180,o),
(327,271,qs),
(307,296,l),
(344,345,ls),
(394,412,o),
(410,443,o),
(412,480,qs),
(414,524,l),
(404,524,ls),
(397,524,o),
(361,528,qs),
(329,531,l),
(306,502,ls),
(284,475,o),
(248,439,qs),
(213,405,l),
(166,457,ls),
(130,496,o),
(111,512,o),
(89,519,qs),
(82,521,o),
(65,527,o),
(54,531,o),
(52,531,qs),
(51,531,ls),
(44,531,o),
(29,508,qs),
(14,483,l)
);
}
);
width = 451;
}
);
note = X;
unicode = 88;
},
{
glyphname = Y;
lastChange = "2026-03-25 05:34:17 +0000";
layers = (
{
layerId = m01;
shapes = (
{
closed = 1;
nodes = (
(309,513,qs),
(302,498,o),
(258,423,o),
(251,414,q),
(250,414,ls),
(243,414,o),
(190,469,o),
(175,491,qs),
(129,557,o),
(93,588,qs),
(72,606,o),
(66,606,qs),
(62,606,o),
(53,603,qs),
(36,597,o),
(-40,554,o),
(-40,550,qs),
(-40,542,o),
(10,475,o),
(26,462,qs),
(49,443,o),
(68,417,qs),
(91,387,o),
(116,361,qs),
(144,331,o),
(162,289,qs),
(181,246,l),
(171,228,ls),
(135,164,o),
(116,108,qs),
(99,59,l),
(111,29,ls),
(118,10,o),
(131,-7,o),
(147,-18,qs),
(171,-34,o),
(174,-31,qs),
(180,-25,o),
(192,4,qs),
(205,35,o),
(236,92,qs),
(297,204,o),
(324,274,qs),
(334,301,o),
(372,365,o),
(405,433,qs),
(438,499,o),
(438,517,qs),
(438,518,o),
(437,524,o),
(437,526,qs),
(434,550,o),
(407,591,qs),
(380,633,o),
(377,633,qs),
(373,633,o),
(348,586,qs),
(318,534,o)
);
}
);
width = 453;
}
);
note = Y;
unicode = 89;
},
{
glyphname = Z;
lastChange = "2026-03-25 05:34:25 +0000";
layers = (
{
layerId = m01;
shapes = (
{
closed = 1;
nodes = (
(248,440,l),
(153,420,l),
(-18,420,l),
(39,363,l),
(114,363,l),
(172,363,l),
(114,230,l),
(96,174,l),
(58,98,l),
(20,42,l),
(-18,-16,l),
(0,-71,l),
(96,-53,l),
(190,-53,l),
(286,-92,l),
(361,-46,l),
(303,23,l),
(228,23,l),
(172,23,l),
(153,23,l),
(190,98,l),
(228,156,l),
(286,288,l),
(303,363,l),
(323,440,l)
);
}
);
width = 336;
}
);
note = Z;
unicode = 90;
},
{
glyphname = a;
lastChange = "2026-03-25 05:34:08 +0000";
layers = (
{
layerId = m01;
shapes = (
{
closed = 1;
nodes = (
(204,301,o),
(194,282,qs),
(180,253,o),
(152,231,qs),
(126,211,o),
(125,212,q),
(129,242,ls),
(137,305,o),
(177,359,qs),
(189,376,o),
(200,385,o),
(210,385,qs),
(224,385,o),
(224,380,qs),
(224,367,o)
);
},
{
closed = 1;
nodes = (
(126,419,o),
(108,400,qs),
(85,375,o),
(59,340,qs),
(10,271,o),
(10,186,qs),
(10,149,l),
(40,135,l),
(69,120,l),
(105,132,ls),
(146,146,o),
(182,166,qs),
(222,188,l),
(226,176,o),
(242,127,o),
(246,115,q),
(257,108,o),
(302,82,o),
(313,76,q),
(334,84,ls),
(339,86,o),
(353,92,o),
(360,94,o),
(369,98,o),
(374,101,o),
(379,104,o),
(382,107,o),
(384,111,o),
(385,115,o),
(385,118,qs),
(385,126,o),
(377,160,qs),
(369,195,o),
(369,276,qs),
(369,311,o),
(373,403,q),
(372,403,o),
(357,401,o),
(329,397,o),
(316,396,qs),
(274,392,o),
(270,392,qs),
(254,392,o),
(254,402,o),
(272,414,qs),
(289,426,o),
(289,432,o),
(231,441,o),
(215,441,qs),
(212,441,ls),
(199,441,o),
(166,434,qs),
(142,429,o)
);
}
);
width = 395;
}
);
note = a;
unicode = 97;
},
{
glyphname = b;
lastChange = "2026-03-25 05:34:25 +0000";
layers = (
{
layerId = m01;
shapes = (
{
closed = 1;
nodes = (
(189,189,qs),
(179,182,o),
(165,174,o),
(165,177,qs),
(165,184,o),
(174,217,qs),
(185,255,o),
(210,293,qs),
(235,330,l),
(238,297,ls),
(240,277,o),
(240,275,qs),
(240,260,o),
(227,234,qs),
(211,204,o)
);
},
{
closed = 1;
nodes = (
(10,330,o),
(10,273,qs),
(10,166,o),
(21,90,qs),
(24,73,l),
(72,76,ls),
(118,79,o),
(162,97,qs),
(235,129,o),
(296,169,qs),
(323,188,o),
(340,207,o),
(355,239,qs),
(377,284,l),
(373,302,o),
(354,370,o),
(349,387,q),
(310,393,ls),
(290,397,o),
(272,397,qs),
(233,397,o),
(173,375,qs),
(136,362,o),
(135,362,q),
(135,363,o),
(135,365,o),
(136,378,o),
(137,386,o),
(139,403,o),
(140,409,qs),
(144,435,o),
(144,460,qs),
(144,479,o),
(141,511,qs),
(135,565,l),
(88,565,ls),
(40,565,o),
(38,559,qs),
(29,526,o)
);
}
);
width = 387;
}
);
note = b;
unicode = 98;
},
{
glyphname = c;
lastChange = "2026-03-25 05:34:25 +0000";
layers = (
{
layerId = m01;
shapes = (
{
closed = 1;
nodes = (
(220,404,l),
(144,385,l),
(67,346,l),
(10,270,l),
(10,174,l),
(86,98,l),
(163,98,l),
(228,106,l),
(305,125,l),
(354,155,l),
(302,183,l),
(225,163,l),
(152,183,l),
(137,252,l),
(175,309,l),
(229,339,l),
(239,289,l),
(316,327,l),
(316,385,l)
);
}
);
width = 354;
}
);
note = c;
unicode = 99;
},
{
glyphname = d;
lastChange = "2026-03-25 05:34:25 +0000";
layers = (
{
layerId = m01;
shapes = (
{
closed = 1;
nodes = (
(154,159,qs),
(154,103,o),
(139,101,qs),
(138,101,o),
(136,100,q),
(135,100,ls),
(125,100,o),
(117,140,qs),
(111,172,l),
(127,197,ls),
(142,221,o),
(144,221,q),
(145,220,o),
(151,193,qs),
(154,178,o)
);
},
{
closed = 1;
nodes = (
(184,543,qs),
(180,511,o),
(153,371,o),
(151,367,qs),
(150,364,o),
(117,343,qs),
(45,298,o),
(20,223,qs),
(10,193,o),
(10,171,qs),
(10,153,o),
(11,140,qs),
(14,94,l),
(38,58,o),
(60,27,q),
(105,26,l),
(149,26,l),
(164,33,o),
(221,62,o),
(235,69,q),
(255,50,ls),
(272,31,o),
(280,33,qs),
(281,33,o),
(292,40,o),
(310,51,o),
(317,55,qs),
(349,74,l),
(335,115,ls),
(329,133,o),
(285,227,o),
(278,260,qs),
(270,299,l),
(282,380,ls),
(301,510,o),
(301,542,qs),
(301,562,o),
(292,586,qs),
(280,619,l),
(252,624,ls),
(224,628,o),
(223,628,qs),
(217,628,o),
(209,623,o),
(205,614,o),
(200,604,qs),
(189,579,o)
);
}
);
width = 349;
}
);
note = d;
unicode = 100;
},
{
glyphname = e;
lastChange = "2026-03-25 05:34:25 +0000";
layers = (
{
layerId = m01;
shapes = (
{
closed = 1;
nodes = (
(101,296,l),
(140,375,l),
(217,355,l),
(256,278,l),
(178,258,l),
(101,219,l)
);
},
{
closed = 1;
nodes = (
(217,452,l),
(140,432,l),
(81,391,l),
(24,337,l),
(4,258,l),
(4,161,l),
(42,83,l),
(140,45,l),
(217,45,l),
(295,64,l),
(353,83,l),
(420,151,l),
(378,170,l),
(275,122,l),
(217,122,l),
(160,143,l),
(131,170,l),
(198,200,l),
(295,219,l),
(361,278,l),
(341,355,l),
(283,432,l)
);
}
);
width = 408;
}
);
note = e;
unicode = 101;
},
{
glyphname = f;
lastChange = "2026-03-25 05:34:25 +0000";
layers = (
{
layerId = m01;
shapes = (
{
closed = 1;
nodes = (
(152,683,o),
(139,664,qs),
(102,610,o),
(102,523,qs),
(102,483,o),
(97,453,qs),
(92,421,l),
(74,418,ls),
(47,415,o),
(33,413,qs),
(10,410,l),
(10,365,l),
(26,359,o),
(88,332,o),
(104,325,q),
(116,291,ls),
(141,223,o),
(141,151,qs),
(141,119,o),
(144,103,qs),
(147,83,l),
(191,86,ls),
(184,90,o),
(236,100,qs),
(244,101,o),
(244,117,qs),
(244,138,o),
(237,211,qs),
(234,240,o),
(234,271,qs),
(234,292,o),
(235,299,qs),
(238,337,l),
(263,344,ls),
(281,349,o),
(372,382,o),
(372,386,qs),
(356,414,o),
(335,418,qs),
(316,421,o),
(237,414,o),
(232,419,o),
(221,463,qs),
(210,509,o),
(213,526,o),
(213,548,o),
(214,555,qs),
(215,584,o),
(229,614,qs),
(243,644,l),
(258,641,ls),
(295,635,o),
(326,635,qs),
(354,609,o),
(359,615,qs),
(380,639,l),
(359,664,ls),
(345,680,o),
(326,693,o),
(302,701,qs),
(262,714,o),
(253,715,qs),
(244,716,o),
(230,716,qs),
(212,716,o),
(186,705,qs),
(168,697,o)
);
}
);
width = 387;
}
);
note = f;
unicode = 102;
},
{
glyphname = g;
lastChange = "2026-03-25 05:34:25 +0000";
layers = (
{
layerId = m01;
shapes = (
{
closed = 1;
nodes = (
(168,-246,o),
(165,-246,qs),
(163,-246,o),
(148,-233,qs),
(133,-221,l),
(134,-182,ls),
(135,-153,o),
(140,-134,o),
(155,-111,qs),
(185,-63,o),
(193,-63,q),
(183,-152,l),
(183,-169,o)
);
},
{
closed = 1;
nodes = (
(190,267,ls),
(178,243,o),
(163,226,o),
(142,213,qs),
(116,199,o),
(112,199,qs),
(110,199,o),
(110,200,q),
(101,218,o),
(101,232,qs),
(101,257,l),
(117,283,ls),
(127,300,o),
(179,333,o),
(187,334,qs),
(191,334,o),
(199,319,qs),
(207,302,l)
);
},
{
closed = 1;
nodes = (
(121,416,o),
(108,398,qs),
(92,374,o),
(59,341,qs),
(36,317,o),
(24,297,o),
(17,271,qs),
(10,244,o),
(10,230,qs),
(10,219,o),
(13,197,qs),
(18,157,o),
(35,125,qs),
(52,92,l),
(93,84,l),
(134,77,l),
(168,101,ls),
(203,125,o),
(205,125,qs),
(206,125,o),
(204,115,o),
(200,97,o),
(197,88,qs),
(178,35,o),
(117,-33,qs),
(49,-93,o),
(51,-190,qs),
(52,-244,l),
(80,-278,ls),
(98,-300,o),
(108,-316,o),
(123,-321,qs),
(147,-329,o),
(167,-329,qs),
(191,-329,o),
(216,-311,qs),
(234,-298,o),
(247,-280,o),
(258,-250,qs),
(273,-210,o),
(273,-170,qs),
(273,-133,o),
(282,-93,qs),
(291,-54,o),
(291,-2,qs),
(291,51,l),
(323,94,ls),
(355,123,o),
(384,152,qs),
(413,179,o),
(413,195,qs),
(413,197,o),
(407,205,qs),
(402,210,o),
(399,210,qs),
(395,217,o),
(371,208,qs),
(340,197,o),
(318,168,qs),
(295,145,l),
(298,197,ls),
(299,208,o),
(299,232,qs),
(299,267,o),
(296,291,qs),
(291,330,o),
(263,474,o),
(259,474,o),
(212,457,qs),
(161,439,o)
);
}
);
width = 363;
}
);
note = g;
unicode = 103;
},
{
glyphname = h;
lastChange = "2026-03-25 05:34:25 +0000";
layers = (
{
layerId = m01;
shapes = (
{
closed = 1;
nodes = (
(51,87,qs),
(61,57,l),
(87,49,ls),
(113,41,o),
(127,41,qs),
(144,41,o),
(166,48,qs),
(192,56,l),
(197,91,ls),
(208,170,o),
(238,224,qs),
(254,255,l),
(282,223,ls),
(311,190,o),
(325,151,qs),
(339,112,l),
(372,104,ls),
(399,99,o),
(416,99,qs),
(430,99,o),
(437,100,qs),
(469,103,l),
(466,134,ls),
(462,180,o),
(404,274,o),
(357,309,qs),
(326,333,o),
(283,342,qs),
(242,352,l),
(203,338,ls),
(176,328,o),
(166,328,qs),
(162,328,o),
(162,330,q),
(155,354,o),
(151,444,qs),
(148,520,o),
(139,568,qs),
(131,609,l),
(102,624,ls),
(72,639,o),
(69,639,qs),
(67,639,o),
(38,618,qs),
(10,597,l),
(12,514,ls),
(16,430,o),
(21,388,qs),
(28,346,o),
(28,305,qs),
(28,281,o),
(41,177,o),
(41,152,qs),
(41,116,o)
);
}
);
width = 479;
}
);
note = h;
unicode = 104;
},
{
glyphname = i;
lastChange = "2026-03-25 05:34:25 +0000";
layers = (
{
layerId = m01;
shapes = (
{
closed = 1;
nodes = (
(15,359,l),
(27,250,l),
(15,162,l),
(15,83,l),
(75,103,l),
(153,122,l),
(138,204,l),
(153,301,l),
(153,379,l),
(134,418,l)
);
},
{
closed = 1;
nodes = (
(88,522,l),
(28,483,l),
(20,408,l),
(108,444,l),
(127,463,l),
(127,522,l)
);
}
);
width = 173;
}
);
note = i;
unicode = 105;
},
{
glyphname = j;
lastChange = "2026-03-25 05:34:25 +0000";
layers = (
{
layerId = m01;
shapes = (
{
closed = 1;
nodes = (
(221,364,l),
(239,269,l),
(239,192,l),
(221,136,l),
(201,59,l),
(144,21,l),
(87,97,l),
(-8,78,l),
(30,2,l),
(106,-55,l),
(183,-37,l),
(239,-17,l),
(297,40,l),
(335,116,l),
(335,192,l),
(335,288,l),
(335,364,l),
(316,364,l),
(316,364,l)
);
},
{
closed = 1;
nodes = (
(277,517,l),
(239,479,l),
(221,403,l),
(314,424,l),
(333,442,l),
(316,517,l)
);
}
);
width = 350;
}
);
note = j;
unicode = 106;
},
{
glyphname = k;
lastChange = "2026-03-25 05:34:25 +0000";
layers = (
{
layerId = m01;
shapes = (
{
closed = 1;
nodes = (
(189,334,ls),
(184,332,o),
(156,325,o),
(150,323,qs),
(127,316,l),
(138,334,ls),
(144,344,o),
(153,362,qs),
(159,372,o),
(163,372,o),
(184,356,qs),
(206,340,l)
);
},
{
closed = 1;
nodes = (
(18,187,o),
(14,145,qs),
(11,127,o),
(10,109,o),
(11,107,q),
(16,107,o),
(96,154,o),
(100,159,qs),
(105,166,o),
(110,190,qs),
(114,207,o),
(121,219,o),
(134,228,qs),
(155,242,o),
(160,240,qs),
(162,239,o),
(214,180,qs),
(254,134,o),
(277,120,o),
(324,115,qs),
(357,111,l),
(381,132,ls),
(407,156,o),
(415,164,qs),
(425,175,l),
(390,186,ls),
(364,194,o),
(348,206,o),
(332,229,qs),
(300,271,o),
(284,288,qs),
(258,316,l),
(273,337,ls),
(290,361,o),
(296,387,qs),
(297,394,o),
(300,409,o),
(301,414,qs),
(302,418,ls),
(302,419,o),
(273,435,qs),
(243,452,l),
(207,445,ls),
(174,439,o),
(146,421,qs),
(121,404,l),
(121,494,ls),
(121,558,o),
(118,589,o),
(110,605,qs),
(99,625,l),
(73,600,o),
(23,548,q),
(20,366,ls)
);
}
);
width = 435;
}
);
note = k;
unicode = 107;
},
{
glyphname = l;
lastChange = "2026-03-25 05:34:25 +0000";
layers = (
{
layerId = m01;
shapes = (
{
closed = 1;
nodes = (
(223,542,qs),
(197,475,o),
(195,470,qs),
(185,445,o),
(164,422,qs),
(141,396,l),
(138,430,ls),
(137,439,o),
(137,454,qs),
(137,475,o),
(146,507,qs),
(155,544,o),
(170,580,qs),
(183,612,o),
(209,631,qs),
(235,651,o),
(247,651,o),
(247,638,qs),
(247,628,o),
(246,622,qs),
(243,592,o)
);
},
{
closed = 1;
nodes = (
(140,694,qs),
(100,642,o),
(88,605,qs),
(76,569,o),
(70,541,qs),
(65,514,o),
(59,503,qs),
(47,479,o),
(47,407,qs),
(47,387,o),
(48,379,qs),
(50,353,o),
(50,342,qs),
(50,280,o),
(28,245,qs),
(15,222,o),
(15,211,qs),
(15,210,o),
(16,205,o),
(16,203,qs),
(18,186,o),
(20,178,o),
(26,167,o),
(34,167,o),
(44,167,qs),
(52,167,l),
(81,167,l),
(92,139,ls),
(102,109,o),
(126,86,qs),
(144,69,o),
(160,60,o),
(180,58,qs),
(186,57,o),
(202,55,o),
(211,53,o),
(212,53,qs),
(216,53,o),
(231,77,qs),
(245,101,l),
(230,122,ls),
(184,186,o),
(170,238,qs),
(159,275,l),
(187,320,ls),
(252,426,o),
(298,547,qs),
(324,619,l),
(321,669,ls),
(319,706,o),
(314,723,o),
(303,735,qs),
(287,751,o),
(263,756,qs),
(246,760,o),
(236,760,qs),
(201,760,o),
(188,751,qs),
(180,745,o)
);
}
);
width = 264;
}
);
note = l;
unicode = 108;
},
{
glyphname = m;
lastChange = "2026-03-25 05:34:25 +0000";
layers = (
{
layerId = m01;
shapes = (
{
closed = 1;
nodes = (
(60,430,qs),
(60,421,o),
(44,355,qs),
(10,204,o),
(10,174,qs),
(10,171,o),
(11,155,o),
(11,150,qs),
(13,106,l),
(30,106,ls),
(43,106,o),
(80,114,qs),
(98,125,o),
(99,142,o),
(99,166,qs),
(99,239,o),
(130,284,qs),
(136,296,o),
(174,322,o),
(182,322,qs),
(184,322,o),
(184,277,qs),
(184,264,l),
(184,243,ls),
(184,218,o),
(197,188,qs),
(212,152,o),
(224,151,qs),
(225,151,ls),
(231,151,o),
(277,164,qs),
(324,180,l),
(343,216,ls),
(322,325,o),
(369,329,qs),
(403,332,l),
(402,279,ls),
(402,271,o),
(403,249,qs),
(403,167,o),
(394,162,qs),
(391,160,o),
(391,159,q),
(393,159,ls),
(404,159,o),
(428,167,qs),
(453,175,o),
(484,181,qs),
(509,186,o),
(518,209,o),
(522,274,qs),
(523,290,o),
(523,312,qs),
(523,339,o),
(516,370,qs),
(508,406,l),
(479,409,ls),
(450,412,o),
(432,412,qs),
(403,412,o),
(359,396,qs),
(326,383,o),
(313,383,qs),
(306,383,o),
(292,386,qs),
(276,396,o),
(246,396,qs),
(222,396,o),
(209,388,qs),
(152,385,l),
(147,402,ls),
(146,405,o),
(141,430,o),
(135,446,o),
(130,446,qs),
(128,446,o),
(117,444,o),
(99,442,o),
(92,441,qs),
(60,437,o)
);
}
);
width = 533;
}
);
note = m;
unicode = 109;
},
{
glyphname = n;
lastChange = "2026-03-25 05:34:25 +0000";
layers = (
{
layerId = m01;
shapes = (
{
closed = 1;
nodes = (
(20,505,l),
(20,408,l),
(20,330,l),
(20,252,l),
(20,173,l),
(40,76,l),
(56,0,l),
(94,-1,l),
(112,115,l),
(149,230,l),
(214,290,l),
(241,324,l),
(253,290,l),
(253,232,l),
(273,155,l),
(311,48,l),
(352,76,l),
(332,155,l),
(332,232,l),
(312,330,l),
(293,408,l),
(235,485,l),
(157,427,l),
(101,371,l),
(78,485,l)
);
}
);
width = 352;
}
);
note = n;
unicode = 110;
},
{
glyphname = o;
lastChange = "2026-03-25 05:34:25 +0000";
layers = (
{
layerId = m01;
shapes = (
{
closed = 1;
nodes = (
(211,121,l),
(144,116,l),
(105,176,l),
(105,256,l),
(115,319,l),
(153,375,l),
(224,375,l),
(264,296,l),
(264,196,l),
(231,136,l)
);
},
{
closed = 1;
nodes = (
(269,459,l),
(244,455,l),
(164,434,l),
(85,395,l),
(25,316,l),
(5,216,l),
(5,136,l),
(45,56,l),
(125,17,l),
(204,56,l),
(264,97,l),
(324,176,l),
(344,256,l),
(344,335,l),
(344,415,l),
(284,455,l)
);
}
);
width = 354;
}
);
note = o;
unicode = 111;
},
{
glyphname = p;
lastChange = "2026-03-25 05:34:25 +0000";
layers = (
{
layerId = m01;
shapes = (
{
closed = 1;
nodes = (
(225,272,qs),
(241,257,o),
(251,239,o),
(255,221,qs),
(256,215,o),
(260,201,o),
(262,193,o),
(262,192,qs),
(262,189,o),
(233,189,qs),
(197,189,o),
(157,194,qs),
(119,199,l),
(125,245,ls),
(131,295,o),
(131,297,qs),
(131,302,o),
(152,302,qs),
(166,302,o),
(184,299,qs),
(201,296,o)
);
},
{
closed = 1;
nodes = (
(100,335,qs),
(72,331,o),
(69,330,qs),
(61,328,o),
(34,259,o),
(30,232,qs),
(26,211,o),
(16,163,o),
(13,141,o),
(10,83,o),
(10,34,qs),
(10,-14,ls),
(10,-100,o),
(18,-100,qs),
(21,-100,o),
(49,-70,qs),
(103,-12,o),
(112,66,qs),
(116,106,o),
(118,108,q),
(120,108,ls),
(131,108,o),
(153,105,qs),
(175,103,o),
(179,103,qs),
(192,103,o),
(221,115,qs),
(284,141,o),
(331,207,qs),
(351,236,l),
(348,272,ls),
(345,301,o),
(336,320,o),
(315,343,qs),
(303,356,o),
(284,366,o),
(257,374,qs),
(219,385,o),
(210,385,qs),
(202,385,o),
(163,361,qs),
(124,338,o)
);
}
);
width = 361;
}
);
note = p;
unicode = 112;
},
{
glyphname = q;
lastChange = "2026-03-25 05:34:25 +0000";
layers = (
{
layerId = m01;
shapes = (
{
closed = 1;
nodes = (
(197,297,qs),
(197,241,o),
(194,241,qs),
(193,241,o),
(163,249,qs),
(135,256,l),
(123,289,l),
(109,321,l),
(130,387,l),
(143,385,o),
(193,377,o),
(206,375,q),
(201,363,ls),
(197,351,o)
);
},
{
closed = 1;
nodes = (
(33,356,qs),
(10,324,l),
(10,282,ls),
(10,251,o),
(14,231,o),
(42,187,o),
(55,175,o),
(75,170,qs),
(84,168,o),
(104,161,o),
(114,157,o),
(120,157,qs),
(131,157,o),
(162,171,qs),
(195,187,l),
(198,97,ls),
(204,-52,o),
(210,-52,q),
(240,-37,ls),
(269,-24,o),
(288,5,qs),
(308,33,l),
(303,136,ls),
(299,199,o),
(299,281,qs),
(299,321,ls),
(299,330,o),
(300,368,o),
(300,376,qs),
(300,413,o),
(298,430,qs),
(294,456,l),
(286,453,o),
(257,440,o),
(250,437,q),
(222,458,ls),
(195,479,o),
(188,479,qs),
(185,479,o),
(149,462,qs),
(84,430,o)
);
}
);
width = 328;
}
);
note = q;
unicode = 113;
},
{
glyphname = r;
lastChange = "2026-03-25 05:34:25 +0000";
layers = (
{
layerId = m01;
shapes = (
{
closed = 1;
nodes = (
(23,238,l),
(20,92,l),
(38,67,ls),
(51,48,o),
(63,41,o),
(79,41,qs),
(100,41,o),
(110,39,qs),
(112,39,l),
(114,38,l),
(117,39,o),
(128,76,qs),
(137,116,o),
(137,148,qs),
(137,180,l),
(174,207,ls),
(210,232,o),
(232,256,qs),
(247,271,o),
(255,288,o),
(259,311,qs),
(263,343,l),
(263,352,o),
(254,356,o),
(239,356,qs),
(226,356,ls),
(194,356,o),
(166,349,qs),
(154,346,o),
(144,343,q),
(144,345,o),
(133,371,qs),
(125,390,o),
(115,400,o),
(96,407,qs),
(71,416,o),
(65,416,o),
(45,400,qs),
(25,384,l)
);
}
);
width = 258;
}
);
note = r;
unicode = 114;
},
{
glyphname = s;
lastChange = "2026-03-25 05:34:25 +0000";
layers = (
{
layerId = m01;
shapes = (
{
closed = 1;
nodes = (
(195,414,l),
(116,394,l),
(39,355,l),
(59,258,l),
(136,180,l),
(176,122,l),
(136,102,l),
(78,141,l),
(-19,122,l),
(1,84,l),
(78,44,l),
(165,44,l),
(234,84,l),
(292,141,l),
(234,219,l),
(176,258,l),
(136,317,l),
(176,355,l),
(195,317,l),
(292,355,l),
(272,394,l)
);
}
);
width = 292;
}
);
note = s;
unicode = 115;
},
{
glyphname = t;
lastChange = "2026-03-25 05:34:25 +0000";
layers = (
{
layerId = m01;
shapes = (
{
closed = 1;
nodes = (
(69,486,o),
(69,459,qs),
(69,416,o),
(64,389,qs),
(60,369,o),
(51,351,o),
(36,335,qs),
(14,311,o),
(9,311,qs),
(5,311,o),
(1,295,qs),
(0,291,o),
(0,286,qs),
(0,279,o),
(15,265,qs),
(31,250,l),
(43,259,ls),
(54,267,o),
(57,267,q),
(59,242,l),
(59,200,o),
(68,61,o),
(70,57,q),
(74,52,o),
(112,50,qs),
(150,48,l),
(192,72,ls),
(212,84,o),
(257,129,qs),
(293,162,l),
(305,206,ls),
(316,246,o),
(316,252,qs),
(316,253,o),
(265,223,o),
(196,185,o),
(179,182,qs),
(165,179,l),
(162,214,ls),
(161,222,o),
(161,235,qs),
(161,256,o),
(168,285,qs),
(175,313,o),
(184,329,o),
(203,346,qs),
(231,373,o),
(240,394,qs),
(255,428,o),
(255,459,qs),
(255,464,o),
(253,464,o),
(207,440,qs),
(161,416,l),
(165,441,ls),
(168,454,o),
(168,484,qs),
(168,489,o),
(167,509,o),
(167,514,qs),
(167,537,ls),
(167,569,o),
(169,597,qs),
(170,606,o),
(171,623,o),
(171,632,o),
(171,633,q),
(169,633,o),
(83,575,qs),
(80,573,o)
);
}
);
width = 301;
}
);
note = t;
unicode = 116;
},
{
glyphname = u;
lastChange = "2026-03-25 05:34:25 +0000";
layers = (
{
layerId = m01;
shapes = (
{
closed = 1;
nodes = (
(22,497,qs),
(22,494,o),
(16,450,qs),
(10,417,o),
(10,377,qs),
(10,288,o),
(34,217,qs),
(42,195,o),
(51,182,o),
(74,169,qs),
(107,149,o),
(144,146,qs),
(166,144,o),
(175,144,qs),
(230,144,o),
(277,172,qs),
(306,188,l),
(343,186,ls),
(346,186,o),
(359,185,o),
(363,185,qs),
(394,185,o),
(450,193,o),
(450,203,o),
(424,257,qs),
(402,305,o),
(398,346,qs),
(397,375,o),
(390,421,qs),
(385,459,l),
(351,491,o),
(335,508,q),
(303,498,l),
(287,487,l),
(277,461,ls),
(268,434,o),
(264,401,qs),
(304,315,o),
(250,261,qs),
(231,235,o),
(182,241,qs),
(154,237,o),
(141,273,qs),
(131,300,o),
(131,318,qs),
(131,329,o),
(132,335,qs),
(133,342,o),
(133,368,qs),
(133,396,o),
(132,410,qs),
(129,459,l),
(122,479,ls),
(110,512,o),
(83,512,qs),
(72,512,o),
(72,514,o),
(55,509,o),
(45,507,qs),
(22,502,o)
);
}
);
width = 460;
}
);
note = u;
unicode = 117;
},
{
glyphname = v;
lastChange = "2026-03-25 05:34:25 +0000";
layers = (
{
layerId = m01;
shapes = (
{
closed = 1;
nodes = (
(182,430,ls),
(173,397,o),
(149,364,qs),
(131,340,o),
(128,340,qs),
(126,340,o),
(124,346,qs),
(107,393,o),
(94,416,o),
(73,435,qs),
(45,459,o),
(43,459,qs),
(34,459,o),
(10,400,q),
(10,384,o),
(42,299,o),
(62,260,qs),
(93,201,o),
(135,145,q),
(136,145,ls),
(141,145,o),
(194,196,o),
(196,203,qs),
(205,233,o),
(251,336,o),
(269,366,qs),
(298,415,o),
(298,417,qs),
(298,421,o),
(261,481,o),
(259,481,qs),
(254,480,ls),
(249,479,o),
(232,475,o),
(225,474,qs),
(193,467,l)
);
}
);
width = 308;
}
);
note = v;
unicode = 118;
},
{
glyphname = w;
lastChange = "2026-03-25 05:34:25 +0000";
layers = (
{
layerId = m01;
shapes = (
{
closed = 1;
nodes = (
(362,329,qs),
(362,325,o),
(329,263,o),
(325,263,o),
(308,298,qs),
(293,331,o),
(285,331,qs),
(284,331,l),
(279,329,o),
(190,313,o),
(189,313,qs),
(178,310,o),
(158,274,qs),
(141,240,o),
(135,240,qs),
(130,240,o),
(118,292,o),
(118,302,qs),
(118,319,o),
(115,334,qs),
(112,352,l),
(62,349,ls),
(13,347,o),
(11,345,qs),
(10,344,o),
(10,338,qs),
(10,307,o),
(36,109,o),
(41,102,q),
(42,102,ls),
(44,102,o),
(86,108,qs),
(116,113,o),
(137,123,o),
(162,141,qs),
(195,166,l),
(226,136,o),
(256,105,q),
(303,116,ls),
(350,127,o),
(351,128,q),
(351,130,o),
(377,169,qs),
(457,302,o),
(480,330,q),
(497,355,o),
(497,357,qs),
(497,358,o),
(435,362,qs),
(376,365,l),
(369,348,ls),
(362,332,o)
);
}
);
width = 507;
}
);
note = w;
unicode = 119;
},
{
glyphname = x;
lastChange = "2026-03-25 05:34:25 +0000";
layers = (
{
layerId = m01;
shapes = (
{
closed = 1;
nodes = (
(50,373,o),
(71,352,qs),
(100,322,o),
(114,300,qs),
(128,277,l),
(113,238,ls),
(102,209,o),
(78,115,o),
(81,112,q),
(85,112,ls),
(100,112,o),
(124,115,qs),
(153,119,o),
(169,125,o),
(184,140,qs),
(204,160,o),
(212,170,qs),
(219,181,l),
(231,171,ls),
(241,164,o),
(305,145,o),
(319,145,qs),
(326,145,o),
(372,179,o),
(372,184,qs),
(372,186,o),
(328,234,qs),
(284,281,l),
(296,308,ls),
(306,330,o),
(337,375,qs),
(357,405,o),
(364,423,o),
(364,446,qs),
(364,468,o),
(359,483,o),
(348,499,qs),
(332,520,o),
(328,520,qs),
(327,520,o),
(287,503,qs),
(258,490,o),
(242,477,o),
(224,451,qs),
(200,416,o),
(197,416,qs),
(195,416,o),
(177,442,o),
(153,479,o),
(145,493,qs),
(135,513,o),
(124,522,o),
(103,527,qs),
(77,534,o),
(69,534,qs),
(63,534,o),
(10,455,o),
(10,449,qs),
(10,438,o)
);
}
);
width = 382;
}
);
note = x;
unicode = 120;
},
{
glyphname = y;
lastChange = "2026-03-25 05:34:25 +0000";
layers = (
{
layerId = m01;
shapes = (
{
closed = 1;
nodes = (
(84,459,l),
(84,439,l),
(6,419,l),
(26,320,l),
(105,240,l),
(145,221,l),
(125,121,l),
(105,42,l),
(40,33,l),
(-14,-57,l),
(105,-37,l),
(183,22,l),
(224,102,l),
(244,201,l),
(264,280,l),
(302,359,l),
(322,439,l),
(302,459,l),
(244,459,l),
(183,320,l),
(145,379,l)
);
}
);
width = 297;
}
);
note = y;
unicode = 121;
},
{
glyphname = z;
lastChange = "2026-03-25 05:34:25 +0000";
layers = (
{
layerId = m01;
shapes = (
{
closed = 1;
nodes = (
(254,404,l),
(178,384,l),
(104,389,l),
(9,389,l),
(26,306,l),
(121,306,l),
(178,306,l),
(141,266,l),
(83,187,l),
(32,68,l),
(127,49,l),
(235,49,l),
(329,49,l),
(391,61,l),
(428,100,l),
(367,145,l),
(291,128,l),
(215,128,l),
(235,187,l),
(277,226,l),
(329,306,l),
(367,365,l)
);
}
);
width = 426;
}
);
note = z;
unicode = 122;
},
{
glyphname = Aacute;
kernLeft = A;
kernRight = A;
lastChange = "2026-03-25 05:34:25 +0000";
layers = (
{
layerId = m01;
shapes = (
{
closed = 1;
nodes = (
(160,634,qs),
(141,625,o),
(131,615,o),
(128,604,qs),
(123,586,o),
(123,575,qs),
(123,568,o),
(125,568,q),
(127,569,ls),
(130,570,o),
(139,573,o),
(149,576,o),
(164,581,o),
(170,583,qs),
(305,629,o),
(305,645,qs),
(305,653,o),
(286,668,o),
(275,668,qs),
(262,668,o),
(225,657,qs),
(196,650,o)
);
},
{
closed = 1;
nodes = (
(247,273,qs),
(250,251,l),
(220,248,l),
(205,248,ls),
(180,248,o),
(173,249,qs),
(155,252,l),
(184,299,ls),
(212,345,o),
(216,345,q),
(219,343,o),
(232,320,qs),
(242,301,o)
);
},
{
closed = 1;
nodes = (
(121,438,qs),
(100,371,o),
(55,304,qs),
(32,269,o),
(1,193,qs),
(-30,116,o),
(-30,109,qs),
(-30,105,o),
(12,44,o),
(20,37,q),
(21,37,ls),
(26,37,o),
(73,110,o),
(81,131,qs),
(93,163,l),
(107,155,ls),
(124,145,o),
(132,144,qs),
(150,140,o),
(197,140,qs),
(235,140,o),
(254,143,qs),
(278,146,l),
(288,115,ls),
(298,85,o),
(318,61,qs),
(338,36,o),
(342,36,qs),
(345,36,o),
(358,74,qs),
(372,112,l),
(365,143,ls),
(360,165,o),
(360,179,qs),
(360,196,o),
(366,229,qs),
(368,241,o),
(364,247,o),
(353,252,qs),
(343,256,o),
(333,269,o),
(324,292,qs),
(312,326,o),
(302,366,qs),
(295,397,o),
(272,466,qs),
(252,526,l),
(217,536,ls),
(185,546,o),
(177,546,qs),
(173,546,o),
(153,510,qs),
(133,473,o)
);
}
);
width = 387;
}
);
metricLeft = A;
metricRight = A;
note = Aacute;
unicode = 193;
},
{
glyphname = Abreve;
kernLeft = A;
kernRight = A;
lastChange = "2026-03-25 05:34:25 +0000";
layers = (
{
layerId = m01;
shapes = (
{
closed = 1;
nodes = (
(103,582,o),
(119,569,qs),
(152,539,o),
(202,539,qs),
(264,539,o),
(318,585,qs),
(336,600,o),
(332,604,q),
(329,605,l),
(323,605,o),
(299,599,qs),
(245,585,o),
(222,585,qs),
(196,585,o),
(171,601,qs),
(152,613,o),
(140,613,o),
(124,607,qs),
(103,600,o)
);
},
{
closed = 1;
nodes = (
(252,221,qs),
(252,212,o),
(249,211,q),
(244,207,o),
(197,207,qs),
(162,207,o),
(159,210,q),
(211,297,l),
(216,309,o),
(218,309,q),
(231,288,ls),
(252,255,o)
);
},
{
closed = 1;
nodes = (
(125,401,qs),
(100,326,o),
(59,266,qs),
(28,222,o),
(-17,98,qs),
(-30,64,l),
(-5,31,ls),
(21,-2,o),
(24,-2,qs),
(31,-2,o),
(76,66,o),
(84,89,qs),
(95,120,o),
(98,120,qs),
(103,120,o),
(116,111,qs),
(126,103,o),
(153,100,o),
(207,100,qs),
(284,101,l),
(294,71,ls),
(303,41,o),
(325,17,qs),
(343,-3,o),
(348,-3,qs),
(349,-3,l),
(363,35,l),
(376,70,l),
(369,106,ls),
(363,132,o),
(363,143,qs),
(363,148,o),
(367,170,qs),
(372,195,o),
(372,200,qs),
(372,208,o),
(359,211,qs),
(343,215,o),
(321,268,o),
(295,364,qs),
(283,411,o),
(268,450,qs),
(254,487,l),
(220,497,ls),
(186,506,o),
(181,506,qs),
(178,506,o),
(157,472,qs),
(137,438,o)
);
}
);
width = 391;
}
);
metricLeft = A;
metricRight = A;
note = Abreve;
unicode = 258;
},
{
glyphname = Acircumflex;
kernLeft = A;
kernRight = A;
lastChange = "2026-03-25 05:34:25 +0000";
layers = (
{
layerId = m01;
shapes = (
{
closed = 1;
nodes = (
(87,625,o),
(76,616,qs),
(60,602,o),
(63,591,qs),
(68,570,o),
(119,560,qs),
(123,559,o),
(128,559,qs),
(137,559,o),
(151,579,qs),
(169,603,o),
(173,604,qs),
(174,604,ls),
(186,604,o),
(218,589,qs),
(281,559,o),
(314,559,qs),
(332,559,o),
(336,569,q),
(336,570,o),
(337,571,q),
(337,572,ls),
(337,583,o),
(301,605,o),
(275,610,qs),
(253,615,o),
(225,641,qs),
(190,675,o),
(170,675,qs),
(157,675,o),
(144,665,qs),
(138,660,o)
);
},
{
closed = 1;
nodes = (
(247,273,qs),
(250,251,l),
(220,248,l),
(205,248,ls),
(180,248,o),
(173,249,qs),
(155,252,l),
(184,299,ls),
(212,345,o),
(216,345,q),
(219,343,o),
(232,320,qs),
(242,301,o)
);
},
{
closed = 1;
nodes = (
(121,438,qs),
(100,371,o),
(55,304,qs),
(32,269,o),
(1,193,qs),
(-30,116,o),
(-30,109,qs),
(-30,105,o),
(12,44,o),
(20,37,q),
(21,37,ls),
(26,37,o),
(73,110,o),
(81,131,qs),
(93,163,l),
(107,155,ls),
(124,145,o),
(132,144,qs),
(150,140,o),
(197,140,qs),
(235,140,o),
(254,143,qs),
(278,146,l),
(288,115,ls),
(298,85,o),
(318,61,qs),
(338,36,o),
(342,36,qs),
(345,36,o),
(358,74,qs),
(372,112,l),
(365,143,ls),
(360,165,o),
(360,179,qs),
(360,196,o),
(366,229,qs),
(368,241,o),
(364,247,o),
(353,252,qs),
(343,256,o),
(333,269,o),
(324,292,qs),
(312,326,o),
(302,366,qs),
(295,397,o),
(272,466,qs),
(252,526,l),
(217,536,ls),
(185,546,o),
(177,546,qs),
(173,546,o),
(153,510,qs),
(133,473,o)
);
}
);
width = 387;
}
);
metricLeft = A;
metricRight = A;
note = Acircumflex;
unicode = 194;
},
{
glyphname = Agrave;
kernLeft = A;
kernRight = A;
lastChange = "2026-03-25 05:34:25 +0000";
layers = (
{
layerId = m01;
shapes = (
{
closed = 1;
nodes = (
(149,603,o),
(162,599,qs),
(165,598,o),
(241,564,o),
(254,564,qs),
(271,564,l),
(271,612,l),
(235,630,ls),
(199,647,o),
(171,647,qs),
(145,647,l),
(145,626,ls),
(145,610,o)
);
},
{
closed = 1;
nodes = (
(254,262,o),
(254,252,qs),
(254,248,o),
(196,248,qs),
(178,248,o),
(174,249,qs),
(158,252,l),
(187,299,ls),
(216,346,o),
(218,346,qs),
(221,346,o),
(233,325,qs),
(239,314,o)
);
},
{
closed = 1;
nodes = (
(127,448,qs),
(102,369,o),
(60,307,qs),
(30,263,o),
(-15,146,qs),
(-30,105,l),
(-7,76,ls),
(17,44,o),
(20,41,q),
(20,40,o),
(22,40,qs),
(30,40,o),
(72,100,o),
(82,126,qs),
(93,154,o),
(95,159,qs),
(97,162,o),
(113,153,qs),
(137,139,o),
(203,139,qs),
(216,139,o),
(242,141,qs),
(252,142,o),
(267,142,qs),
(279,142,o),
(280,141,qs),
(285,136,o),
(293,110,qs),
(303,82,o),
(324,58,qs),
(344,36,o),
(347,36,qs),
(348,36,o),
(362,75,qs),
(375,112,l),
(367,148,ls),
(362,168,o),
(362,183,qs),
(362,189,o),
(366,213,qs),
(367,219,o),
(371,236,o),
(371,239,qs),
(371,247,o),
(354,252,qs),
(346,254,o),
(337,267,o),
(328,290,qs),
(314,327,o),
(306,362,qs),
(298,398,o),
(258,519,o),
(253,524,qs),
(250,527,o),
(186,547,o),
(179,547,qs),
(178,547,o),
(157,513,qs),
(139,482,o)
);
}
);
width = 390;
}
);
metricLeft = A;
metricRight = A;
note = Agrave;
unicode = 192;
},
{
glyphname = Atilde;
kernLeft = A;
kernRight = A;
lastChange = "2026-03-25 05:34:25 +0000";
layers = (
{
layerId = m01;
shapes = (
{
closed = 1;
nodes = (
(104,677,o),
(104,668,qs),
(104,658,o),
(112,658,qs),
(119,658,o),
(138,666,qs),
(157,675,l),
(168,662,ls),
(179,649,o),
(198,649,qs),
(213,649,o),
(257,662,qs),
(293,673,o),
(317,687,o),
(317,697,qs),
(317,706,o),
(311,712,o),
(300,711,qs),
(282,709,o),
(261,699,qs),
(241,689,o),
(230,689,qs),
(222,689,o),
(211,701,qs),
(193,723,o),
(172,723,qs),
(171,723,o),
(152,716,qs),
(136,709,o)
);
},
{
closed = 1;
nodes = (
(241,341,qs),
(244,318,l),
(214,316,ls),
(210,316,o),
(193,315,o),
(183,315,o),
(168,316,o),
(166,316,qs),
(149,319,l),
(177,366,ls),
(205,412,o),
(210,412,q),
(213,410,o),
(226,387,qs),
(237,367,o)
);
},
{
closed = 1;
nodes = (
(114,505,qs),
(91,434,o),
(49,373,qs),
(28,343,o),
(-30,194,o),
(-30,172,qs),
(-30,169,o),
(-29,168,qs),
(-21,156,o),
(-3,132,qs),
(18,102,l),
(32,119,ls),
(56,146,o),
(77,205,qs),
(87,230,l),
(101,222,ls),
(118,212,o),
(126,211,qs),
(144,207,o),
(191,207,qs),
(228,207,o),
(248,210,qs),
(272,213,l),
(282,183,ls),
(292,152,o),
(312,128,qs),
(331,104,o),
(339,104,o),
(352,142,qs),
(366,180,l),
(359,210,ls),
(354,227,o),
(354,271,o),
(359,296,qs),
(361,308,o),
(358,314,o),
(347,319,qs),
(337,323,o),
(327,337,o),
(318,360,qs),
(305,395,o),
(296,433,qs),
(289,464,o),
(266,533,qs),
(245,594,l),
(211,604,ls),
(179,614,o),
(171,614,qs),
(167,614,o),
(147,578,qs),
(125,538,o)
);
}
);
width = 381;
}
);
metricLeft = A;
metricRight = A;
note = Atilde;
unicode = 195;
},
{
glyphname = Dcroat;
lastChange = "2026-03-25 05:34:25 +0000";
layers = (
{
layerId = m01;
shapes = (
{
closed = 1;
nodes = (
(287,219,ls),
(317,219,o),
(331,223,o),
(337,232,qs),
(346,245,o),
(362,297,o),
(362,311,qs),
(362,324,o),
(349,328,o),
(310,328,qs),
(262,328,o),
(256,332,q),
(252,334,o),
(252,365,qs),
(252,390,o),
(253,407,qs),
(256,476,l),
(278,487,l),
(300,496,l),
(329,480,ls),
(388,446,o),
(412,383,qs),
(424,351,o),
(424,332,qs),
(424,321,o),
(423,312,qs),
(415,210,o),
(322,132,qs),
(305,116,o),
(248,80,o),
(243,80,q),
(246,162,l),
(246,219,l)
);
},
{
closed = 1;
nodes = (
(109,579,q),
(107,577,o),
(107,548,qs),
(107,526,o),
(109,500,o),
(109,473,qs),
(109,426,o),
(105,393,qs),
(100,335,l),
(51,329,ls),
(5,323,o),
(-13,314,qs),
(-23,308,o),
(-32,292,o),
(-40,264,qs),
(-50,232,o),
(-50,220,qs),
(-50,214,o),
(-28,214,qs),
(9,214,o),
(65,223,qs),
(76,225,o),
(80,225,qs),
(89,225,o),
(86,217,qs),
(84,212,o),
(78,160,qs),
(73,111,l),
(45,124,ls),
(20,134,o),
(15,134,qs),
(14,134,l),
(12,132,o),
(16,100,qs),
(19,75,o),
(26,63,o),
(42,53,qs),
(64,37,o),
(101,21,qs),
(139,2,l),
(220,7,ls),
(308,13,o),
(401,41,o),
(452,80,qs),
(546,152,o),
(566,292,qs),
(569,314,o),
(569,323,qs),
(569,336,o),
(559,375,qs),
(547,419,l),
(507,450,ls),
(420,519,o),
(399,519,qs),
(395,519,o),
(331,539,qs),
(271,558,o),
(241,580,qs),
(216,599,o),
(181,606,qs),
(160,611,o),
(149,611,qs),
(141,611,o),
(127,598,qs),
(109,580,o)
);
}
);
width = 579;
}
);
metricRight = D;
note = Dcroat;
unicode = 272;
},
{
glyphname = Eacute;
kernLeft = E;
kernRight = E;
lastChange = "2026-03-25 05:34:25 +0000";
layers = (
{
layerId = m01;
shapes = (
{
closed = 1;
nodes = (
(105,655,qs),
(86,646,o),
(75,636,o),
(72,625,qs),
(67,608,o),
(67,599,qs),
(67,589,o),
(72,589,qs),
(87,589,o),
(202,637,qs),
(247,656,o),
(247,666,qs),
(247,687,o),
(220,687,qs),
(204,687,o),
(174,679,qs),
(136,669,o)
);
},
{
closed = 1;
nodes = (
(234,599,l),
(178,580,l),
(121,562,l),
(103,562,l),
(53,540,l),
(16,465,l),
(30,416,l),
(30,359,l),
(17,300,l),
(17,206,l),
(9,112,l),
(-10,37,l),
(9,0,l),
(121,0,l),
(178,19,l),
(234,37,l),
(271,37,l),
(271,112,l),
(290,131,l),
(290,206,l),
(196,187,l),
(121,168,l),
(84,150,l),
(84,225,l),
(140,225,l),
(215,243,l),
(215,356,l),
(103,337,l),
(103,356,l),
(103,431,l),
(178,449,l),
(271,468,l),
(309,580,l)
);
}
);
width = 309;
}
);
metricLeft = E;
metricRight = E;
note = Eacute;
unicode = 201;
},
{
glyphname = Ecircumflex;
kernLeft = E;
kernRight = E;
lastChange = "2026-03-25 05:34:25 +0000";
layers = (
{
layerId = m01;
shapes = (
{
closed = 1;
nodes = (
(70,678,o),
(64,670,qs),
(56,662,o),
(55,655,o),
(59,647,qs),
(64,636,o),
(100,619,o),
(118,619,qs),
(132,619,o),
(141,633,qs),
(152,650,o),
(160,657,qs),
(171,667,l),
(212,647,ls),
(274,617,o),
(307,617,qs),
(329,617,o),
(329,632,qs),
(329,642,o),
(288,667,o),
(267,669,qs),
(251,671,o),
(236,681,o),
(220,698,qs),
(189,732,o),
(164,732,qs),
(146,732,o),
(124,713,qs),
(119,709,o)
);
},
{
closed = 1;
nodes = (
(234,599,l),
(178,580,l),
(121,562,l),
(103,562,l),
(53,540,l),
(16,465,l),
(30,416,l),
(30,359,l),
(17,300,l),
(17,206,l),
(9,112,l),
(-10,37,l),
(9,0,l),
(121,0,l),
(178,19,l),
(234,37,l),
(271,37,l),
(271,112,l),
(290,131,l),
(290,206,l),
(196,187,l),
(121,168,l),
(84,150,l),
(84,225,l),
(140,225,l),
(215,243,l),
(215,356,l),
(103,337,l),
(103,356,l),
(103,431,l),
(178,449,l),
(271,468,l),
(309,580,l)
);
}
);
width = 329;
}
);
metricLeft = E;
metricRight = E;
note = Ecircumflex;
unicode = 202;
},
{
glyphname = Egrave;
kernLeft = E;
kernRight = E;
lastChange = "2026-03-25 05:34:25 +0000";
layers = (
{
layerId = m01;
shapes = (
{
closed = 1;
nodes = (
(126,646,l),
(127,646,o),
(196,615,o),
(213,615,qs),
(227,615,o),
(233,619,o),
(233,626,qs),
(233,649,o),
(221,665,o),
(193,678,qs),
(161,694,o),
(130,697,qs),
(101,699,l),
(103,677,l),
(104,653,l)
);
},
{
closed = 1;
nodes = (
(234,599,l),
(178,580,l),
(121,562,l),
(103,562,l),
(53,540,l),
(16,465,l),
(30,416,l),
(30,359,l),
(17,300,l),
(17,206,l),
(9,112,l),
(-10,37,l),
(9,0,l),
(121,0,l),
(178,19,l),
(234,37,l),
(271,37,l),
(271,112,l),
(290,131,l),
(290,206,l),
(196,187,l),
(121,168,l),
(84,150,l),
(84,225,l),
(140,225,l),
(215,243,l),
(215,356,l),
(103,337,l),
(103,356,l),
(103,431,l),
(178,449,l),
(271,468,l),
(309,580,l)
);
}
);
width = 309;
}
);
metricLeft = E;
metricRight = E;
note = Egrave;
unicode = 200;
},
{
glyphname = Iacute;
lastChange = "2026-03-25 05:34:25 +0000";
layers = (
{
layerId = m01;
shapes = (
{
closed = 1;
nodes = (
(151,568,l),
(34,467,l),
(34,386,l),
(34,305,l),
(34,144,l),
(34,43,l),
(10,-58,l),
(105,3,l),
(151,43,l),
(151,144,l),
(151,305,l),
(151,386,l)
);
},
{
closed = 1;
nodes = (
(10,614,qs),
(0,605,o),
(-3,582,qs),
(-5,559,o),
(-3,559,qs),
(1,559,o),
(119,603,o),
(142,614,qs),
(175,628,o),
(175,639,qs),
(175,645,o),
(155,659,o),
(139,659,o),
(107,651,qs),
(34,633,o)
);
}
);
width = 191;
}
);
note = Iacute;
unicode = 205;
},
{
glyphname = Igrave;
lastChange = "2026-03-25 05:34:25 +0000";
layers = (
{
layerId = m01;
shapes = (
{
closed = 1;
nodes = (
(45,636,o),
(120,602,o),
(135,602,qs),
(153,602,l),
(150,625,ls),
(146,649,o),
(145,650,qs),
(144,652,o),
(114,667,qs),
(82,683,o),
(54,684,qs),
(22,685,l),
(22,642,l),
(41,637,ls)
);
},
{
closed = 1;
nodes = (
(151,568,l),
(34,467,l),
(34,386,l),
(34,305,l),
(34,144,l),
(34,43,l),
(10,-58,l),
(105,3,l),
(151,43,l),
(151,144,l),
(151,305,l),
(151,386,l)
);
}
);
width = 193;
}
);
metricLeft = I;
metricRight = I;
note = Igrave;
unicode = 204;
},
{
glyphname = Itilde;
lastChange = "2026-03-25 05:34:25 +0000";
layers = (
{
layerId = m01;
shapes = (
{
closed = 1;
nodes = (
(151,568,l),
(34,467,l),
(34,386,l),
(34,305,l),
(34,144,l),
(34,43,l),
(10,-58,l),
(105,3,l),
(151,43,l),
(151,144,l),
(151,305,l),
(151,386,l)
);
},
{
closed = 1;
nodes = (
(-16,599,qs),
(-16,594,o),
(-6,594,qs),
(6,594,o),
(23,601,qs),
(35,606,o),
(38,606,qs),
(42,606,o),
(53,595,qs),
(65,582,o),
(79,582,qs),
(94,582,o),
(127,592,qs),
(202,615,o),
(202,634,qs),
(202,639,o),
(201,641,qs),
(198,647,o),
(189,647,qs),
(175,647,o),
(142,633,qs),
(110,620,l),
(92,638,ls),
(72,656,o),
(55,656,qs),
(40,656,o),
(17,642,q),
(-16,618,o)
);
}
);
width = 191;
}
);
note = Itilde;
unicode = 296;
},
{
glyphname = Oacute;
lastChange = "2026-03-25 05:34:25 +0000";
layers = (
{
layerId = m01;
shapes = (
{
closed = 1;
nodes = (
(126,658,qs),
(124,655,o),
(119,632,qs),
(116,613,l),
(130,616,ls),
(142,618,o),
(257,663,o),
(280,674,qs),
(299,684,o),
(299,692,qs),
(299,697,o),
(293,703,qs),
(286,710,o),
(268,710,qs),
(248,710,o),
(210,699,qs),
(136,677,o)
);
},
{
closed = 1;
nodes = (
(334,360,qs),
(343,323,o),
(343,258,qs),
(343,193,l),
(327,156,ls),
(315,130,o),
(303,117,o),
(279,104,qs),
(247,86,l),
(212,92,ls),
(187,97,o),
(172,104,o),
(154,123,qs),
(130,150,o),
(113,186,qs),
(100,213,o),
(94,242,o),
(91,289,qs),
(89,311,o),
(89,347,qs),
(89,413,o),
(121,457,qs),
(134,475,o),
(152,499,o),
(168,506,qs),
(194,519,o),
(202,519,o),
(227,510,qs),
(301,484,o)
);
},
{
closed = 1;
nodes = (
(147,572,o),
(127,550,o),
(88,505,o),
(85,502,qs),
(63,479,o),
(14,350,o),
(2,280,qs),
(-5,243,o),
(-5,228,qs),
(-5,210,o),
(-1,188,qs),
(10,129,o),
(18,101,qs),
(28,69,o),
(40,50,o),
(64,29,qs),
(98,1,o),
(132,-15,qs),
(167,-31,l),
(208,-23,ls),
(247,-15,o),
(256,-6,qs),
(263,-4,o),
(308,47,qs),
(366,113,l),
(416,267,o),
(429,339,q),
(417,422,ls),
(410,478,o),
(399,516,o),
(386,540,qs),
(375,563,o),
(358,570,o),
(338,584,qs),
(306,605,o),
(273,607,qs),
(239,612,o),
(233,616,qs),
(231,618,o),
(228,618,qs),
(222,618,o),
(194,600,qs),
(181,592,o)
);
}
);
width = 437;
}
);
metricLeft = O;
metricRight = O;
note = Oacute;
unicode = 211;
},
{
glyphname = Ocircumflex;
lastChange = "2026-03-25 05:34:25 +0000";
layers = (
{
layerId = m01;
shapes = (
{
closed = 1;
nodes = (
(142,708,qs),
(124,699,o),
(94,671,o),
(94,663,qs),
(94,643,o),
(137,632,qs),
(149,628,o),
(161,628,qs),
(177,628,o),
(177,637,qs),
(177,639,o),
(193,659,qs),
(208,677,l),
(247,658,ls),
(311,626,o),
(346,626,qs),
(368,626,o),
(368,639,qs),
(368,650,o),
(327,675,o),
(301,679,qs),
(283,682,o),
(256,709,qs),
(224,742,o),
(197,742,qs),
(192,742,o),
(165,725,o),
(162,721,qs),
(161,719,o)
);
},
{
closed = 1;
nodes = (
(334,360,qs),
(343,323,o),
(343,258,qs),
(343,193,l),
(327,156,ls),
(315,130,o),
(303,117,o),
(279,104,qs),
(247,86,l),
(212,92,ls),
(187,97,o),
(172,104,o),
(154,123,qs),
(130,150,o),
(113,186,qs),
(100,213,o),
(94,242,o),
(91,289,qs),
(89,311,o),
(89,347,qs),
(89,413,o),
(121,457,qs),
(134,475,o),
(152,499,o),
(168,506,qs),
(194,519,o),
(202,519,o),
(227,510,qs),
(301,484,o)
);
},
{
closed = 1;
nodes = (
(147,572,o),
(127,550,o),
(88,505,o),
(85,502,qs),
(63,479,o),
(14,350,o),
(2,280,qs),
(-5,243,o),
(-5,228,qs),
(-5,210,o),
(-1,188,qs),
(10,129,o),
(18,101,qs),
(28,69,o),
(40,50,o),
(64,29,qs),
(98,1,o),
(132,-15,qs),
(167,-31,l),
(208,-23,ls),
(247,-15,o),
(256,-6,qs),
(263,-4,o),
(308,47,qs),
(366,113,l),
(416,267,o),
(429,339,q),
(417,422,ls),
(410,478,o),
(399,516,o),
(386,540,qs),
(375,563,o),
(358,570,o),
(338,584,qs),
(306,605,o),
(273,607,qs),
(239,612,o),
(233,616,qs),
(231,618,o),
(228,618,qs),
(222,618,o),
(194,600,qs),
(181,592,o)
);
}
);
width = 437;
}
);
metricLeft = O;
metricRight = O;
note = Ocircumflex;
unicode = 212;
},
{
glyphname = Ograve;
lastChange = "2026-03-25 05:34:25 +0000";
layers = (
{
layerId = m01;
shapes = (
{
closed = 1;
nodes = (
(206,666,o),
(225,655,qs),
(249,642,o),
(265,642,qs),
(283,642,l),
(283,690,l),
(250,706,ls),
(215,723,o),
(186,724,qs),
(156,726,l),
(156,682,l),
(179,675,ls)
);
},
{
closed = 1;
nodes = (
(334,360,qs),
(343,323,o),
(343,258,qs),
(343,193,l),
(327,156,ls),
(315,130,o),
(303,117,o),
(279,104,qs),
(247,86,l),
(212,92,ls),
(187,97,o),
(172,104,o),
(154,123,qs),
(130,150,o),
(113,186,qs),
(100,213,o),
(94,242,o),
(91,289,qs),
(89,311,o),
(89,347,qs),
(89,413,o),
(121,457,qs),
(134,475,o),
(152,499,o),
(168,506,qs),
(194,519,o),
(202,519,o),
(227,510,qs),
(301,484,o)
);
},
{
closed = 1;
nodes = (
(147,572,o),
(127,550,o),
(88,505,o),
(85,502,qs),
(63,479,o),
(14,350,o),
(2,280,qs),
(-5,243,o),
(-5,228,qs),
(-5,210,o),
(-1,188,qs),
(10,129,o),
(18,101,qs),
(28,69,o),
(40,50,o),
(64,29,qs),
(98,1,o),
(132,-15,qs),
(167,-31,l),
(208,-23,ls),
(247,-15,o),
(256,-6,qs),
(263,-4,o),
(308,47,qs),
(366,113,l),
(416,267,o),
(429,339,q),
(417,422,ls),
(410,478,o),
(399,516,o),
(386,540,qs),
(375,563,o),
(358,570,o),
(338,584,qs),
(306,605,o),
(273,607,qs),
(239,612,o),
(233,616,qs),
(231,618,o),
(228,618,qs),
(222,618,o),
(194,600,qs),
(181,592,o)
);
}
);
width = 437;
}
);
metricLeft = O;
metricRight = O;
note = Ograve;
unicode = 210;
},
{
glyphname = Ohorn;
lastChange = "2026-03-25 05:34:25 +0000";
layers = (
{
layerId = m01;
shapes = (
{
closed = 1;
nodes = (
(343,193,l),
(327,156,l),
(319,139,o),
(313,128,o),
(309,124,c),
(305,119,o),
(295,113,o),
(279,104,c),
(247,86,l),
(212,92,l),
(195,95,o),
(185,98,o),
(180,101,c),
(175,103,o),
(166,110,o),
(154,123,c),
(138,141,o),
(124,162,o),
(113,186,c),
(104,204,o),
(99,218,o),
(97,228,c),
(95,237,o),
(93,258,o),
(91,289,c),
(90,304,o),
(89,323,o),
(89,347,c),
(89,391,o),
(100,428,o),
(121,457,c),
(130,469,o),
(137,479,o),
(143,487,c),
(149,495,o),
(157,501,o),
(168,506,c),
(185,515,o),
(195,519,o),
(198,519,c),
(201,519,o),
(210,516,o),
(227,510,c),
(276,493,o),
(312,443,o),
(334,360,c),
(340,335,o),
(343,301,o),
(343,258,c)
);
},
{
closed = 1;
nodes = (
(417,422,l),
(412,459,o),
(408,484,o),
(405,497,c),
(401,510,o),
(395,524,o),
(386,540,c),
(382,548,o),
(378,555,o),
(375,559,c),
(411,615,l),
(398,685,l),
(398,685,l),
(399,685,l),
(308,701,l),
(333,625,l),
(322,593,l),
(306,601,o),
(290,606,o),
(273,607,c),
(250,610,o),
(237,613,o),
(233,616,c),
(232,617,o),
(230,618,o),
(228,618,c),
(224,618,o),
(213,612,o),
(194,600,c),
(185,595,o),
(175,589,o),
(164,582,c),
(153,575,o),
(144,568,o),
(137,561,c),
(130,554,o),
(121,543,o),
(108,528,c),
(95,513,o),
(87,504,o),
(85,502,c),
(70,487,o),
(55,458,o),
(39,415,c),
(22,372,o),
(10,327,o),
(2,280,c),
(-3,255,o),
(-5,238,o),
(-5,228,c),
(-5,216,o),
(-4,203,o),
(-1,188,c),
(6,149,o),
(13,120,o),
(18,101,c),
(25,80,o),
(30,66,o),
(34,60,c),
(38,53,o),
(48,43,o),
(64,29,c),
(87,10,o),
(109,-4,o),
(132,-15,c),
(167,-31,l),
(208,-23,l),
(234,-18,o),
(250,-12,o),
(256,-6,c),
(261,-5,o),
(278,13,o),
(308,47,c),
(366,113,l),
(399,216,o),
(420,291,o),
(429,339,c)
);
}
);
width = 417;
}
);
metricLeft = O;
note = Ohorn;
unicode = 416;
},
{
glyphname = Otilde;
lastChange = "2026-03-25 05:34:25 +0000";
layers = (
{
layerId = m01;
shapes = (
{
closed = 1;
nodes = (
(125,673,o),
(125,663,qs),
(125,657,o),
(145,657,o),
(163,665,qs),
(181,673,l),
(192,661,ls),
(203,648,o),
(224,648,qs),
(242,648,o),
(277,659,qs),
(339,678,o),
(339,698,qs),
(339,710,o),
(334,710,qs),
(329,710,ls),
(309,710,o),
(286,698,qs),
(264,688,o),
(257,688,qs),
(247,688,o),
(233,703,qs),
(218,721,o),
(201,721,qs),
(190,721,o),
(170,711,qs),
(153,703,o)
);
},
{
closed = 1;
nodes = (
(334,360,qs),
(343,323,o),
(343,258,qs),
(343,193,l),
(327,156,ls),
(315,130,o),
(303,117,o),
(279,104,qs),
(247,86,l),
(212,92,ls),
(187,97,o),
(172,104,o),
(154,123,qs),
(130,150,o),
(113,186,qs),
(100,213,o),
(94,242,o),
(91,289,qs),
(89,311,o),
(89,347,qs),
(89,413,o),
(121,457,qs),
(134,475,o),
(152,499,o),
(168,506,qs),
(194,519,o),
(202,519,o),
(227,510,qs),
(301,484,o)
);
},
{
closed = 1;
nodes = (
(147,572,o),
(127,550,o),
(88,505,o),
(85,502,qs),
(63,479,o),
(14,350,o),
(2,280,qs),
(-5,243,o),
(-5,228,qs),
(-5,210,o),
(-1,188,qs),
(10,129,o),
(18,101,qs),
(28,69,o),
(40,50,o),
(64,29,qs),
(98,1,o),
(132,-15,qs),
(167,-31,l),
(208,-23,ls),
(247,-15,o),
(256,-6,qs),
(263,-4,o),
(308,47,qs),
(366,113,l),
(416,267,o),
(429,339,q),
(417,422,ls),
(410,478,o),
(399,516,o),
(386,540,qs),
(375,563,o),
(358,570,o),
(338,584,qs),
(306,605,o),
(273,607,qs),
(239,612,o),
(233,616,qs),
(231,618,o),
(228,618,qs),
(222,618,o),
(194,600,qs),
(181,592,o)
);
}
);
width = 437;
}
);
metricLeft = O;
metricRight = O;
note = Otilde;
unicode = 213;
},
{
glyphname = Uacute;
lastChange = "2026-03-25 05:34:25 +0000";
layers = (
{
layerId = m01;
shapes = (
{
closed = 1;
nodes = (
(210,604,qs),
(195,595,o),
(191,577,qs),
(187,562,o),
(187,555,qs),
(187,549,o),
(197,549,o),
(201,550,qs),
(212,552,o),
(311,588,o),
(345,604,qs),
(370,616,o),
(370,624,qs),
(370,629,o),
(362,637,qs),
(355,644,o),
(325,644,o),
(293,636,qs),
(246,624,o)
);
},
{
closed = 1;
nodes = (
(84,538,l),
(29,501,l),
(29,427,l),
(10,353,l),
(10,279,l),
(29,188,l),
(47,114,l),
(66,58,l),
(103,21,l),
(176,3,l),
(249,3,l),
(305,21,l),
(342,40,l),
(342,95,l),
(397,21,l),
(452,40,l),
(452,132,l),
(434,206,l),
(416,279,l),
(416,335,l),
(416,409,l),
(397,483,l),
(379,520,l),
(379,520,l),
(323,520,l),
(268,483,l),
(268,409,l),
(268,335,l),
(268,243,l),
(249,169,l),
(213,132,l),
(176,151,l),
(157,225,l),
(157,298,l),
(157,390,l),
(157,464,l),
(140,538,l)
);
}
);
width = 487;
}
);
metricLeft = U;
metricRight = U;
note = Uacute;
unicode = 218;
},
{
glyphname = Ugrave;
lastChange = "2026-03-25 05:34:25 +0000";
layers = (
{
layerId = m01;
shapes = (
{
closed = 1;
nodes = (
(151,584,o),
(162,582,qs),
(170,581,o),
(206,564,qs),
(236,549,o),
(257,549,qs),
(278,549,l),
(276,567,ls),
(275,580,o),
(271,591,qs),
(269,599,o),
(199,628,o),
(176,630,qs),
(147,633,l),
(147,609,ls),
(147,591,o)
);
},
{
closed = 1;
nodes = (
(84,538,l),
(29,501,l),
(29,427,l),
(10,353,l),
(10,279,l),
(29,188,l),
(47,114,l),
(66,58,l),
(103,21,l),
(176,3,l),
(249,3,l),
(305,21,l),
(342,40,l),
(342,95,l),
(397,21,l),
(452,40,l),
(452,132,l),
(434,206,l),
(416,279,l),
(416,335,l),
(416,409,l),
(397,483,l),
(379,520,l),
(379,520,l),
(323,520,l),
(268,483,l),
(268,409,l),
(268,335,l),
(268,243,l),
(249,169,l),
(213,132,l),
(176,151,l),
(157,225,l),
(157,298,l),
(157,390,l),
(157,464,l),
(140,538,l)
);
}
);
width = 487;
}
);
metricLeft = U;
metricRight = U;
note = Ugrave;
unicode = 217;
},
{
glyphname = Uhorn;
lastChange = "2026-03-25 05:34:25 +0000";
layers = (
{
layerId = m01;
shapes = (
{
closed = 1;
nodes = (
(419,659,l),
(321,641,l),
(365,576,l),
(343,530,l),
(317,527,l),
(262,502,l),
(268,420,l),
(267,338,l),
(263,256,l),
(244,177,l),
(213,133,l),
(164,150,l),
(155,229,l),
(149,314,l),
(155,399,l),
(150,484,l),
(132,545,l),
(71,545,l),
(14,512,l),
(12,435,l),
(10,359,l),
(11,282,l),
(22,206,l),
(31,129,l),
(55,57,l),
(100,22,l),
(170,0,l),
(240,17,l),
(295,27,l),
(332,53,l),
(344,108,l),
(389,35,l),
(449,54,l),
(446,133,l),
(429,208,l),
(420,285,l),
(415,356,l),
(414,426,l),
(404,479,l),
(454,547,l),
(448,611,l)
);
}
);
width = 489;
}
);
metricLeft = U;
metricRight = U;
note = Uhorn;
unicode = 431;
},
{
glyphname = Utilde;
lastChange = "2026-03-25 05:34:25 +0000";
layers = (
{
layerId = m01;
shapes = (
{
closed = 1;
nodes = (
(146,584,o),
(146,575,qs),
(146,571,o),
(154,571,qs),
(170,571,o),
(189,581,qs),
(197,585,o),
(205,585,o),
(215,574,qs),
(226,560,o),
(260,560,o),
(296,572,qs),
(336,585,o),
(365,600,o),
(365,610,qs),
(365,625,o),
(352,625,qs),
(342,625,o),
(310,613,qs),
(273,599,l),
(254,617,ls),
(235,635,o),
(218,635,qs),
(203,635,o),
(184,622,qs),
(169,613,o)
);
},
{
closed = 1;
nodes = (
(84,538,l),
(29,501,l),
(29,427,l),
(10,353,l),
(10,279,l),
(29,188,l),
(47,114,l),
(66,58,l),
(103,21,l),
(176,3,l),
(249,3,l),
(305,21,l),
(342,40,l),
(342,95,l),
(397,21,l),
(452,40,l),
(452,132,l),
(434,206,l),
(416,279,l),
(416,335,l),
(416,409,l),
(397,483,l),
(379,520,l),
(379,520,l),
(323,520,l),
(268,483,l),
(268,409,l),
(268,335,l),
(268,243,l),
(249,169,l),
(213,132,l),
(176,151,l),
(157,225,l),
(157,298,l),
(157,390,l),
(157,464,l),
(140,538,l)
);
}
);
width = 487;
}
);
metricLeft = U;
metricRight = U;
note = Utilde;
unicode = 360;
},
{
glyphname = Yacute;
lastChange = "2026-03-25 05:34:25 +0000";
layers = (
{
layerId = m01;
shapes = (
{
closed = 1;
nodes = (
(146,540,qs),
(136,531,o),
(133,509,qs),
(131,486,o),
(133,486,qs),
(138,486,o),
(255,530,o),
(278,540,qs),
(311,554,o),
(311,565,qs),
(311,572,o),
(291,586,o),
(275,586,o),
(243,578,qs),
(172,560,o)
);
},
{
closed = 1;
nodes = (
(276,401,qs),
(259,372,o),
(240,336,qs),
(223,302,l),
(200,321,ls),
(163,351,o),
(117,410,qs),
(100,434,o),
(74,455,qs),
(51,473,o),
(36,473,qs),
(20,473,o),
(1,457,qs),
(-21,439,o),
(-30,433,q),
(-40,424,l),
(-30,410,ls),
(-26,405,o),
(9,355,qs),
(40,310,o),
(56,296,qs),
(73,281,o),
(150,184,o),
(154,172,qs),
(156,164,o),
(156,161,qs),
(156,149,o),
(135,117,qs),
(121,97,o),
(81,-11,o),
(81,-27,qs),
(81,-28,o),
(81,-30,q),
(82,-31,l),
(88,-42,o),
(144,-113,o),
(146,-113,qs),
(150,-113,o),
(194,-19,o),
(244,93,o),
(253,107,qs),
(292,172,o),
(381,368,o),
(387,404,q),
(388,407,o),
(388,413,qs),
(388,423,o),
(364,460,qs),
(338,499,o),
(334,499,o),
(315,465,qs),
(304,445,o)
);
}
);
width = 403;
}
);
metricLeft = Y;
metricRight = Y;
note = Yacute;
unicode = 221;
},
{
glyphname = Ygrave;
lastChange = "2026-03-25 05:34:25 +0000";
layers = (
{
layerId = m01;
shapes = (
{
closed = 1;
nodes = (
(130,556,o),
(141,554,qs),
(146,553,o),
(221,521,o),
(234,521,qs),
(253,521,l),
(252,544,l),
(250,566,l),
(216,583,ls),
(179,601,o),
(154,603,qs),
(126,605,l),
(126,580,ls),
(126,562,o)
);
},
{
closed = 1;
nodes = (
(251,439,o),
(239,416,qs),
(222,384,o),
(218,384,qs),
(216,384,o),
(212,386,qs),
(201,392,o),
(133,462,o),
(114,487,qs),
(71,543,o),
(37,549,qs),
(33,550,o),
(28,550,qs),
(18,550,o),
(-9,528,qs),
(-40,502,o),
(-40,500,q),
(-19,469,ls),
(-5,450,o),
(12,422,qs),
(23,404,o),
(58,367,qs),
(99,322,o),
(123,292,qs),
(152,254,o),
(152,237,qs),
(152,221,o),
(136,198,qs),
(112,162,o),
(86,81,qs),
(77,50,l),
(106,10,ls),
(130,-23,o),
(141,-34,qs),
(142,-35,o),
(143,-35,qs),
(149,-35,o),
(173,17,qs),
(238,161,o),
(253,186,qs),
(315,290,o),
(357,398,qs),
(385,470,o),
(385,504,o),
(361,538,qs),
(335,577,o),
(331,577,o),
(313,544,qs),
(301,521,o)
);
}
);
width = 400;
}
);
metricLeft = Y;
metricRight = Y;
note = Ygrave;
unicode = 7922;
},
{
glyphname = uni1ea0;
kernRight = A;
lastChange = "2026-03-25 05:34:25 +0000";
layers = (
{
layerId = m01;
shapes = (
{
closed = 1;
nodes = (
(249,342,qs),
(254,315,l),
(234,312,ls),
(223,310,o),
(200,310,qs),
(171,310,o),
(163,314,q),
(161,316,o),
(161,318,qs),
(161,323,o),
(175,343,qs),
(184,355,o),
(204,390,qs),
(217,410,o),
(218,410,q),
(231,390,ls),
(243,369,o)
);
},
{
closed = 1;
nodes = (
(57,367,qs),
(32,329,o),
(2,254,qs),
(-30,176,o),
(-30,170,qs),
(-30,167,o),
(19,102,o),
(22,100,q),
(23,100,ls),
(30,100,o),
(74,168,o),
(83,192,qs),
(95,226,l),
(110,216,ls),
(125,207,o),
(170,203,qs),
(184,202,o),
(217,202,qs),
(240,202,o),
(248,203,qs),
(281,207,l),
(291,177,ls),
(299,155,o),
(336,101,o),
(344,101,qs),
(345,101,ls),
(349,101,o),
(362,136,qs),
(375,171,l),
(367,209,ls),
(362,237,o),
(362,246,qs),
(362,258,o),
(371,299,qs),
(374,309,o),
(357,314,qs),
(345,318,o),
(337,330,o),
(327,357,qs),
(313,393,o),
(304,432,qs),
(298,457,o),
(257,586,o),
(251,592,o),
(193,609,o),
(186,610,qs),
(185,610,ls),
(173,610,o),
(130,526,o),
(123,503,qs),
(102,434,o)
);
},
{
closed = 1;
nodes = (
(150,46,l),
(177,46,ls),
(211,46,o),
(224,56,o),
(224,82,qs),
(224,112,l),
(208,111,ls),
(193,111,o),
(171,109,qs),
(150,107,l)
);
}
);
width = 390;
}
);
metricLeft = A;
metricRight = A;
note = uni1ea0;
unicode = 7840;
},
{
glyphname = uni1ea2;
kernRight = A;
lastChange = "2026-03-25 05:34:17 +0000";
layers = (
{
layerId = m01;
shapes = (
{
closed = 1;
nodes = (
(202,524,o),
(204,524,qs),
(208,524,o),
(269,576,o),
(276,586,qs),
(287,601,o),
(287,627,qs),
(287,654,o),
(273,676,o),
(255,676,qs),
(238,676,o),
(211,669,qs),
(182,662,l),
(183,636,ls),
(185,605,o),
(191,605,qs),
(194,605,o),
(199,615,qs),
(206,629,o),
(223,633,qs),
(240,638,o),
(252,638,qs),
(268,638,o),
(268,632,qs),
(268,630,o),
(189,561,o),
(189,559,qs),
(189,554,o)
);
},
{
closed = 1;
nodes = (
(254,205,o),
(254,195,qs),
(254,192,o),
(253,191,qs),
(249,187,o),
(199,187,qs),
(171,187,o),
(168,189,qs),
(163,191,o),
(163,194,qs),
(163,200,o),
(187,236,qs),
(215,281,o),
(215,287,o),
(216,287,qs),
(221,287,o),
(234,264,qs),
(240,253,o)
);
},
{
closed = 1;
nodes = (
(61,249,qs),
(30,203,o),
(-11,94,qs),
(-30,44,l),
(-9,14,ls),
(16,-20,o),
(23,-20,qs),
(31,-20,o),
(50,7,qs),
(73,37,o),
(84,69,qs),
(95,98,o),
(99,98,qs),
(102,98,o),
(116,89,qs),
(131,80,o),
(183,79,qs),
(233,79,o),
(259,81,qs),
(282,82,l),
(292,53,ls),
(299,33,o),
(339,-25,o),
(346,-25,qs),
(350,-25,o),
(363,12,qs),
(376,50,l),
(368,86,ls),
(362,113,o),
(362,123,qs),
(362,127,o),
(366,149,qs),
(372,172,o),
(372,178,qs),
(372,186,o),
(357,191,qs),
(347,195,o),
(337,208,o),
(329,230,qs),
(319,257,o),
(306,307,qs),
(298,340,o),
(259,459,o),
(255,464,qs),
(252,467,o),
(192,485,o),
(186,486,qs),
(185,486,ls),
(174,486,o),
(130,399,o),
(124,378,qs),
(104,313,o)
);
}
);
width = 391;
}
);
metricLeft = A;
metricRight = A;
note = uni1ea2;
unicode = 7842;
},
{
glyphname = uni1ea4;
kernRight = A;
lastChange = "2026-03-25 05:34:17 +0000";
layers = (
{
layerId = m01;
shapes = (
{
closed = 1;
nodes = (
(113,605,l),
(117,607,ls),
(272,681,o),
(271,699,qs),
(271,706,o),
(252,721,o),
(242,721,qs),
(237,721,o),
(203,713,qs),
(132,695,o),
(106,675,qs),
(82,668,o),
(92,643,qs),
(106,607,l)
);
},
{
closed = 1;
nodes = (
(254,205,o),
(254,195,qs),
(254,192,o),
(253,191,qs),
(249,187,o),
(199,187,qs),
(171,187,o),
(168,189,qs),
(163,191,o),
(163,194,qs),
(163,200,o),
(187,236,qs),
(215,281,o),
(215,287,o),
(216,287,qs),
(221,287,o),
(234,264,qs),
(240,253,o)
);
},
{
closed = 1;
nodes = (
(61,249,qs),
(30,203,o),
(-11,94,qs),
(-30,44,l),
(-9,14,ls),
(16,-20,o),
(23,-20,qs),
(31,-20,o),
(50,7,qs),
(73,37,o),
(84,69,qs),
(95,98,o),
(99,98,qs),
(102,98,o),
(116,89,qs),
(131,80,o),
(183,79,qs),
(233,79,o),
(259,81,qs),
(282,82,l),
(292,53,ls),
(299,33,o),
(339,-25,o),
(346,-25,qs),
(350,-25,o),
(363,12,qs),
(376,50,l),
(368,86,ls),
(362,113,o),
(362,123,qs),
(362,127,o),
(366,149,qs),
(372,172,o),
(372,178,qs),
(372,186,o),
(357,191,qs),
(347,195,o),
(337,208,o),
(329,230,qs),
(319,257,o),
(306,307,qs),
(298,340,o),
(259,459,o),
(255,464,qs),
(252,467,o),
(192,485,o),
(186,486,qs),
(185,486,ls),
(174,486,o),
(130,399,o),
(124,378,qs),
(104,313,o)
);
},
{
closed = 1;
nodes = (
(276,549,qs),
(264,557,o),
(232,579,qs),
(199,611,o),
(177,611,qs),
(161,611,o),
(136,591,qs),
(124,581,o),
(105,570,qs),
(71,552,o),
(71,533,qs),
(71,508,o),
(127,497,qs),
(131,496,o),
(137,496,qs),
(144,496,o),
(159,516,qs),
(178,541,o),
(186,541,qs),
(192,541,o),
(217,530,qs),
(269,504,o),
(307,497,qs),
(311,496,o),
(319,496,qs),
(346,496,o),
(346,509,qs),
(346,515,o),
(324,534,o),
(297,535,o)
);
}
);
width = 391;
}
);
metricLeft = A;
metricRight = A;
note = uni1ea4;
unicode = 7844;
},
{
glyphname = uni1ea6;
kernRight = A;
lastChange = "2026-03-25 05:34:17 +0000";
layers = (
{
layerId = m01;
shapes = (
{
closed = 1;
nodes = (
(208,638,qs),
(214,638,o),
(252,620,qs),
(289,603,o),
(308,603,qs),
(327,603,l),
(327,624,ls),
(327,640,o),
(322,650,o),
(309,657,qs),
(290,668,o),
(234,686,o),
(218,686,qs),
(201,686,l),
(201,662,ls),
(201,638,o)
);
},
{
closed = 1;
nodes = (
(109,582,qs),
(66,555,o),
(66,538,qs),
(66,522,o),
(99,510,qs),
(116,503,o),
(126,503,qs),
(141,503,o),
(155,524,qs),
(173,548,o),
(181,548,qs),
(185,548,o),
(213,535,qs),
(281,502,o),
(318,502,qs),
(339,502,o),
(339,514,qs),
(339,517,o),
(338,519,qs),
(335,529,o),
(296,551,o),
(274,555,qs),
(257,558,o),
(243,567,o),
(231,581,qs),
(201,616,o),
(173,616,qs),
(159,616,o),
(143,605,qs),
(131,596,o)
);
},
{
closed = 1;
nodes = (
(248,212,qs),
(253,185,l),
(233,183,ls),
(215,180,o),
(195,180,qs),
(171,180,o),
(163,184,q),
(161,186,o),
(161,188,qs),
(161,195,o),
(174,213,qs),
(183,225,o),
(203,260,qs),
(216,280,o),
(217,280,q),
(230,260,ls),
(242,239,o)
);
},
{
closed = 1;
nodes = (
(56,237,qs),
(35,205,o),
(2,124,qs),
(-30,46,o),
(-30,41,qs),
(-30,38,o),
(19,-27,o),
(22,-29,q),
(23,-29,ls),
(30,-29,o),
(73,39,o),
(82,63,qs),
(95,97,l),
(110,86,ls),
(125,77,o),
(169,73,qs),
(174,73,o),
(196,72,o),
(202,72,qs),
(224,72,o),
(246,74,qs),
(280,78,l),
(290,48,ls),
(298,26,o),
(334,-28,o),
(342,-28,qs),
(343,-28,ls),
(347,-28,o),
(360,7,qs),
(373,42,l),
(366,80,ls),
(361,108,o),
(361,117,qs),
(361,129,o),
(370,170,qs),
(372,176,o),
(366,181,o),
(356,184,qs),
(344,188,o),
(335,200,o),
(325,227,qs),
(311,263,o),
(302,302,qs),
(296,328,o),
(256,455,o),
(250,461,o),
(192,478,o),
(185,479,qs),
(184,479,ls),
(172,479,o),
(129,395,o),
(122,372,qs),
(102,305,o)
);
}
);
width = 388;
}
);
metricLeft = A;
metricRight = A;
note = uni1ea6;
unicode = 7846;
},
{
glyphname = uni1ea8;
kernRight = A;
lastChange = "2026-03-25 05:34:17 +0000";
layers = (
{
layerId = m01;
shapes = (
{
closed = 1;
nodes = (
(234,696,qs),
(234,682,o),
(240,652,o),
(244,652,qs),
(250,652,o),
(252,662,qs),
(257,681,o),
(290,681,qs),
(297,681,l),
(322,680,l),
(313,671,ls),
(307,665,o),
(271,635,qs),
(238,608,l),
(245,590,ls),
(252,573,o),
(256,573,qs),
(261,573,o),
(317,619,o),
(326,631,qs),
(341,650,o),
(341,674,qs),
(341,688,o),
(335,702,qs),
(328,721,o),
(323,721,qs),
(319,721,o),
(309,723,q),
(305,723,ls),
(292,723,o),
(239,712,o),
(236,709,qs),
(234,707,o)
);
},
{
closed = 1;
nodes = (
(101,569,o),
(83,556,o),
(80,554,qs),
(63,543,o),
(63,521,o),
(70,512,o),
(82,506,qs),
(101,498,o),
(117,496,qs),
(119,496,o),
(126,495,o),
(127,495,qs),
(137,495,o),
(152,515,qs),
(169,538,o),
(173,539,qs),
(174,539,ls),
(180,539,o),
(218,522,qs),
(279,492,o),
(313,492,qs),
(333,492,o),
(333,518,o),
(298,540,o),
(272,545,qs),
(253,549,o),
(224,576,qs),
(197,603,o),
(176,606,qs),
(174,606,o),
(167,607,o),
(166,607,qs),
(153,607,o),
(127,587,qs),
(120,582,o)
);
},
{
closed = 1;
nodes = (
(243,212,qs),
(248,185,l),
(229,183,ls),
(211,180,o),
(191,180,qs),
(166,180,o),
(158,184,q),
(156,186,o),
(156,188,qs),
(156,193,o),
(170,213,qs),
(179,225,o),
(199,260,qs),
(212,280,l),
(213,280,o),
(226,260,qs),
(237,242,o)
);
},
{
closed = 1;
nodes = (
(57,245,qs),
(47,230,o),
(-30,50,o),
(-30,41,qs),
(-30,38,o),
(19,-27,o),
(22,-29,q),
(23,-29,ls),
(30,-29,o),
(73,39,o),
(82,63,qs),
(95,97,l),
(110,86,ls),
(126,76,o),
(167,73,qs),
(172,73,o),
(193,72,o),
(199,72,qs),
(220,72,o),
(242,74,qs),
(276,78,l),
(285,48,ls),
(293,26,o),
(330,-28,o),
(338,-28,qs),
(339,-28,ls),
(343,-28,o),
(356,7,qs),
(369,42,l),
(361,80,ls),
(356,108,o),
(356,117,qs),
(356,129,o),
(365,170,qs),
(366,176,o),
(362,181,o),
(351,184,qs),
(339,188,o),
(331,200,o),
(321,227,qs),
(307,263,o),
(298,302,qs),
(292,327,o),
(251,455,o),
(245,461,o),
(187,478,o),
(180,479,qs),
(179,479,ls),
(168,479,o),
(125,395,o),
(118,372,qs),
(99,306,o)
);
}
);
width = 384;
}
);
metricLeft = A;
metricRight = A;
note = uni1ea8;
unicode = 7848;
},
{
glyphname = uni1eaa;
kernRight = A;
lastChange = "2026-03-25 05:34:17 +0000";
layers = (
{
layerId = m01;
shapes = (
{
closed = 1;
nodes = (
(97,653,o),
(97,644,qs),
(97,636,o),
(107,636,qs),
(116,636,o),
(134,644,qs),
(150,653,l),
(161,640,ls),
(172,627,o),
(193,627,qs),
(210,627,o),
(286,649,o),
(300,659,qs),
(311,667,o),
(310,678,qs),
(309,686,o),
(304,690,o),
(294,689,qs),
(276,687,o),
(255,677,qs),
(231,666,o),
(225,666,qs),
(220,666,o),
(202,682,qs),
(185,699,o),
(168,699,qs),
(156,699,o),
(142,692,qs),
(124,683,o)
);
},
{
closed = 1;
nodes = (
(109,571,o),
(91,558,o),
(88,556,qs),
(72,546,o),
(72,535,qs),
(72,530,ls),
(73,515,o),
(90,507,qs),
(109,499,o),
(125,497,qs),
(127,497,o),
(133,496,o),
(134,496,qs),
(144,496,o),
(160,517,qs),
(177,540,o),
(181,541,qs),
(182,541,ls),
(188,541,o),
(226,524,qs),
(287,494,o),
(322,494,qs),
(342,494,o),
(342,507,qs),
(342,519,o),
(306,541,o),
(280,546,qs),
(261,550,o),
(232,577,qs),
(203,606,o),
(184,608,qs),
(182,608,o),
(175,609,o),
(174,609,qs),
(161,609,o),
(135,589,qs),
(128,584,o)
);
},
{
closed = 1;
nodes = (
(253,204,o),
(253,194,qs),
(253,191,o),
(252,190,qs),
(247,185,o),
(192,185,qs),
(173,185,o),
(167,187,qs),
(162,189,o),
(162,192,qs),
(162,198,o),
(186,234,qs),
(214,279,o),
(214,285,o),
(215,285,qs),
(220,285,o),
(233,262,qs),
(240,251,o)
);
},
{
closed = 1;
nodes = (
(123,376,qs),
(102,307,o),
(61,247,qs),
(32,204,o),
(-11,93,qs),
(-30,43,l),
(-9,14,ls),
(16,-21,o),
(30,-21,o),
(49,6,qs),
(73,37,o),
(84,68,qs),
(95,97,o),
(98,97,qs),
(102,97,o),
(116,88,qs),
(131,79,o),
(182,78,qs),
(244,78,o),
(257,79,qs),
(281,81,l),
(291,52,ls),
(298,32,o),
(338,-25,o),
(345,-25,qs),
(348,-25,o),
(361,11,qs),
(374,48,l),
(367,84,ls),
(361,111,o),
(361,121,qs),
(361,125,o),
(365,147,qs),
(371,168,o),
(371,175,qs),
(371,184,o),
(356,189,qs),
(345,193,o),
(335,206,o),
(327,228,qs),
(316,257,o),
(304,304,qs),
(296,337,o),
(258,456,o),
(254,461,qs),
(251,464,o),
(191,482,o),
(185,483,qs),
(183,483,ls),
(174,483,o),
(154,445,qs),
(132,404,o)
);
}
);
width = 389;
}
);
metricLeft = A;
metricRight = A;
note = uni1eaa;
unicode = 7850;
},
{
glyphname = uni1eac;
kernRight = A;
lastChange = "2026-03-25 05:34:17 +0000";
layers = (
{
layerId = m01;
shapes = (
{
closed = 1;
nodes = (
(112,576,qs),
(78,555,o),
(78,525,o),
(109,512,qs),
(129,504,o),
(153,504,o),
(163,518,qs),
(173,533,o),
(183,542,qs),
(194,552,l),
(219,539,ls),
(291,504,o),
(330,504,qs),
(351,504,o),
(351,516,qs),
(351,527,o),
(315,550,o),
(294,553,qs),
(279,555,o),
(261,566,o),
(242,585,qs),
(221,604,o),
(205,615,o),
(191,616,qs),
(189,616,o),
(181,617,o),
(180,617,qs),
(168,617,o),
(155,605,qs),
(143,595,o)
);
},
{
closed = 1;
nodes = (
(251,190,o),
(250,190,q),
(242,185,o),
(189,185,qs),
(175,185,o),
(171,186,qs),
(156,189,l),
(180,227,ls),
(188,239,o),
(210,275,o),
(211,276,q),
(217,286,l),
(232,261,ls),
(247,234,o),
(249,214,qs),
(250,206,o)
);
},
{
closed = 1;
nodes = (
(123,378,qs),
(99,301,o),
(60,246,qs),
(23,194,o),
(-20,71,qs),
(-30,42,l),
(-5,8,ls),
(21,-25,o),
(24,-25,qs),
(31,-25,o),
(75,45,o),
(83,67,qs),
(95,101,l),
(112,90,ls),
(125,82,o),
(149,78,o),
(196,78,qs),
(264,78,o),
(271,81,q),
(272,82,o),
(275,82,qs),
(281,82,o),
(290,52,qs),
(298,24,o),
(322,-3,qs),
(340,-24,o),
(345,-24,qs),
(348,-24,o),
(361,12,qs),
(373,47,l),
(366,83,ls),
(361,111,o),
(361,121,qs),
(361,132,o),
(364,147,qs),
(368,166,o),
(368,176,qs),
(368,182,o),
(358,187,qs),
(355,188,o),
(354,189,q),
(344,192,o),
(335,205,o),
(326,229,qs),
(312,270,o),
(304,302,qs),
(297,332,o),
(255,463,o),
(245,466,qs),
(229,469,o),
(206,476,qs),
(177,485,l),
(156,448,ls),
(133,410,o)
);
},
{
closed = 1;
nodes = (
(146,-90,l),
(172,-90,ls),
(190,-90,o),
(211,-87,qs),
(225,-84,l),
(225,-25,l),
(209,-25,ls),
(206,-25,o),
(170,-28,qs),
(146,-29,l)
);
}
);
width = 388;
}
);
metricLeft = A;
metricRight = A;
note = uni1eac;
unicode = 7852;
},
{
glyphname = uni1eae;
kernRight = A;
lastChange = "2026-03-25 05:34:17 +0000";
layers = (
{
layerId = m01;
shapes = (
{
closed = 1;
nodes = (
(184,663,o),
(178,655,q),
(169,637,o),
(169,618,qs),
(169,609,o),
(174,609,qs),
(192,609,o),
(301,655,qs),
(322,664,o),
(328,667,qs),
(347,675,o),
(347,686,qs),
(347,704,o),
(319,704,qs),
(302,704,o),
(270,696,qs),
(242,689,o)
);
},
{
closed = 1;
nodes = (
(102,574,qs),
(102,564,o),
(115,554,qs),
(136,536,o),
(171,523,o),
(201,523,qs),
(237,523,o),
(267,536,qs),
(281,543,o),
(314,566,o),
(334,586,o),
(332,588,q),
(331,588,ls),
(324,588,o),
(294,581,qs),
(246,567,o),
(220,567,qs),
(191,567,o),
(168,584,qs),
(155,594,o),
(142,594,qs),
(135,594,o),
(118,589,qs),
(102,583,o)
);
},
{
closed = 1;
nodes = (
(248,217,qs),
(253,190,l),
(233,187,ls),
(215,184,o),
(195,184,qs),
(171,184,o),
(163,188,q),
(161,190,o),
(161,192,qs),
(161,199,o),
(174,217,qs),
(183,229,o),
(203,264,qs),
(216,285,o),
(217,285,q),
(219,282,ls),
(221,280,o),
(227,268,o),
(230,264,qs),
(243,243,o)
);
},
{
closed = 1;
nodes = (
(56,241,qs),
(34,208,o),
(2,129,qs),
(-30,51,o),
(-30,45,qs),
(-30,42,o),
(19,-22,o),
(22,-24,q),
(23,-24,ls),
(30,-24,o),
(73,44,o),
(82,68,qs),
(95,101,l),
(110,91,ls),
(125,82,o),
(169,78,qs),
(174,78,o),
(196,77,o),
(202,77,qs),
(224,77,o),
(246,79,qs),
(280,82,l),
(290,52,ls),
(298,30,o),
(334,-24,o),
(342,-24,qs),
(343,-24,ls),
(347,-24,o),
(360,12,qs),
(373,46,l),
(366,84,ls),
(361,112,o),
(361,121,qs),
(361,134,o),
(370,174,qs),
(373,184,o),
(356,189,qs),
(344,193,o),
(334,205,o),
(325,231,qs),
(312,265,o),
(302,307,qs),
(296,332,o),
(256,459,o),
(250,465,o),
(192,482,o),
(185,483,qs),
(183,483,ls),
(171,483,o),
(130,401,o),
(122,376,qs),
(102,309,o)
);
}
);
width = 388;
}
);
metricLeft = A;
metricRight = A;
note = uni1eae;
unicode = 7854;
},
{
glyphname = uni1eb0;
kernRight = A;
lastChange = "2026-03-25 05:34:17 +0000";
layers = (
{
layerId = m01;
shapes = (
{
closed = 1;
nodes = (
(132,621,o),
(138,621,qs),
(146,621,o),
(184,603,qs),
(221,586,o),
(241,586,qs),
(255,586,o),
(260,590,o),
(260,600,qs),
(260,621,o),
(247,636,o),
(219,649,qs),
(184,665,o),
(156,668,qs),
(129,670,l),
(129,645,ls),
(129,629,o)
);
},
{
closed = 1;
nodes = (
(103,573,o),
(104,565,qs),
(106,554,o),
(144,525,o),
(165,520,qs),
(178,516,o),
(198,516,qs),
(265,516,o),
(317,563,qs),
(332,577,o),
(332,580,qs),
(332,582,o),
(325,582,qs),
(316,582,o),
(284,572,qs),
(254,562,o),
(225,562,qs),
(195,562,o),
(173,576,qs),
(151,589,o),
(141,589,o),
(123,583,qs),
(110,579,o)
);
},
{
closed = 1;
nodes = (
(251,190,o),
(250,190,q),
(242,185,o),
(189,185,qs),
(175,185,o),
(171,186,qs),
(156,189,l),
(180,227,ls),
(188,239,o),
(210,275,o),
(211,276,q),
(217,286,l),
(232,261,ls),
(247,234,o),
(249,214,qs),
(250,206,o)
);
},
{
closed = 1;
nodes = (
(123,378,qs),
(99,301,o),
(60,246,qs),
(23,194,o),
(-20,71,qs),
(-30,42,l),
(-5,8,ls),
(21,-25,o),
(24,-25,qs),
(31,-25,o),
(75,45,o),
(83,67,qs),
(95,101,l),
(112,90,ls),
(125,82,o),
(149,78,o),
(196,78,qs),
(264,78,o),
(271,81,q),
(272,82,o),
(275,82,qs),
(281,82,o),
(290,52,qs),
(298,24,o),
(322,-3,qs),
(340,-24,o),
(345,-24,qs),
(348,-24,o),
(361,12,qs),
(373,47,l),
(366,83,ls),
(361,111,o),
(361,121,qs),
(361,132,o),
(364,147,qs),
(368,166,o),
(368,176,qs),
(368,182,o),
(358,187,qs),
(355,188,o),
(354,189,q),
(344,192,o),
(335,205,o),
(326,229,qs),
(312,270,o),
(304,302,qs),
(297,332,o),
(255,463,o),
(245,466,qs),
(229,469,o),
(206,476,qs),
(177,485,l),
(156,448,ls),
(133,410,o)
);
}
);
width = 388;
}
);
metricLeft = A;
metricRight = A;
note = uni1eb0;
unicode = 7856;
},
{
glyphname = uni1eb2;
kernRight = A;
lastChange = "2026-03-25 05:34:17 +0000";
layers = (
{
layerId = m01;
shapes = (
{
closed = 1;
nodes = (
(194,695,qs),
(194,652,o),
(203,652,qs),
(209,652,o),
(211,662,qs),
(216,681,o),
(250,681,qs),
(257,681,l),
(282,680,l),
(273,671,ls),
(267,665,o),
(231,635,qs),
(197,608,l),
(204,590,ls),
(211,573,o),
(221,573,o),
(276,619,o),
(285,631,qs),
(300,650,o),
(300,675,qs),
(300,691,o),
(295,702,qs),
(288,721,o),
(283,721,qs),
(279,721,o),
(269,723,q),
(265,723,ls),
(252,723,o),
(199,712,o),
(196,709,qs),
(194,707,o)
);
},
{
closed = 1;
nodes = (
(102,560,o),
(112,550,qs),
(146,514,o),
(203,514,qs),
(247,514,o),
(286,538,qs),
(306,550,o),
(334,576,o),
(331,580,q),
(328,581,l),
(314,581,o),
(287,572,qs),
(249,560,o),
(225,560,qs),
(209,560,o),
(168,574,o),
(164,581,qs),
(161,585,o),
(148,585,qs),
(131,585,o),
(118,580,qs),
(102,574,o)
);
},
{
closed = 1;
nodes = (
(253,208,o),
(253,198,qs),
(253,195,o),
(252,194,qs),
(248,190,o),
(198,190,qs),
(170,190,o),
(167,192,qs),
(162,194,o),
(162,197,qs),
(162,203,o),
(186,239,qs),
(214,284,o),
(214,286,qs),
(214,289,o),
(215,289,qs),
(220,289,o),
(233,266,qs),
(240,255,o)
);
},
{
closed = 1;
nodes = (
(123,380,qs),
(102,313,o),
(61,252,qs),
(33,211,o),
(-11,97,qs),
(-30,48,l),
(-9,18,ls),
(16,-17,o),
(30,-17,o),
(49,10,qs),
(73,41,o),
(84,72,qs),
(95,101,o),
(98,101,qs),
(103,101,o),
(116,93,qs),
(131,84,o),
(182,83,qs),
(244,83,o),
(257,84,qs),
(281,86,l),
(291,56,ls),
(298,36,o),
(338,-21,o),
(345,-21,qs),
(348,-21,o),
(361,16,qs),
(374,53,l),
(367,89,ls),
(361,116,o),
(361,126,qs),
(361,130,o),
(365,152,qs),
(371,173,o),
(371,180,qs),
(371,188,o),
(356,193,qs),
(345,197,o),
(335,210,o),
(327,232,qs),
(317,259,o),
(304,309,qs),
(296,342,o),
(258,460,o),
(254,465,qs),
(251,468,o),
(191,486,o),
(185,487,qs),
(183,487,ls),
(174,487,o),
(154,449,qs),
(132,408,o)
);
}
);
width = 389;
}
);
metricLeft = A;
metricRight = A;
note = uni1eb2;
unicode = 7858;
},
{
glyphname = uni1eb4;
kernRight = A;
lastChange = "2026-03-25 05:34:17 +0000";
layers = (
{
layerId = m01;
shapes = (
{
closed = 1;
nodes = (
(108,681,o),
(108,668,qs),
(108,660,o),
(118,660,qs),
(129,660,o),
(145,668,qs),
(164,676,l),
(173,664,ls),
(182,651,o),
(203,651,qs),
(232,651,o),
(320,684,o),
(324,696,qs),
(325,698,o),
(325,703,qs),
(325,713,o),
(311,713,qs),
(297,711,o),
(263,699,qs),
(249,694,o),
(235,691,qs),
(227,689,o),
(219,702,qs),
(213,710,o),
(189,725,o),
(182,725,qs),
(181,725,ls),
(177,725,o),
(167,721,qs),
(146,714,o)
);
},
{
closed = 1;
nodes = (
(102,612,qs),
(102,602,o),
(115,592,qs),
(136,574,o),
(171,562,o),
(201,562,qs),
(237,562,o),
(267,575,qs),
(281,582,o),
(314,605,o),
(334,625,o),
(332,627,q),
(331,627,ls),
(324,627,o),
(294,620,qs),
(244,606,o),
(218,606,qs),
(188,606,o),
(168,622,qs),
(155,632,o),
(142,632,qs),
(135,632,o),
(118,627,qs),
(102,621,o)
);
},
{
closed = 1;
nodes = (
(248,264,qs),
(253,237,l),
(233,234,ls),
(222,232,o),
(200,232,qs),
(171,232,o),
(163,236,q),
(161,238,o),
(161,240,qs),
(161,247,o),
(174,265,qs),
(183,277,o),
(203,312,qs),
(216,332,o),
(217,332,q),
(230,312,ls),
(242,291,o)
);
},
{
closed = 1;
nodes = (
(56,289,qs),
(35,257,o),
(2,176,qs),
(-30,98,o),
(-30,92,qs),
(-30,89,o),
(19,25,o),
(22,23,q),
(23,23,ls),
(30,23,o),
(73,91,o),
(82,115,qs),
(95,149,l),
(110,138,ls),
(125,129,o),
(169,125,qs),
(174,125,o),
(196,124,o),
(202,124,qs),
(224,124,o),
(246,126,qs),
(280,129,l),
(290,99,ls),
(298,77,o),
(334,24,o),
(342,24,qs),
(343,24,ls),
(347,24,o),
(360,59,qs),
(373,94,l),
(366,132,ls),
(361,160,o),
(361,169,qs),
(361,181,o),
(370,222,qs),
(372,228,o),
(366,233,o),
(356,236,qs),
(344,240,o),
(335,252,o),
(325,279,qs),
(311,315,o),
(302,354,qs),
(296,379,o),
(256,506,o),
(250,512,o),
(192,529,o),
(185,530,qs),
(184,530,ls),
(172,530,o),
(129,447,o),
(122,424,qs),
(102,357,o)
);
}
);
width = 388;
}
);
metricLeft = A;
metricRight = A;
note = uni1eb4;
unicode = 7860;
},
{
glyphname = uni1eb6;
kernRight = A;
lastChange = "2026-03-25 05:34:17 +0000";
layers = (
{
layerId = m01;
shapes = (
{
closed = 1;
nodes = (
(102,592,q),
(101,592,o),
(101,582,qs),
(101,566,o),
(145,542,qs),
(159,534,o),
(201,534,qs),
(241,534,o),
(269,548,qs),
(281,554,o),
(313,577,o),
(334,597,o),
(332,599,q),
(331,599,ls),
(325,599,o),
(297,592,qs),
(242,577,o),
(218,577,qs),
(193,577,o),
(167,594,qs),
(151,604,o),
(135,604,o),
(121,599,qs),
(111,596,o)
);
},
{
closed = 1;
nodes = (
(249,206,qs),
(249,202,o),
(248,201,qs),
(243,196,o),
(185,196,qs),
(168,196,o),
(164,197,qs),
(153,199,l),
(170,225,ls),
(193,261,o),
(199,271,qs),
(212,291,o),
(218,291,o),
(229,273,qs),
(249,237,o)
);
},
{
closed = 1;
nodes = (
(121,387,qs),
(97,313,o),
(54,252,qs),
(34,222,o),
(19,187,qs),
(-30,70,o),
(-30,55,qs),
(-30,50,o),
(18,-15,o),
(22,-15,qs),
(28,-15,o),
(71,54,o),
(78,73,qs),
(89,102,o),
(92,105,qs),
(96,109,o),
(112,98,qs),
(124,91,o),
(150,88,o),
(204,88,qs),
(279,89,l),
(287,62,ls),
(292,43,o),
(333,-15,o),
(341,-15,qs),
(345,-15,o),
(358,22,qs),
(371,58,l),
(363,95,ls),
(357,121,o),
(357,132,qs),
(357,136,o),
(361,156,qs),
(367,186,l),
(367,195,o),
(353,199,qs),
(343,202,o),
(333,216,o),
(324,238,qs),
(310,275,o),
(301,311,qs),
(293,344,o),
(254,467,o),
(250,471,qs),
(248,473,o),
(185,492,o),
(178,492,qs),
(174,492,o),
(153,458,qs),
(133,424,o)
);
},
{
closed = 1;
nodes = (
(140,-81,l),
(167,-78,ls),
(197,-76,o),
(205,-76,qs),
(212,-76,o),
(215,-72,o),
(215,-62,qs),
(215,-45,l),
(214,-15,l),
(196,-15,ls),
(189,-15,o),
(159,-18,qs),
(140,-19,l)
);
}
);
width = 386;
}
);
metricLeft = A;
metricRight = A;
note = uni1eb6;
unicode = 7862;
},
{
glyphname = uni1eb8;
lastChange = "2026-03-25 05:34:17 +0000";
layers = (
{
layerId = m01;
shapes = (
{
closed = 1;
nodes = (
(165,-103,o),
(176,-95,o),
(176,-70,qs),
(176,-42,l),
(102,-42,l),
(102,-103,l),
(132,-103,ls)
);
},
{
closed = 1;
nodes = (
(234,599,l),
(178,580,l),
(121,562,l),
(103,562,l),
(53,540,l),
(16,465,l),
(30,416,l),
(30,359,l),
(17,300,l),
(17,206,l),
(9,112,l),
(-10,37,l),
(9,0,l),
(121,0,l),
(178,19,l),
(234,37,l),
(271,37,l),
(271,112,l),
(290,131,l),
(290,206,l),
(196,187,l),
(121,168,l),
(84,150,l),
(84,225,l),
(140,225,l),
(215,243,l),
(215,356,l),
(103,337,l),
(103,356,l),
(103,431,l),
(178,449,l),
(271,468,l),
(309,580,l)
);
}
);
width = 309;
}
);
metricLeft = E;
note = uni1eb8;
unicode = 7864;
},
{
glyphname = uni1eba;
lastChange = "2026-03-25 05:34:17 +0000";
layers = (
{
layerId = m01;
shapes = (
{
closed = 1;
nodes = (
(113,735,qs),
(111,733,o),
(111,721,qs),
(111,678,o),
(119,678,qs),
(124,678,o),
(127,688,qs),
(133,706,o),
(170,711,qs),
(175,712,o),
(182,712,qs),
(192,712,o),
(192,708,qs),
(192,700,o),
(155,669,qs),
(117,638,o),
(117,634,qs),
(117,629,o),
(130,599,o),
(134,599,o),
(162,621,qs),
(218,667,o),
(218,703,qs),
(218,715,o),
(213,728,qs),
(204,751,o),
(185,751,qs),
(172,751,o),
(145,745,qs),
(118,740,o)
);
},
{
closed = 1;
nodes = (
(234,599,l),
(178,580,l),
(121,562,l),
(103,562,l),
(53,540,l),
(16,465,l),
(30,416,l),
(30,359,l),
(17,300,l),
(17,206,l),
(9,112,l),
(-10,37,l),
(9,0,l),
(121,0,l),
(178,19,l),
(234,37,l),
(271,37,l),
(271,112,l),
(290,131,l),
(290,206,l),
(196,187,l),
(121,168,l),
(84,150,l),
(84,225,l),
(140,225,l),
(215,243,l),
(215,356,l),
(103,337,l),
(103,356,l),
(103,431,l),
(178,449,l),
(271,468,l),
(309,580,l)
);
}
);
width = 309;
}
);
metricLeft = E;
note = uni1eba;
unicode = 7866;
},
{
glyphname = uni1ebc;
lastChange = "2026-03-25 05:34:17 +0000";
layers = (
{
layerId = m01;
shapes = (
{
closed = 1;
nodes = (
(62,645,qs),
(62,636,o),
(74,636,qs),
(85,636,o),
(100,643,qs),
(112,648,o),
(114,648,qs),
(118,648,o),
(128,636,qs),
(140,624,o),
(150,624,qs),
(158,624,o),
(164,625,qs),
(182,627,o),
(245,647,o),
(262,656,qs),
(276,664,o),
(276,676,qs),
(276,684,o),
(272,689,o),
(265,689,qs),
(254,689,o),
(188,663,o),
(187,663,q),
(168,680,ls),
(150,698,o),
(132,698,qs),
(116,698,o),
(97,685,qs),
(62,661,o)
);
},
{
closed = 1;
nodes = (
(234,599,l),
(178,580,l),
(121,562,l),
(103,562,l),
(53,540,l),
(16,465,l),
(30,416,l),
(30,359,l),
(17,300,l),
(17,206,l),
(9,112,l),
(-10,37,l),
(9,0,l),
(121,0,l),
(178,19,l),
(234,37,l),
(271,37,l),
(271,112,l),
(290,131,l),
(290,206,l),
(196,187,l),
(121,168,l),
(84,150,l),
(84,225,l),
(140,225,l),
(215,243,l),
(215,356,l),
(103,337,l),
(103,356,l),
(103,431,l),
(178,449,l),
(271,468,l),
(309,580,l)
);
}
);
width = 309;
}
);
metricLeft = E;
note = uni1ebc;
unicode = 7868;
},
{
glyphname = uni1ebe;
lastChange = "2026-03-25 05:34:17 +0000";
layers = (
{
layerId = m01;
shapes = (
{
closed = 1;
nodes = (
(94,779,qs),
(81,760,o),
(81,736,qs),
(81,731,o),
(82,730,q),
(83,730,ls),
(96,730,o),
(258,792,o),
(262,799,q),
(263,800,o),
(263,804,qs),
(263,817,o),
(248,824,qs),
(238,829,o),
(233,829,qs),
(227,829,o),
(194,820,qs),
(108,798,o)
);
},
{
closed = 1;
nodes = (
(70,678,o),
(64,670,qs),
(56,662,o),
(55,655,o),
(59,647,qs),
(64,636,o),
(100,619,o),
(118,619,qs),
(132,619,o),
(141,633,qs),
(152,650,o),
(160,657,qs),
(171,667,l),
(212,647,ls),
(274,617,o),
(307,617,qs),
(329,617,o),
(329,632,qs),
(329,642,o),
(288,667,o),
(267,669,qs),
(251,671,o),
(236,681,o),
(220,698,qs),
(189,732,o),
(164,732,qs),
(146,732,o),
(124,713,qs),
(119,709,o)
);
},
{
closed = 1;
nodes = (
(234,599,l),
(178,580,l),
(121,562,l),
(103,562,l),
(53,540,l),
(16,465,l),
(30,416,l),
(30,359,l),
(17,300,l),
(17,206,l),
(9,112,l),
(-10,37,l),
(9,0,l),
(121,0,l),
(178,19,l),
(234,37,l),
(271,37,l),
(271,112,l),
(290,131,l),
(290,206,l),
(196,187,l),
(121,168,l),
(84,150,l),
(84,225,l),
(140,225,l),
(215,243,l),
(215,356,l),
(103,337,l),
(103,356,l),
(103,431,l),
(178,449,l),
(271,468,l),
(309,580,l)
);
}
);
width = 329;
}
);
metricLeft = E;
metricRight = E;
note = uni1ebe;
unicode = 7870;
},
{
glyphname = uni1ec0;
lastChange = "2026-03-25 05:34:17 +0000";
layers = (
{
layerId = m01;
shapes = (
{
closed = 1;
nodes = (
(173,758,o),
(192,747,qs),
(209,736,o),
(229,736,qs),
(249,736,l),
(247,760,l),
(246,784,l),
(212,800,ls),
(178,817,o),
(150,818,qs),
(120,820,l),
(120,777,l),
(147,767,ls)
);
},
{
closed = 1;
nodes = (
(70,678,o),
(64,670,qs),
(56,662,o),
(55,655,o),
(59,647,qs),
(64,636,o),
(100,619,o),
(118,619,qs),
(132,619,o),
(141,633,qs),
(152,650,o),
(160,657,qs),
(171,667,l),
(212,647,ls),
(274,617,o),
(307,617,qs),
(329,617,o),
(329,632,qs),
(329,642,o),
(288,667,o),
(267,669,qs),
(251,671,o),
(236,681,o),
(220,698,qs),
(189,732,o),
(164,732,qs),
(146,732,o),
(124,713,qs),
(119,709,o)
);
},
{
closed = 1;
nodes = (
(234,599,l),
(178,580,l),
(121,562,l),
(103,562,l),
(53,540,l),
(16,465,l),
(30,416,l),
(30,359,l),
(17,300,l),
(17,206,l),
(9,112,l),
(-10,37,l),
(9,0,l),
(121,0,l),
(178,19,l),
(234,37,l),
(271,37,l),
(271,112,l),
(290,131,l),
(290,206,l),
(196,187,l),
(121,168,l),
(84,150,l),
(84,225,l),
(140,225,l),
(215,243,l),
(215,356,l),
(103,337,l),
(103,356,l),
(103,431,l),
(178,449,l),
(271,468,l),
(309,580,l)
);
}
);
width = 329;
}
);
metricLeft = E;
metricRight = E;
note = uni1ec0;
unicode = 7872;
},
{
glyphname = uni1ec2;
lastChange = "2026-03-25 05:34:17 +0000";
layers = (
{
layerId = m01;
shapes = (
{
closed = 1;
nodes = (
(70,668,o),
(64,660,qs),
(56,652,o),
(55,645,o),
(59,637,qs),
(64,626,o),
(100,609,o),
(118,609,qs),
(132,609,o),
(141,623,qs),
(152,640,o),
(160,647,qs),
(171,657,l),
(212,637,ls),
(274,607,o),
(307,607,qs),
(329,607,o),
(329,622,qs),
(329,632,o),
(288,657,o),
(267,659,qs),
(251,661,o),
(236,671,o),
(220,688,qs),
(189,722,o),
(164,722,qs),
(146,722,o),
(124,703,qs),
(119,699,o)
);
},
{
closed = 1;
nodes = (
(234,599,l),
(178,580,l),
(121,562,l),
(103,562,l),
(53,540,l),
(16,465,l),
(30,416,l),
(30,359,l),
(17,300,l),
(17,206,l),
(9,112,l),
(-10,37,l),
(9,0,l),
(121,0,l),
(178,19,l),
(234,37,l),
(271,37,l),
(271,112,l),
(290,131,l),
(290,206,l),
(196,187,l),
(121,168,l),
(84,150,l),
(84,225,l),
(140,225,l),
(215,243,l),
(215,356,l),
(103,337,l),
(103,356,l),
(103,431,l),
(178,449,l),
(271,468,l),
(309,580,l)
);
},
{
closed = 1;
nodes = (
(208,826,qs),
(208,812,o),
(214,782,o),
(218,782,qs),
(224,782,o),
(226,792,qs),
(231,811,o),
(264,811,qs),
(271,811,l),
(296,810,l),
(287,801,ls),
(281,795,o),
(245,765,qs),
(212,738,l),
(219,720,ls),
(226,703,o),
(230,703,qs),
(235,703,o),
(291,749,o),
(300,761,qs),
(315,780,o),
(315,804,qs),
(315,818,o),
(309,832,qs),
(302,851,o),
(297,851,qs),
(293,851,o),
(283,853,q),
(279,853,ls),
(266,853,o),
(213,842,o),
(210,839,qs),
(208,837,o)
);
}
);
width = 329;
}
);
metricLeft = E;
metricRight = E;
note = uni1ec2;
unicode = 7874;
},
{
glyphname = uni1ec4;
lastChange = "2026-03-25 05:34:17 +0000";
layers = (
{
layerId = m01;
shapes = (
{
closed = 1;
nodes = (
(62,775,o),
(62,766,qs),
(62,759,o),
(70,759,qs),
(79,759,o),
(97,768,qs),
(117,777,l),
(127,763,ls),
(138,750,o),
(157,750,qs),
(173,750,o),
(255,775,o),
(267,783,qs),
(277,790,o),
(275,802,qs),
(274,810,o),
(269,813,o),
(259,812,qs),
(246,812,o),
(220,800,qs),
(200,790,o),
(189,790,qs),
(181,790,o),
(173,801,qs),
(157,824,o),
(131,824,qs),
(120,824,o),
(106,816,qs),
(89,807,o)
);
},
{
closed = 1;
nodes = (
(70,678,o),
(64,670,qs),
(56,662,o),
(55,655,o),
(59,647,qs),
(64,636,o),
(100,619,o),
(118,619,qs),
(132,619,o),
(141,633,qs),
(152,650,o),
(160,657,qs),
(171,667,l),
(212,647,ls),
(274,617,o),
(307,617,qs),
(329,617,o),
(329,632,qs),
(329,642,o),
(288,667,o),
(267,669,qs),
(251,671,o),
(236,681,o),
(220,698,qs),
(189,732,o),
(164,732,qs),
(146,732,o),
(124,713,qs),
(119,709,o)
);
},
{
closed = 1;
nodes = (
(234,599,l),
(178,580,l),
(121,562,l),
(103,562,l),
(53,540,l),
(16,465,l),
(30,416,l),
(30,359,l),
(17,300,l),
(17,206,l),
(9,112,l),
(-10,37,l),
(9,0,l),
(121,0,l),
(178,19,l),
(234,37,l),
(271,37,l),
(271,112,l),
(290,131,l),
(290,206,l),
(196,187,l),
(121,168,l),
(84,150,l),
(84,225,l),
(140,225,l),
(215,243,l),
(215,356,l),
(103,337,l),
(103,356,l),
(103,431,l),
(178,449,l),
(271,468,l),
(309,580,l)
);
}
);
width = 329;
}
);
metricLeft = E;
metricRight = E;
note = uni1ec4;
unicode = 7876;
},
{
glyphname = uni1ec6;
lastChange = "2026-03-25 05:34:17 +0000";
layers = (
{
layerId = m01;
shapes = (
{
closed = 1;
nodes = (
(180,-94,o),
(192,-86,o),
(192,-61,qs),
(192,-33,l),
(113,-33,l),
(113,-94,l),
(145,-94,ls)
);
},
{
closed = 1;
nodes = (
(70,678,o),
(64,670,qs),
(56,662,o),
(55,655,o),
(59,647,qs),
(64,636,o),
(100,619,o),
(118,619,qs),
(132,619,o),
(141,633,qs),
(152,650,o),
(160,657,qs),
(171,667,l),
(212,647,ls),
(274,617,o),
(307,617,qs),
(329,617,o),
(329,632,qs),
(329,642,o),
(288,667,o),
(267,669,qs),
(251,671,o),
(236,681,o),
(220,698,qs),
(189,732,o),
(164,732,qs),
(146,732,o),
(124,713,qs),
(119,709,o)
);
},
{
closed = 1;
nodes = (
(234,599,l),
(178,580,l),
(121,562,l),
(103,562,l),
(53,540,l),
(16,465,l),
(30,416,l),
(30,359,l),
(17,300,l),
(17,206,l),
(9,112,l),
(-10,37,l),
(9,0,l),
(121,0,l),
(178,19,l),
(234,37,l),
(271,37,l),
(271,112,l),
(290,131,l),
(290,206,l),
(196,187,l),
(121,168,l),
(84,150,l),
(84,225,l),
(140,225,l),
(215,243,l),
(215,356,l),
(103,337,l),
(103,356,l),
(103,431,l),
(178,449,l),
(271,468,l),
(309,580,l)
);
}
);
width = 329;
}
);
metricLeft = E;
metricRight = E;
note = uni1ec6;
unicode = 7878;
},
{
glyphname = uni1ec8;
lastChange = "2026-03-25 05:34:17 +0000";
layers = (
{
layerId = m01;
shapes = (
{
closed = 1;
nodes = (
(33,677,o),
(33,667,qs),
(33,659,o),
(39,623,o),
(49,623,o),
(52,636,qs),
(54,644,o),
(83,656,o),
(102,656,qs),
(116,656,o),
(116,651,qs),
(116,644,o),
(84,618,qs),
(45,587,o),
(45,576,qs),
(45,572,o),
(50,560,qs),
(57,542,o),
(60,542,qs),
(62,542,o),
(99,579,qs),
(124,603,o),
(138,621,o),
(140,633,qs),
(141,637,o),
(141,644,qs),
(141,674,o),
(128,690,qs),
(123,695,o),
(104,695,qs),
(82,695,o),
(56,688,qs),
(42,684,o)
);
},
{
closed = 1;
nodes = (
(151,568,l),
(34,467,l),
(34,386,l),
(34,305,l),
(34,144,l),
(34,43,l),
(10,-58,l),
(105,3,l),
(151,43,l),
(151,144,l),
(151,305,l),
(151,386,l)
);
}
);
width = 191;
}
);
metricLeft = I;
metricRight = I;
note = uni1ec8;
unicode = 7880;
},
{
glyphname = uni1eca;
lastChange = "2026-03-25 05:34:17 +0000";
layers = (
{
layerId = m01;
shapes = (
{
closed = 1;
nodes = (
(116,-125,o),
(128,-117,o),
(128,-92,qs),
(128,-63,l),
(49,-63,l),
(49,-125,l),
(81,-125,ls)
);
},
{
closed = 1;
nodes = (
(151,568,l),
(34,467,l),
(34,386,l),
(34,305,l),
(34,144,l),
(34,43,l),
(10,-58,l),
(105,3,l),
(151,43,l),
(151,144,l),
(151,305,l),
(151,386,l)
);
}
);
width = 191;
}
);
metricLeft = I;
metricRight = I;
note = uni1eca;
unicode = 7882;
},
{
glyphname = uni1ecc;
lastChange = "2026-03-25 05:34:17 +0000";
layers = (
{
layerId = m01;
shapes = (
{
closed = 1;
nodes = (
(195,-129,l),
(222,-126,ls),
(228,-126,o),
(246,-124,o),
(258,-123,o),
(261,-123,qs),
(267,-123,o),
(271,-119,o),
(271,-109,qs),
(271,-92,l),
(269,-62,l),
(251,-63,ls),
(234,-63,o),
(214,-65,qs),
(195,-67,l)
);
},
{
closed = 1;
nodes = (
(334,360,qs),
(343,323,o),
(343,258,qs),
(343,193,l),
(327,156,ls),
(315,130,o),
(303,117,o),
(279,104,qs),
(247,86,l),
(212,92,ls),
(187,97,o),
(172,104,o),
(154,123,qs),
(130,150,o),
(113,186,qs),
(100,213,o),
(94,242,o),
(91,289,qs),
(89,311,o),
(89,347,qs),
(89,413,o),
(121,457,qs),
(134,475,o),
(152,499,o),
(168,506,qs),
(194,519,o),
(202,519,o),
(227,510,qs),
(301,484,o)
);
},
{
closed = 1;
nodes = (
(147,572,o),
(127,550,o),
(88,505,o),
(85,502,qs),
(63,479,o),
(14,350,o),
(2,280,qs),
(-5,243,o),
(-5,228,qs),
(-5,210,o),
(-1,188,qs),
(10,129,o),
(18,101,qs),
(28,69,o),
(40,50,o),
(64,29,qs),
(98,1,o),
(132,-15,qs),
(167,-31,l),
(208,-23,ls),
(247,-15,o),
(256,-6,qs),
(263,-4,o),
(308,47,qs),
(366,113,l),
(416,267,o),
(429,339,q),
(417,422,ls),
(410,478,o),
(399,516,o),
(386,540,qs),
(375,563,o),
(358,570,o),
(338,584,qs),
(306,605,o),
(273,607,qs),
(239,612,o),
(233,616,qs),
(231,618,o),
(228,618,qs),
(222,618,o),
(194,600,qs),
(181,592,o)
);
}
);
width = 437;
}
);
metricLeft = O;
metricRight = O;
note = uni1ecc;
unicode = 7884;
},
{
glyphname = uni1ece;
lastChange = "2026-03-25 05:34:17 +0000";
layers = (
{
layerId = m01;
shapes = (
{
closed = 1;
nodes = (
(206,789,qs),
(180,784,l),
(180,763,ls),
(180,722,o),
(189,722,qs),
(192,722,o),
(195,733,qs),
(200,751,o),
(238,756,qs),
(244,757,o),
(252,757,qs),
(262,757,o),
(262,753,qs),
(262,746,o),
(224,714,qs),
(184,680,o),
(184,678,qs),
(184,674,o),
(200,644,o),
(202,644,qs),
(206,644,o),
(265,695,o),
(272,705,qs),
(287,728,o),
(287,747,qs),
(287,753,o),
(285,763,qs),
(276,797,o),
(248,797,qs),
(245,797,o),
(235,795,qs),
(234,795,o)
);
},
{
closed = 1;
nodes = (
(334,360,qs),
(343,323,o),
(343,258,qs),
(343,193,l),
(327,156,ls),
(315,130,o),
(303,117,o),
(279,104,qs),
(247,86,l),
(212,92,ls),
(187,97,o),
(172,104,o),
(154,123,qs),
(130,150,o),
(113,186,qs),
(100,213,o),
(94,242,o),
(91,289,qs),
(89,311,o),
(89,347,qs),
(89,413,o),
(121,457,qs),
(134,475,o),
(152,499,o),
(168,506,qs),
(194,519,o),
(202,519,o),
(227,510,qs),
(301,484,o)
);
},
{
closed = 1;
nodes = (
(147,572,o),
(127,550,o),
(88,505,o),
(85,502,qs),
(63,479,o),
(14,350,o),
(2,280,qs),
(-5,243,o),
(-5,228,qs),
(-5,210,o),
(-1,188,qs),
(10,129,o),
(18,101,qs),
(28,69,o),
(40,50,o),
(64,29,qs),
(98,1,o),
(132,-15,qs),
(167,-31,l),
(208,-23,ls),
(247,-15,o),
(256,-6,qs),
(263,-4,o),
(308,47,qs),
(366,113,l),
(416,267,o),
(429,339,q),
(417,422,ls),
(410,478,o),
(399,516,o),
(386,540,qs),
(375,563,o),
(358,570,o),
(338,584,qs),
(306,605,o),
(273,607,qs),
(239,612,o),
(233,616,qs),
(231,618,o),
(228,618,qs),
(222,618,o),
(194,600,qs),
(181,592,o)
);
}
);
width = 437;
}
);
metricLeft = O;
metricRight = O;
note = uni1ece;
unicode = 7886;
},
{
glyphname = uni1ed0;
lastChange = "2026-03-25 05:34:17 +0000";
layers = (
{
layerId = m01;
shapes = (
{
closed = 1;
nodes = (
(118,787,q),
(118,786,o),
(112,761,qs),
(110,751,o),
(112,745,o),
(118,745,qs),
(136,745,o),
(247,792,qs),
(277,804,o),
(293,815,o),
(293,822,qs),
(293,841,o),
(264,841,qs),
(244,841,o),
(206,830,qs),
(125,807,o)
);
},
{
closed = 1;
nodes = (
(142,708,qs),
(124,699,o),
(94,671,o),
(94,663,qs),
(94,643,o),
(137,632,qs),
(149,628,o),
(161,628,qs),
(177,628,o),
(177,637,qs),
(177,639,o),
(193,659,qs),
(208,677,l),
(247,658,ls),
(311,626,o),
(346,626,qs),
(368,626,o),
(368,639,qs),
(368,650,o),
(327,675,o),
(301,679,qs),
(283,682,o),
(256,709,qs),
(224,742,o),
(197,742,qs),
(192,742,o),
(165,725,o),
(162,721,qs),
(161,719,o)
);
},
{
closed = 1;
nodes = (
(334,360,qs),
(343,323,o),
(343,258,qs),
(343,193,l),
(327,156,ls),
(315,130,o),
(303,117,o),
(279,104,qs),
(247,86,l),
(212,92,ls),
(187,97,o),
(172,104,o),
(154,123,qs),
(130,150,o),
(113,186,qs),
(100,213,o),
(94,242,o),
(91,289,qs),
(89,311,o),
(89,347,qs),
(89,413,o),
(121,457,qs),
(134,475,o),
(152,499,o),
(168,506,qs),
(194,519,o),
(202,519,o),
(227,510,qs),
(301,484,o)
);
},
{
closed = 1;
nodes = (
(147,572,o),
(127,550,o),
(88,505,o),
(85,502,qs),
(63,479,o),
(14,350,o),
(2,280,qs),
(-5,243,o),
(-5,228,qs),
(-5,210,o),
(-1,188,qs),
(10,129,o),
(18,101,qs),
(28,69,o),
(40,50,o),
(64,29,qs),
(98,1,o),
(132,-15,qs),
(167,-31,l),
(208,-23,ls),
(247,-15,o),
(256,-6,qs),
(263,-4,o),
(308,47,qs),
(366,113,l),
(416,267,o),
(429,339,q),
(417,422,ls),
(410,478,o),
(399,516,o),
(386,540,qs),
(375,563,o),
(358,570,o),
(338,584,qs),
(306,605,o),
(273,607,qs),
(239,612,o),
(233,616,qs),
(231,618,o),
(228,618,qs),
(222,618,o),
(194,600,qs),
(181,592,o)
);
}
);
width = 437;
}
);
metricLeft = O;
metricRight = O;
note = uni1ed0;
unicode = 7888;
},
{
glyphname = uni1ed2;
lastChange = "2026-03-25 05:34:17 +0000";
layers = (
{
layerId = m01;
shapes = (
{
closed = 1;
nodes = (
(148,795,o),
(159,793,qs),
(177,789,o),
(204,775,qs),
(233,760,o),
(254,760,qs),
(274,760,l),
(273,768,o),
(271,799,o),
(270,807,q),
(235,823,ls),
(199,839,o),
(172,842,qs),
(144,844,l),
(144,820,ls),
(144,802,o)
);
},
{
closed = 1;
nodes = (
(142,708,qs),
(124,699,o),
(94,671,o),
(94,663,qs),
(94,643,o),
(137,632,qs),
(149,628,o),
(161,628,qs),
(177,628,o),
(177,637,qs),
(177,639,o),
(193,659,qs),
(208,677,l),
(247,658,ls),
(311,626,o),
(346,626,qs),
(368,626,o),
(368,639,qs),
(368,650,o),
(327,675,o),
(301,679,qs),
(283,682,o),
(256,709,qs),
(224,742,o),
(197,742,qs),
(192,742,o),
(165,725,o),
(162,721,qs),
(161,719,o)
);
},
{
closed = 1;
nodes = (
(334,360,qs),
(343,323,o),
(343,258,qs),
(343,193,l),
(327,156,ls),
(315,130,o),
(303,117,o),
(279,104,qs),
(247,86,l),
(212,92,ls),
(187,97,o),
(172,104,o),
(154,123,qs),
(130,150,o),
(113,186,qs),
(100,213,o),
(94,242,o),
(91,289,qs),
(89,311,o),
(89,347,qs),
(89,413,o),
(121,457,qs),
(134,475,o),
(152,499,o),
(168,506,qs),
(194,519,o),
(202,519,o),
(227,510,qs),
(301,484,o)
);
},
{
closed = 1;
nodes = (
(147,572,o),
(127,550,o),
(88,505,o),
(85,502,qs),
(63,479,o),
(14,350,o),
(2,280,qs),
(-5,243,o),
(-5,228,qs),
(-5,210,o),
(-1,188,qs),
(10,129,o),
(18,101,qs),
(28,69,o),
(40,50,o),
(64,29,qs),
(98,1,o),
(132,-15,qs),
(167,-31,l),
(208,-23,ls),
(247,-15,o),
(256,-6,qs),
(263,-4,o),
(308,47,qs),
(366,113,l),
(416,267,o),
(429,339,q),
(417,422,ls),
(410,478,o),
(399,516,o),
(386,540,qs),
(375,563,o),
(358,570,o),
(338,584,qs),
(306,605,o),
(273,607,qs),
(239,612,o),
(233,616,qs),
(231,618,o),
(228,618,qs),
(222,618,o),
(194,600,qs),
(181,592,o)
);
}
);
width = 437;
}
);
metricLeft = O;
metricRight = O;
note = uni1ed2;
unicode = 7890;
},
{
glyphname = uni1ed4;
lastChange = "2026-03-25 05:34:17 +0000";
layers = (
{
layerId = m01;
shapes = (
{
closed = 1;
nodes = (
(263,816,o),
(263,805,qs),
(263,802,o),
(265,780,qs),
(268,762,o),
(274,762,qs),
(279,762,o),
(282,775,qs),
(284,783,o),
(313,795,o),
(332,795,qs),
(345,795,o),
(345,790,qs),
(345,781,o),
(306,751,qs),
(267,719,o),
(267,715,o),
(274,701,qs),
(278,694,o),
(277,694,qs),
(274,694,o),
(255,712,qs),
(226,741,o),
(204,741,qs),
(186,741,o),
(165,723,qs),
(140,704,o),
(125,695,qs),
(95,677,o),
(95,661,qs),
(95,647,o),
(122,636,qs),
(149,626,o),
(159,626,qs),
(167,626,o),
(173,633,qs),
(174,634,o),
(196,659,qs),
(210,676,l),
(249,657,ls),
(313,625,o),
(349,625,qs),
(368,625,o),
(371,635,qs),
(372,637,l),
(372,637,o),
(372,638,qs),
(372,649,o),
(333,672,o),
(302,679,qs),
(287,683,l),
(312,701,ls),
(334,717,o),
(353,740,qs),
(369,761,o),
(369,783,qs),
(369,808,o),
(363,819,qs),
(358,828,o),
(349,832,o),
(333,833,qs),
(304,833,o),
(286,827,qs),
(272,823,o)
);
},
{
closed = 1;
nodes = (
(334,360,qs),
(343,323,o),
(343,258,qs),
(343,193,l),
(327,156,ls),
(315,130,o),
(303,117,o),
(279,104,qs),
(247,86,l),
(212,92,ls),
(187,97,o),
(172,104,o),
(154,123,qs),
(130,150,o),
(113,186,qs),
(100,213,o),
(94,242,o),
(91,289,qs),
(89,311,o),
(89,347,qs),
(89,413,o),
(121,457,qs),
(134,475,o),
(152,499,o),
(168,506,qs),
(194,519,o),
(202,519,o),
(227,510,qs),
(301,484,o)
);
},
{
closed = 1;
nodes = (
(147,572,o),
(127,550,o),
(88,505,o),
(85,502,qs),
(63,479,o),
(14,350,o),
(2,280,qs),
(-5,243,o),
(-5,228,qs),
(-5,210,o),
(-1,188,qs),
(10,129,o),
(18,101,qs),
(28,69,o),
(40,50,o),
(64,29,qs),
(98,1,o),
(132,-15,qs),
(167,-31,l),
(208,-23,ls),
(247,-15,o),
(256,-6,qs),
(263,-4,o),
(308,47,qs),
(366,113,l),
(416,267,o),
(429,339,q),
(417,422,ls),
(410,478,o),
(399,516,o),
(386,540,qs),
(375,563,o),
(358,570,o),
(338,584,qs),
(306,605,o),
(273,607,qs),
(239,612,o),
(233,616,qs),
(231,618,o),
(228,618,qs),
(222,618,o),
(194,600,qs),
(181,592,o)
);
}
);
width = 437;
}
);
metricLeft = O;
metricRight = O;
note = uni1ed4;
unicode = 7892;
},
{
glyphname = uni1ed6;
lastChange = "2026-03-25 05:34:17 +0000";
layers = (
{
layerId = m01;
shapes = (
{
closed = 1;
nodes = (
(109,782,qs),
(107,775,o),
(109,772,o),
(117,772,qs),
(129,772,o),
(147,779,qs),
(165,786,l),
(175,774,ls),
(184,762,o),
(206,762,qs),
(224,762,o),
(296,784,o),
(312,794,qs),
(326,802,o),
(326,814,qs),
(326,821,o),
(321,825,o),
(311,825,qs),
(299,825,o),
(275,815,qs),
(242,801,o),
(232,801,o),
(218,816,qs),
(208,828,o),
(195,833,o),
(181,833,qs),
(160,833,o),
(144,821,qs),
(115,800,o)
);
},
{
closed = 1;
nodes = (
(142,708,qs),
(124,699,o),
(94,671,o),
(94,663,qs),
(94,643,o),
(137,632,qs),
(149,628,o),
(161,628,qs),
(177,628,o),
(177,637,qs),
(177,639,o),
(193,659,qs),
(208,677,l),
(247,658,ls),
(311,626,o),
(346,626,qs),
(368,626,o),
(368,639,qs),
(368,650,o),
(327,675,o),
(301,679,qs),
(283,682,o),
(256,709,qs),
(224,742,o),
(197,742,qs),
(192,742,o),
(165,725,o),
(162,721,qs),
(161,719,o)
);
},
{
closed = 1;
nodes = (
(334,360,qs),
(343,323,o),
(343,258,qs),
(343,193,l),
(327,156,ls),
(315,130,o),
(303,117,o),
(279,104,qs),
(247,86,l),
(212,92,ls),
(187,97,o),
(172,104,o),
(154,123,qs),
(130,150,o),
(113,186,qs),
(100,213,o),
(94,242,o),
(91,289,qs),
(89,311,o),
(89,347,qs),
(89,413,o),
(121,457,qs),
(134,475,o),
(152,499,o),
(168,506,qs),
(194,519,o),
(202,519,o),
(227,510,qs),
(301,484,o)
);
},
{
closed = 1;
nodes = (
(147,572,o),
(127,550,o),
(88,505,o),
(85,502,qs),
(63,479,o),
(14,350,o),
(2,280,qs),
(-5,243,o),
(-5,228,qs),
(-5,210,o),
(-1,188,qs),
(10,129,o),
(18,101,qs),
(28,69,o),
(40,50,o),
(64,29,qs),
(98,1,o),
(132,-15,qs),
(167,-31,l),
(208,-23,ls),
(247,-15,o),
(256,-6,qs),
(263,-4,o),
(308,47,qs),
(366,113,l),
(416,267,o),
(429,339,q),
(417,422,ls),
(410,478,o),
(399,516,o),
(386,540,qs),
(375,563,o),
(358,570,o),
(338,584,qs),
(306,605,o),
(273,607,qs),
(239,612,o),
(233,616,qs),
(231,618,o),
(228,618,qs),
(222,618,o),
(194,600,qs),
(181,592,o)
);
}
);
width = 437;
}
);
metricLeft = O;
metricRight = O;
note = uni1ed6;
unicode = 7894;
},
{
glyphname = uni1ed8;
lastChange = "2026-03-25 05:34:17 +0000";
layers = (
{
layerId = m01;
shapes = (
{
closed = 1;
nodes = (
(271,-63,l),
(192,-63,l),
(192,-124,l),
(271,-124,l)
);
},
{
closed = 1;
nodes = (
(142,708,qs),
(124,699,o),
(94,671,o),
(94,663,qs),
(94,643,o),
(137,632,qs),
(149,628,o),
(161,628,qs),
(177,628,o),
(177,637,qs),
(177,639,o),
(193,659,qs),
(208,677,l),
(247,658,ls),
(311,626,o),
(346,626,qs),
(368,626,o),
(368,639,qs),
(368,650,o),
(327,675,o),
(301,679,qs),
(283,682,o),
(256,709,qs),
(224,742,o),
(197,742,qs),
(192,742,o),
(165,725,o),
(162,721,qs),
(161,719,o)
);
},
{
closed = 1;
nodes = (
(334,360,qs),
(343,323,o),
(343,258,qs),
(343,193,l),
(327,156,ls),
(315,130,o),
(303,117,o),
(279,104,qs),
(247,86,l),
(212,92,ls),
(187,97,o),
(172,104,o),
(154,123,qs),
(130,150,o),
(113,186,qs),
(100,213,o),
(94,242,o),
(91,289,qs),
(89,311,o),
(89,347,qs),
(89,413,o),
(121,457,qs),
(134,475,o),
(152,499,o),
(168,506,qs),
(194,519,o),
(202,519,o),
(227,510,qs),
(301,484,o)
);
},
{
closed = 1;
nodes = (
(147,572,o),
(127,550,o),
(88,505,o),
(85,502,qs),
(63,479,o),
(14,350,o),
(2,280,qs),
(-5,243,o),
(-5,228,qs),
(-5,210,o),
(-1,188,qs),
(10,129,o),
(18,101,qs),
(28,69,o),
(40,50,o),
(64,29,qs),
(98,1,o),
(132,-15,qs),
(167,-31,l),
(208,-23,ls),
(247,-15,o),
(256,-6,qs),
(263,-4,o),
(308,47,qs),
(366,113,l),
(416,267,o),
(429,339,q),
(417,422,ls),
(410,478,o),
(399,516,o),
(386,540,qs),
(375,563,o),
(358,570,o),
(338,584,qs),
(306,605,o),
(273,607,qs),
(239,612,o),
(233,616,qs),
(231,618,o),
(228,618,qs),
(222,618,o),
(194,600,qs),
(181,592,o)
);
}
);
width = 437;
}
);
metricLeft = O;
metricRight = O;
note = uni1ed8;
unicode = 7896;
},
{
glyphname = uni1eda;
lastChange = "2026-03-25 05:34:17 +0000";
layers = (
{
layerId = m01;
shapes = (
{
closed = 1;
nodes = (
(128,682,qs),
(99,668,l),
(93,644,ls),
(88,619,o),
(90,617,q),
(91,617,ls),
(99,617,o),
(189,649,o),
(226,665,qs),
(273,685,o),
(273,696,qs),
(273,702,o),
(264,709,qs),
(255,715,o),
(243,715,qs),
(226,715,o),
(192,705,qs),
(163,697,o)
);
},
{
closed = 1;
nodes = (
(343,193,l),
(327,156,l),
(319,139,o),
(313,128,o),
(309,124,c),
(305,119,o),
(295,113,o),
(279,104,c),
(247,86,l),
(212,92,l),
(195,95,o),
(185,98,o),
(180,101,c),
(175,103,o),
(166,110,o),
(154,123,c),
(138,141,o),
(124,162,o),
(113,186,c),
(104,204,o),
(99,218,o),
(97,228,c),
(95,237,o),
(93,258,o),
(91,289,c),
(90,304,o),
(89,323,o),
(89,347,c),
(89,391,o),
(100,428,o),
(121,457,c),
(130,469,o),
(137,479,o),
(143,487,c),
(149,495,o),
(157,501,o),
(168,506,c),
(185,515,o),
(195,519,o),
(198,519,c),
(201,519,o),
(210,516,o),
(227,510,c),
(276,493,o),
(312,443,o),
(334,360,c),
(340,335,o),
(343,301,o),
(343,258,c)
);
},
{
closed = 1;
nodes = (
(417,422,l),
(412,459,o),
(408,484,o),
(405,497,c),
(401,510,o),
(395,524,o),
(386,540,c),
(382,548,o),
(378,555,o),
(375,559,c),
(411,615,l),
(398,685,l),
(398,685,l),
(399,685,l),
(308,701,l),
(333,625,l),
(322,593,l),
(306,601,o),
(290,606,o),
(273,607,c),
(250,610,o),
(237,613,o),
(233,616,c),
(232,617,o),
(230,618,o),
(228,618,c),
(224,618,o),
(213,612,o),
(194,600,c),
(185,595,o),
(175,589,o),
(164,582,c),
(153,575,o),
(144,568,o),
(137,561,c),
(130,554,o),
(121,543,o),
(108,528,c),
(95,513,o),
(87,504,o),
(85,502,c),
(70,487,o),
(55,458,o),
(39,415,c),
(22,372,o),
(10,327,o),
(2,280,c),
(-3,255,o),
(-5,238,o),
(-5,228,c),
(-5,216,o),
(-4,203,o),
(-1,188,c),
(6,149,o),
(13,120,o),
(18,101,c),
(25,80,o),
(30,66,o),
(34,60,c),
(38,53,o),
(48,43,o),
(64,29,c),
(87,10,o),
(109,-4,o),
(132,-15,c),
(167,-31,l),
(208,-23,l),
(234,-18,o),
(250,-12,o),
(256,-6,c),
(261,-5,o),
(278,13,o),
(308,47,c),
(366,113,l),
(399,216,o),
(420,291,o),
(429,339,c)
);
}
);
width = 417;
}
);
metricLeft = O;
note = uni1eda;
unicode = 7898;
},
{
glyphname = uni1edc;
lastChange = "2026-03-25 05:34:17 +0000";
layers = (
{
layerId = m01;
shapes = (
{
closed = 1;
nodes = (
(144,699,o),
(156,695,qs),
(180,687,o),
(202,676,qs),
(231,661,o),
(249,661,qs),
(267,661,l),
(267,683,ls),
(267,699,o),
(262,707,o),
(251,715,qs),
(207,744,o),
(162,744,qs),
(140,744,l),
(140,722,ls),
(140,706,o)
);
},
{
closed = 1;
nodes = (
(343,193,l),
(327,156,l),
(319,139,o),
(313,128,o),
(309,124,c),
(305,119,o),
(295,113,o),
(279,104,c),
(247,86,l),
(212,92,l),
(195,95,o),
(185,98,o),
(180,101,c),
(175,103,o),
(166,110,o),
(154,123,c),
(138,141,o),
(124,162,o),
(113,186,c),
(104,204,o),
(99,218,o),
(97,228,c),
(95,237,o),
(93,258,o),
(91,289,c),
(90,304,o),
(89,323,o),
(89,347,c),
(89,391,o),
(100,428,o),
(121,457,c),
(130,469,o),
(137,479,o),
(143,487,c),
(149,495,o),
(157,501,o),
(168,506,c),
(185,515,o),
(195,519,o),
(198,519,c),
(201,519,o),
(210,516,o),
(227,510,c),
(276,493,o),
(312,443,o),
(334,360,c),
(340,335,o),
(343,301,o),
(343,258,c)
);
},
{
closed = 1;
nodes = (
(417,422,l),
(412,459,o),
(408,484,o),
(405,497,c),
(401,510,o),
(395,524,o),
(386,540,c),
(382,548,o),
(378,555,o),
(375,559,c),
(411,615,l),
(398,685,l),
(398,685,l),
(399,685,l),
(308,701,l),
(333,625,l),
(322,593,l),
(306,601,o),
(290,606,o),
(273,607,c),
(250,610,o),
(237,613,o),
(233,616,c),
(232,617,o),
(230,618,o),
(228,618,c),
(224,618,o),
(213,612,o),
(194,600,c),
(185,595,o),
(175,589,o),
(164,582,c),
(153,575,o),
(144,568,o),
(137,561,c),
(130,554,o),
(121,543,o),
(108,528,c),
(95,513,o),
(87,504,o),
(85,502,c),
(70,487,o),
(55,458,o),
(39,415,c),
(22,372,o),
(10,327,o),
(2,280,c),
(-3,255,o),
(-5,238,o),
(-5,228,c),
(-5,216,o),
(-4,203,o),
(-1,188,c),
(6,149,o),
(13,120,o),
(18,101,c),
(25,80,o),
(30,66,o),
(34,60,c),
(38,53,o),
(48,43,o),
(64,29,c),
(87,10,o),
(109,-4,o),
(132,-15,c),
(167,-31,l),
(208,-23,l),
(234,-18,o),
(250,-12,o),
(256,-6,c),
(261,-5,o),
(278,13,o),
(308,47,c),
(366,113,l),
(399,216,o),
(420,291,o),
(429,339,c)
);
}
);
width = 417;
}
);
metricLeft = O;
note = uni1edc;
unicode = 7900;
},
{
glyphname = uni1ede;
lastChange = "2026-03-25 05:34:17 +0000";
layers = (
{
layerId = m01;
shapes = (
{
closed = 1;
nodes = (
(202,673,qs),
(210,659,l),
(241,685,ls),
(273,712,o),
(292,741,o),
(292,764,qs),
(292,788,o),
(287,800,qs),
(283,808,o),
(274,812,o),
(255,812,qs),
(227,812,o),
(206,805,qs),
(186,798,o),
(186,792,qs),
(186,788,o),
(187,785,q),
(190,764,o),
(190,757,qs),
(190,742,o),
(197,742,qs),
(202,742,o),
(205,752,qs),
(207,761,o),
(218,767,q),
(234,773,o),
(256,773,qs),
(273,773,o),
(273,769,qs),
(273,767,o),
(194,697,o),
(194,694,qs),
(194,689,o)
);
},
{
closed = 1;
nodes = (
(343,193,l),
(327,156,l),
(319,139,o),
(313,128,o),
(309,124,c),
(305,119,o),
(295,113,o),
(279,104,c),
(247,86,l),
(212,92,l),
(195,95,o),
(185,98,o),
(180,101,c),
(175,103,o),
(166,110,o),
(154,123,c),
(138,141,o),
(124,162,o),
(113,186,c),
(104,204,o),
(99,218,o),
(97,228,c),
(95,237,o),
(93,258,o),
(91,289,c),
(90,304,o),
(89,323,o),
(89,347,c),
(89,391,o),
(100,428,o),
(121,457,c),
(130,469,o),
(137,479,o),
(143,487,c),
(149,495,o),
(157,501,o),
(168,506,c),
(185,515,o),
(195,519,o),
(198,519,c),
(201,519,o),
(210,516,o),
(227,510,c),
(276,493,o),
(312,443,o),
(334,360,c),
(340,335,o),
(343,301,o),
(343,258,c)
);
},
{
closed = 1;
nodes = (
(417,422,l),
(412,459,o),
(408,484,o),
(405,497,c),
(401,510,o),
(395,524,o),
(386,540,c),
(382,548,o),
(378,555,o),
(375,559,c),
(411,615,l),
(398,685,l),
(398,685,l),
(399,685,l),
(308,701,l),
(333,625,l),
(322,593,l),
(306,601,o),
(290,606,o),
(273,607,c),
(250,610,o),
(237,613,o),
(233,616,c),
(232,617,o),
(230,618,o),
(228,618,c),
(224,618,o),
(213,612,o),
(194,600,c),
(185,595,o),
(175,589,o),
(164,582,c),
(153,575,o),
(144,568,o),
(137,561,c),
(130,554,o),
(121,543,o),
(108,528,c),
(95,513,o),
(87,504,o),
(85,502,c),
(70,487,o),
(55,458,o),
(39,415,c),
(22,372,o),
(10,327,o),
(2,280,c),
(-3,255,o),
(-5,238,o),
(-5,228,c),
(-5,216,o),
(-4,203,o),
(-1,188,c),
(6,149,o),
(13,120,o),
(18,101,c),
(25,80,o),
(30,66,o),
(34,60,c),
(38,53,o),
(48,43,o),
(64,29,c),
(87,10,o),
(109,-4,o),
(132,-15,c),
(167,-31,l),
(208,-23,l),
(234,-18,o),
(250,-12,o),
(256,-6,c),
(261,-5,o),
(278,13,o),
(308,47,c),
(366,113,l),
(399,216,o),
(420,291,o),
(429,339,c)
);
}
);
width = 417;
}
);
metricLeft = O;
note = uni1ede;
unicode = 7902;
},
{
glyphname = uni1ee0;
lastChange = "2026-03-25 05:34:17 +0000";
layers = (
{
layerId = m01;
shapes = (
{
closed = 1;
nodes = (
(230,756,qs),
(214,775,o),
(195,775,qs),
(183,775,o),
(151,759,o),
(122,727,o),
(122,718,qs),
(122,712,o),
(127,710,o),
(138,712,qs),
(156,716,o),
(166,721,qs),
(174,725,o),
(181,723,o),
(189,714,qs),
(201,701,o),
(218,701,qs),
(234,701,o),
(264,710,qs),
(341,732,o),
(341,748,qs),
(341,765,o),
(326,765,qs),
(315,765,o),
(259,741,o),
(250,741,qs),
(243,741,o)
);
},
{
closed = 1;
nodes = (
(343,193,l),
(327,156,l),
(319,139,o),
(313,128,o),
(309,124,c),
(305,119,o),
(295,113,o),
(279,104,c),
(247,86,l),
(212,92,l),
(195,95,o),
(185,98,o),
(180,101,c),
(175,103,o),
(166,110,o),
(154,123,c),
(138,141,o),
(124,162,o),
(113,186,c),
(104,204,o),
(99,218,o),
(97,228,c),
(95,237,o),
(93,258,o),
(91,289,c),
(90,304,o),
(89,323,o),
(89,347,c),
(89,391,o),
(100,428,o),
(121,457,c),
(130,469,o),
(137,479,o),
(143,487,c),
(149,495,o),
(157,501,o),
(168,506,c),
(185,515,o),
(195,519,o),
(198,519,c),
(201,519,o),
(210,516,o),
(227,510,c),
(276,493,o),
(312,443,o),
(334,360,c),
(340,335,o),
(343,301,o),
(343,258,c)
);
},
{
closed = 1;
nodes = (
(417,422,l),
(412,459,o),
(408,484,o),
(405,497,c),
(401,510,o),
(395,524,o),
(386,540,c),
(382,548,o),
(378,555,o),
(375,559,c),
(411,615,l),
(398,685,l),
(398,685,l),
(399,685,l),
(308,701,l),
(333,625,l),
(322,593,l),
(306,601,o),
(290,606,o),
(273,607,c),
(250,610,o),
(237,613,o),
(233,616,c),
(232,617,o),
(230,618,o),
(228,618,c),
(224,618,o),
(213,612,o),
(194,600,c),
(185,595,o),
(175,589,o),
(164,582,c),
(153,575,o),
(144,568,o),
(137,561,c),
(130,554,o),
(121,543,o),
(108,528,c),
(95,513,o),
(87,504,o),
(85,502,c),
(70,487,o),
(55,458,o),
(39,415,c),
(22,372,o),
(10,327,o),
(2,280,c),
(-3,255,o),
(-5,238,o),
(-5,228,c),
(-5,216,o),
(-4,203,o),
(-1,188,c),
(6,149,o),
(13,120,o),
(18,101,c),
(25,80,o),
(30,66,o),
(34,60,c),
(38,53,o),
(48,43,o),
(64,29,c),
(87,10,o),
(109,-4,o),
(132,-15,c),
(167,-31,l),
(208,-23,l),
(234,-18,o),
(250,-12,o),
(256,-6,c),
(261,-5,o),
(278,13,o),
(308,47,c),
(366,113,l),
(399,216,o),
(420,291,o),
(429,339,c)
);
}
);
width = 417;
}
);
metricLeft = O;
note = uni1ee0;
unicode = 7904;
},
{
glyphname = uni1ee2;
lastChange = "2026-03-25 05:34:17 +0000";
layers = (
{
layerId = m01;
shapes = (
{
closed = 1;
nodes = (
(178,-135,l),
(204,-132,ls),
(210,-132,o),
(227,-130,o),
(239,-129,o),
(241,-129,qs),
(249,-129,o),
(252,-120,o),
(252,-99,qs),
(252,-68,l),
(233,-69,ls),
(216,-69,o),
(196,-71,qs),
(178,-73,l)
);
},
{
closed = 1;
nodes = (
(343,193,l),
(327,156,l),
(319,139,o),
(313,128,o),
(309,124,c),
(305,119,o),
(295,113,o),
(279,104,c),
(247,86,l),
(212,92,l),
(195,95,o),
(185,98,o),
(180,101,c),
(175,103,o),
(166,110,o),
(154,123,c),
(138,141,o),
(124,162,o),
(113,186,c),
(104,204,o),
(99,218,o),
(97,228,c),
(95,237,o),
(93,258,o),
(91,289,c),
(90,304,o),
(89,323,o),
(89,347,c),
(89,391,o),
(100,428,o),
(121,457,c),
(130,469,o),
(137,479,o),
(143,487,c),
(149,495,o),
(157,501,o),
(168,506,c),
(185,515,o),
(195,519,o),
(198,519,c),
(201,519,o),
(210,516,o),
(227,510,c),
(276,493,o),
(312,443,o),
(334,360,c),
(340,335,o),
(343,301,o),
(343,258,c)
);
},
{
closed = 1;
nodes = (
(417,422,l),
(412,459,o),
(408,484,o),
(405,497,c),
(401,510,o),
(395,524,o),
(386,540,c),
(382,548,o),
(378,555,o),
(375,559,c),
(411,615,l),
(398,685,l),
(398,685,l),
(399,685,l),
(308,701,l),
(333,625,l),
(322,593,l),
(306,601,o),
(290,606,o),
(273,607,c),
(250,610,o),
(237,613,o),
(233,616,c),
(232,617,o),
(230,618,o),
(228,618,c),
(224,618,o),
(213,612,o),
(194,600,c),
(185,595,o),
(175,589,o),
(164,582,c),
(153,575,o),
(144,568,o),
(137,561,c),
(130,554,o),
(121,543,o),
(108,528,c),
(95,513,o),
(87,504,o),
(85,502,c),
(70,487,o),
(55,458,o),
(39,415,c),
(22,372,o),
(10,327,o),
(2,280,c),
(-3,255,o),
(-5,238,o),
(-5,228,c),
(-5,216,o),
(-4,203,o),
(-1,188,c),
(6,149,o),
(13,120,o),
(18,101,c),
(25,80,o),
(30,66,o),
(34,60,c),
(38,53,o),
(48,43,o),
(64,29,c),
(87,10,o),
(109,-4,o),
(132,-15,c),
(167,-31,l),
(208,-23,l),
(234,-18,o),
(250,-12,o),
(256,-6,c),
(261,-5,o),
(278,13,o),
(308,47,c),
(366,113,l),
(399,216,o),
(420,291,o),
(429,339,c)
);
}
);
width = 417;
}
);
metricLeft = O;
note = uni1ee2;
unicode = 7906;
},
{
glyphname = uni1ee4;
lastChange = "2026-03-25 05:34:17 +0000";
layers = (
{
layerId = m01;
shapes = (
{
closed = 1;
nodes = (
(251,-108,o),
(261,-106,q),
(269,-103,o),
(269,-94,qs),
(269,-93,o),
(265,-61,qs),
(262,-47,l),
(193,-47,l),
(193,-108,l),
(223,-108,ls)
);
},
{
closed = 1;
nodes = (
(84,538,l),
(29,501,l),
(29,427,l),
(10,353,l),
(10,279,l),
(29,188,l),
(47,114,l),
(66,58,l),
(103,21,l),
(176,3,l),
(249,3,l),
(305,21,l),
(342,40,l),
(342,95,l),
(397,21,l),
(452,40,l),
(452,132,l),
(434,206,l),
(416,279,l),
(416,335,l),
(416,409,l),
(397,483,l),
(379,520,l),
(379,520,l),
(323,520,l),
(268,483,l),
(268,409,l),
(268,335,l),
(268,243,l),
(249,169,l),
(213,132,l),
(176,151,l),
(157,225,l),
(157,298,l),
(157,390,l),
(157,464,l),
(140,538,l)
);
}
);
width = 487;
}
);
metricLeft = U;
metricRight = U;
note = uni1ee4;
unicode = 7908;
},
{
glyphname = uni1ee6;
lastChange = "2026-03-25 05:34:17 +0000";
layers = (
{
layerId = m01;
shapes = (
{
closed = 1;
nodes = (
(191,642,qs),
(189,640,o),
(189,628,qs),
(189,585,o),
(197,585,qs),
(201,585,o),
(205,596,qs),
(211,613,o),
(248,618,qs),
(253,619,o),
(260,619,qs),
(270,619,o),
(270,615,qs),
(270,607,o),
(233,576,qs),
(194,544,o),
(194,542,qs),
(194,537,o),
(208,507,o),
(210,507,qs),
(214,507,o),
(240,528,qs),
(296,574,o),
(296,610,qs),
(296,622,o),
(291,635,qs),
(282,658,o),
(263,658,qs),
(250,658,o),
(223,652,qs),
(196,647,o)
);
},
{
closed = 1;
nodes = (
(84,538,l),
(29,501,l),
(29,427,l),
(10,353,l),
(10,279,l),
(29,188,l),
(47,114,l),
(66,58,l),
(103,21,l),
(176,3,l),
(249,3,l),
(305,21,l),
(342,40,l),
(342,95,l),
(397,21,l),
(452,40,l),
(452,132,l),
(434,206,l),
(416,279,l),
(416,335,l),
(416,409,l),
(397,483,l),
(379,520,l),
(379,520,l),
(323,520,l),
(268,483,l),
(268,409,l),
(268,335,l),
(268,243,l),
(249,169,l),
(213,132,l),
(176,151,l),
(157,225,l),
(157,298,l),
(157,390,l),
(157,464,l),
(140,538,l)
);
}
);
width = 487;
}
);
metricLeft = U;
metricRight = U;
note = uni1ee6;
unicode = 7910;
},
{
glyphname = uni1ee8;
lastChange = "2026-03-25 05:34:17 +0000";
layers = (
{
layerId = m01;
shapes = (
{
closed = 1;
nodes = (
(146,650,qs),
(133,630,o),
(133,608,qs),
(133,603,o),
(134,602,q),
(135,602,ls),
(148,602,o),
(310,664,o),
(314,671,q),
(315,672,o),
(315,676,qs),
(315,689,o),
(300,696,qs),
(290,701,o),
(285,701,qs),
(279,701,o),
(246,692,qs),
(161,670,o)
);
},
{
closed = 1;
nodes = (
(419,659,l),
(321,641,l),
(365,576,l),
(343,530,l),
(317,527,l),
(262,502,l),
(268,420,l),
(267,338,l),
(263,256,l),
(244,177,l),
(213,133,l),
(164,150,l),
(155,229,l),
(149,314,l),
(155,399,l),
(150,484,l),
(132,545,l),
(71,545,l),
(14,512,l),
(12,435,l),
(10,359,l),
(11,282,l),
(22,206,l),
(31,129,l),
(55,57,l),
(100,22,l),
(170,0,l),
(240,17,l),
(295,27,l),
(332,53,l),
(344,108,l),
(389,35,l),
(449,54,l),
(446,133,l),
(429,208,l),
(420,285,l),
(415,356,l),
(414,426,l),
(404,479,l),
(454,547,l),
(448,611,l)
);
}
);
width = 489;
}
);
metricLeft = U;
metricRight = U;
note = uni1ee8;
unicode = 7912;
},
{
glyphname = uni1eea;
lastChange = "2026-03-25 05:34:17 +0000";
layers = (
{
layerId = m01;
shapes = (
{
closed = 1;
nodes = (
(148,619,o),
(158,617,qs),
(166,616,o),
(202,599,qs),
(234,584,o),
(252,584,qs),
(271,584,l),
(271,606,ls),
(271,621,o),
(266,630,o),
(252,638,qs),
(203,667,o),
(163,667,qs),
(145,667,l),
(145,643,ls),
(145,626,o)
);
},
{
closed = 1;
nodes = (
(419,659,l),
(321,641,l),
(365,576,l),
(343,530,l),
(317,527,l),
(262,502,l),
(268,420,l),
(267,338,l),
(263,256,l),
(244,177,l),
(213,133,l),
(164,150,l),
(155,229,l),
(149,314,l),
(155,399,l),
(150,484,l),
(132,545,l),
(71,545,l),
(14,512,l),
(12,435,l),
(10,359,l),
(11,282,l),
(22,206,l),
(31,129,l),
(55,57,l),
(100,22,l),
(170,0,l),
(240,17,l),
(295,27,l),
(332,53,l),
(344,108,l),
(389,35,l),
(449,54,l),
(446,133,l),
(429,208,l),
(420,285,l),
(415,356,l),
(414,426,l),
(404,479,l),
(454,547,l),
(448,611,l)
);
}
);
width = 489;
}
);
metricLeft = U;
metricRight = U;
note = uni1eea;
unicode = 7914;
},
{
glyphname = uni1eec;
lastChange = "2026-03-25 05:34:17 +0000";
layers = (
{
layerId = m01;
shapes = (
{
closed = 1;
nodes = (
(177,692,o),
(177,676,qs),
(177,638,o),
(185,638,qs),
(186,638,o),
(188,640,qs),
(194,646,o),
(194,652,qs),
(194,659,o),
(230,670,o),
(246,670,qs),
(260,670,o),
(260,660,o),
(225,632,qs),
(222,629,o),
(215,624,qs),
(183,598,o),
(183,590,qs),
(183,585,o),
(188,575,qs),
(195,557,o),
(197,557,qs),
(201,557,o),
(260,608,o),
(267,617,qs),
(282,638,o),
(282,659,qs),
(282,673,o),
(278,685,qs),
(271,708,l),
(247,709,ls),
(225,709,o),
(196,701,qs),
(182,697,o)
);
},
{
closed = 1;
nodes = (
(419,659,l),
(321,641,l),
(365,576,l),
(343,530,l),
(317,527,l),
(262,502,l),
(268,420,l),
(267,338,l),
(263,256,l),
(244,177,l),
(213,133,l),
(164,150,l),
(155,229,l),
(149,314,l),
(155,399,l),
(150,484,l),
(132,545,l),
(71,545,l),
(14,512,l),
(12,435,l),
(10,359,l),
(11,282,l),
(22,206,l),
(31,129,l),
(55,57,l),
(100,22,l),
(170,0,l),
(240,17,l),
(295,27,l),
(332,53,l),
(344,108,l),
(389,35,l),
(449,54,l),
(446,133,l),
(429,208,l),
(420,285,l),
(415,356,l),
(414,426,l),
(404,479,l),
(454,547,l),
(448,611,l)
);
}
);
width = 489;
}
);
metricLeft = U;
metricRight = U;
note = uni1eec;
unicode = 7916;
},
{
glyphname = uni1eee;
lastChange = "2026-03-25 05:34:17 +0000";
layers = (
{
layerId = m01;
shapes = (
{
closed = 1;
nodes = (
(85,615,qs),
(85,607,o),
(97,607,qs),
(108,607,o),
(123,614,qs),
(135,619,o),
(137,619,qs),
(140,619,o),
(151,607,qs),
(163,595,o),
(173,595,qs),
(181,595,o),
(187,596,qs),
(240,603,o),
(285,626,qs),
(299,634,o),
(299,646,qs),
(299,660,o),
(288,660,qs),
(280,660,o),
(244,646,qs),
(211,633,o),
(210,633,q),
(191,651,ls),
(174,668,o),
(156,668,qs),
(140,668,o),
(120,655,qs),
(85,631,o)
);
},
{
closed = 1;
nodes = (
(419,659,l),
(321,641,l),
(365,576,l),
(343,530,l),
(317,527,l),
(262,502,l),
(268,420,l),
(267,338,l),
(263,256,l),
(244,177,l),
(213,133,l),
(164,150,l),
(155,229,l),
(149,314,l),
(155,399,l),
(150,484,l),
(132,545,l),
(71,545,l),
(14,512,l),
(12,435,l),
(10,359,l),
(11,282,l),
(22,206,l),
(31,129,l),
(55,57,l),
(100,22,l),
(170,0,l),
(240,17,l),
(295,27,l),
(332,53,l),
(344,108,l),
(389,35,l),
(449,54,l),
(446,133,l),
(429,208,l),
(420,285,l),
(415,356,l),
(414,426,l),
(404,479,l),
(454,547,l),
(448,611,l)
);
}
);
width = 489;
}
);
metricLeft = U;
metricRight = U;
note = uni1eee;
unicode = 7918;
},
{
glyphname = uni1ef0;
lastChange = "2026-03-25 05:34:17 +0000";
layers = (
{
layerId = m01;
shapes = (
{
closed = 1;
nodes = (
(245,-93,ls),
(271,-93,o),
(284,-87,o),
(284,-74,qs),
(284,-72,o),
(283,-64,o),
(283,-61,qs),
(281,-32,l),
(208,-32,l),
(208,-93,l),
(237,-93,l)
);
},
{
closed = 1;
nodes = (
(419,659,l),
(321,641,l),
(365,576,l),
(343,530,l),
(317,527,l),
(262,502,l),
(268,420,l),
(267,338,l),
(263,256,l),
(244,177,l),
(213,133,l),
(164,150,l),
(155,229,l),
(149,314,l),
(155,399,l),
(150,484,l),
(132,545,l),
(71,545,l),
(14,512,l),
(12,435,l),
(10,359,l),
(11,282,l),
(22,206,l),
(31,129,l),
(55,57,l),
(100,22,l),
(170,0,l),
(240,17,l),
(295,27,l),
(332,53,l),
(344,108,l),
(389,35,l),
(449,54,l),
(446,133,l),
(429,208,l),
(420,285,l),
(415,356,l),
(414,426,l),
(404,479,l),
(454,547,l),
(448,611,l)
);
}
);
width = 489;
}
);
metricLeft = U;
metricRight = U;
note = uni1ef0;
unicode = 7920;
},
{
glyphname = uni1ef4;
lastChange = "2026-03-25 05:34:17 +0000";
layers = (
{
layerId = m01;
shapes = (
{
closed = 1;
nodes = (
(251,439,o),
(239,416,qs),
(222,384,o),
(218,384,qs),
(216,384,o),
(212,386,qs),
(201,392,o),
(133,462,o),
(114,487,qs),
(71,543,o),
(37,549,qs),
(33,550,o),
(28,550,qs),
(18,550,o),
(-9,528,qs),
(-40,502,o),
(-40,500,q),
(-19,469,ls),
(-5,450,o),
(12,422,qs),
(23,404,o),
(58,367,qs),
(99,322,o),
(123,292,qs),
(152,254,o),
(152,237,qs),
(152,221,o),
(136,198,qs),
(112,162,o),
(86,81,qs),
(77,50,l),
(106,10,ls),
(130,-23,o),
(141,-34,qs),
(142,-35,o),
(143,-35,qs),
(149,-35,o),
(173,17,qs),
(238,161,o),
(253,186,qs),
(315,290,o),
(357,398,qs),
(385,470,o),
(385,504,o),
(361,538,qs),
(335,577,o),
(331,577,o),
(313,544,qs),
(301,521,o)
);
},
{
closed = 1;
nodes = (
(329,115,l),
(250,115,l),
(250,54,l),
(329,54,l)
);
}
);
width = 400;
}
);
metricLeft = Y;
metricRight = Y;
note = uni1ef4;
unicode = 7924;
},
{
glyphname = uni1ef6;
lastChange = "2026-03-25 05:34:17 +0000";
layers = (
{
layerId = m01;
shapes = (
{
closed = 1;
nodes = (
(152,663,q),
(151,662,o),
(151,650,qs),
(151,623,o),
(154,611,qs),
(155,607,o),
(158,603,o),
(162,604,o),
(165,610,o),
(166,614,qs),
(170,633,o),
(207,637,qs),
(212,638,o),
(219,638,qs),
(229,638,o),
(229,634,qs),
(229,625,o),
(166,572,qs),
(154,561,l),
(161,543,ls),
(170,525,o),
(172,525,qs),
(178,525,o),
(226,569,o),
(236,583,qs),
(252,606,o),
(252,629,qs),
(252,645,o),
(245,659,qs),
(236,678,o),
(218,678,qs),
(205,678,o),
(181,672,qs),
(162,668,o)
);
},
{
closed = 1;
nodes = (
(273,479,qs),
(251,442,o),
(238,417,qs),
(223,388,o),
(218,388,qs),
(216,388,o),
(212,390,qs),
(201,396,o),
(133,466,o),
(114,491,qs),
(71,547,o),
(37,553,qs),
(33,554,o),
(28,554,qs),
(18,554,o),
(-9,532,qs),
(-40,506,o),
(-40,504,q),
(-19,473,ls),
(-2,450,o),
(12,427,qs),
(23,409,o),
(58,372,qs),
(91,336,o),
(123,296,qs),
(152,258,o),
(152,241,qs),
(152,226,o),
(136,203,qs),
(112,168,o),
(86,85,qs),
(77,54,l),
(106,15,ls),
(130,-18,o),
(141,-29,qs),
(142,-30,o),
(143,-30,qs),
(149,-30,o),
(173,22,qs),
(238,166,o),
(253,191,qs),
(321,308,o),
(343,370,qs),
(377,462,o),
(380,483,qs),
(381,488,o),
(381,496,qs),
(381,508,o),
(357,543,qs),
(331,582,o),
(329,582,qs),
(328,582,o),
(292,516,o),
(292,514,qs),
(292,511,o)
);
}
);
width = 396;
}
);
metricLeft = Y;
metricRight = Y;
note = uni1ef6;
unicode = 7926;
},
{
glyphname = uni1ef8;
lastChange = "2026-03-25 05:34:17 +0000";
layers = (
{
layerId = m01;
shapes = (
{
closed = 1;
nodes = (
(82,576,qs),
(82,567,o),
(96,570,qs),
(107,573,o),
(123,580,qs),
(132,585,o),
(139,583,o),
(148,573,qs),
(160,559,o),
(178,559,qs),
(193,559,o),
(237,572,qs),
(299,593,o),
(299,611,qs),
(299,613,l),
(298,615,ls),
(295,624,o),
(277,624,o),
(245,612,qs),
(212,599,o),
(208,599,qs),
(202,599,o),
(187,616,qs),
(171,634,o),
(154,634,qs),
(142,634,o),
(121,621,qs),
(82,597,o)
);
},
{
closed = 1;
nodes = (
(251,430,o),
(239,407,qs),
(221,372,o),
(219,372,qs),
(213,372,o),
(144,441,o),
(122,468,qs),
(68,535,o),
(37,539,q),
(34,540,o),
(28,540,qs),
(18,540,o),
(-10,517,qs),
(-40,494,o),
(-40,486,o),
(-23,464,qs),
(-21,461,o),
(36,380,o),
(53,364,qs),
(71,348,o),
(113,294,qs),
(152,243,o),
(152,226,qs),
(152,213,o),
(133,183,qs),
(119,162,o),
(80,55,o),
(80,40,qs),
(80,33,o),
(142,-47,o),
(144,-47,qs),
(150,-47,o),
(210,90,qs),
(233,146,o),
(248,169,qs),
(289,237,o),
(378,433,o),
(384,468,qs),
(385,472,o),
(385,479,qs),
(385,490,o),
(361,528,qs),
(347,550,o),
(333,569,q),
(314,535,ls),
(302,512,o)
);
}
);
width = 400;
}
);
metricLeft = Y;
metricRight = Y;
note = uni1ef8;
unicode = 7928;
},
{
glyphname = L_E;
lastChange = "2026-03-25 05:34:17 +0000";
layers = (
{
layerId = m01;
shapes = (
{
pos = (0,-78);
ref = L;
scale = (1,1.1634);
},
{
closed = 1;
nodes = (
(713,635,l),
(657,616,l),
(600,598,l),
(582,598,l),
(532,576,l),
(495,501,l),
(509,452,l),
(509,395,l),
(496,336,l),
(496,242,l),
(488,148,l),
(469,73,l),
(488,36,l),
(600,36,l),
(657,55,l),
(713,73,l),
(750,73,l),
(750,148,l),
(769,167,l),
(769,242,l),
(675,223,l),
(600,204,l),
(563,186,l),
(563,261,l),
(619,261,l),
(694,279,l),
(694,392,l),
(582,373,l),
(582,392,l),
(582,467,l),
(657,485,l),
(750,504,l),
(788,616,l)
);
}
);
width = 788;
}
);
metricLeft = L;
metricRight = E;
},
{
glyphname = aacute;
lastChange = "2026-03-25 05:34:17 +0000";
layers = (
{
layerId = m01;
shapes = (
{
closed = 1;
nodes = (
(189,439,qs),
(168,429,o),
(164,413,qs),
(159,398,o),
(159,386,qs),
(159,375,o),
(172,379,qs),
(186,382,o),
(339,444,o),
(341,447,qs),
(342,448,o),
(342,452,qs),
(342,465,o),
(327,472,qs),
(319,476,o),
(310,476,qs),
(300,476,o),
(284,472,qs),
(228,458,o)
);
},
{
closed = 1;
nodes = (
(209,250,o),
(183,191,qs),
(167,155,o),
(150,143,qs),
(126,125,o),
(123,125,qs),
(121,125,o),
(121,130,qs),
(121,138,o),
(122,145,qs),
(128,188,o),
(165,251,qs),
(182,280,o),
(195,280,qs),
(206,280,o),
(208,278,q),
(209,275,l)
);
},
{
closed = 1;
nodes = (
(162,326,qs),
(128,316,o),
(100,293,qs),
(64,262,o),
(15,156,o),
(12,99,qs),
(10,64,l),
(29,54,o),
(67,36,q),
(101,46,ls),
(129,53,o),
(168,75,qs),
(176,79,o),
(193,89,o),
(203,96,o),
(205,96,o),
(207,93,o),
(210,86,o),
(212,77,o),
(214,72,q),
(222,41,o),
(235,25,o),
(260,12,qs),
(292,-4,l),
(325,10,ls),
(343,18,o),
(359,25,q),
(351,62,ls),
(337,117,o),
(337,183,qs),
(337,236,o),
(345,275,qs),
(348,290,l),
(295,288,ls),
(290,288,o),
(273,287,o),
(270,287,qs),
(242,287,o),
(242,293,qs),
(242,297,o),
(255,307,qs),
(269,317,o),
(269,320,qs),
(269,322,o),
(237,329,o),
(204,335,o),
(203,335,qs),
(190,335,o)
);
}
);
width = 369;
}
);
note = aacute;
unicode = 225;
},
{
glyphname = abreve;
lastChange = "2026-03-25 05:34:17 +0000";
layers = (
{
layerId = m01;
shapes = (
{
closed = 1;
nodes = (
(129,400,o),
(130,393,qs),
(132,382,o),
(171,353,o),
(192,348,qs),
(205,344,o),
(224,344,qs),
(287,344,o),
(340,391,qs),
(355,405,o),
(355,408,qs),
(355,410,o),
(348,410,qs),
(338,410,o),
(306,400,qs),
(272,390,o),
(249,390,qs),
(223,390,o),
(200,404,qs),
(178,417,o),
(168,417,o),
(150,411,qs),
(136,406,o)
);
},
{
closed = 1;
nodes = (
(210,216,o),
(184,157,qs),
(169,122,o),
(150,109,qs),
(129,92,o),
(123,92,qs),
(120,92,o),
(120,97,qs),
(120,98,o),
(122,112,qs),
(128,156,o),
(166,218,qs),
(183,247,o),
(196,247,qs),
(207,247,o),
(209,245,q),
(210,242,l)
);
},
{
closed = 1;
nodes = (
(163,293,qs),
(129,283,o),
(101,260,qs),
(64,229,o),
(15,122,o),
(12,65,qs),
(10,30,l),
(48,12,o),
(67,2,q),
(102,12,ls),
(136,21,o),
(169,41,qs),
(177,45,o),
(194,55,o),
(204,62,o),
(206,62,o),
(208,59,o),
(211,52,o),
(213,43,o),
(215,38,q),
(223,7,o),
(236,-9,o),
(261,-22,qs),
(293,-39,l),
(326,-25,ls),
(344,-17,o),
(360,-9,q),
(351,37,ls),
(339,91,o),
(339,141,qs),
(339,169,o),
(342,206,qs),
(345,259,l),
(333,258,ls),
(327,257,o),
(282,255,qs),
(265,255,ls),
(242,255,o),
(242,260,qs),
(242,264,o),
(256,275,qs),
(270,285,o),
(270,289,o),
(240,296,o),
(222,299,qs),
(204,302,l),
(191,302,o)
);
}
);
width = 370;
}
);
note = abreve;
unicode = 259;
},
{
glyphname = acircumflex;
lastChange = "2026-03-25 05:34:17 +0000";
layers = (
{
layerId = m01;
shapes = (
{
closed = 1;
nodes = (
(127,476,qs),
(86,455,o),
(86,435,qs),
(86,417,o),
(120,405,qs),
(138,399,o),
(147,399,qs),
(160,399,o),
(172,417,qs),
(184,433,o),
(193,443,o),
(200,443,qs),
(209,443,o),
(233,431,qs),
(301,397,o),
(336,397,qs),
(352,397,o),
(355,405,qs),
(356,407,o),
(356,410,qs),
(356,421,o),
(324,443,o),
(298,449,qs),
(270,456,o),
(253,474,qs),
(217,513,o),
(192,513,qs),
(176,513,o),
(157,497,qs),
(145,486,o)
);
},
{
closed = 1;
nodes = (
(208,301,qs),
(208,272,o),
(182,215,qs),
(169,185,o),
(146,169,qs),
(125,154,o),
(122,154,qs),
(121,154,o),
(121,160,o),
(122,171,o),
(123,177,qs),
(127,208,o),
(181,309,o),
(192,309,qs),
(193,309,l),
(199,307,o),
(206,307,qs),
(208,307,o)
);
},
{
closed = 1;
nodes = (
(19,211,o),
(13,131,qs),
(10,93,l),
(46,75,o),
(65,66,q),
(99,75,ls),
(130,83,o),
(170,106,qs),
(207,127,l),
(214,104,ls),
(216,97,o),
(223,74,o),
(223,71,q),
(226,59,o),
(256,44,qs),
(288,27,o),
(293,27,qs),
(296,27,o),
(356,52,o),
(359,55,q),
(351,90,ls),
(337,149,o),
(337,210,qs),
(337,260,o),
(346,305,qs),
(349,321,l),
(296,318,ls),
(290,318,o),
(267,317,o),
(263,317,qs),
(241,317,o),
(241,323,o),
(266,346,o),
(266,352,o),
(210,363,o),
(200,363,qs),
(191,363,o),
(157,353,qs),
(99,336,o)
);
}
);
width = 369;
}
);
note = acircumflex;
unicode = 226;
},
{
glyphname = agrave;
lastChange = "2026-03-25 05:34:17 +0000";
layers = (
{
layerId = m01;
shapes = (
{
closed = 1;
nodes = (
(162,398,qs),
(170,398,o),
(206,381,qs),
(245,363,o),
(262,363,qs),
(282,363,l),
(282,385,ls),
(282,400,o),
(276,409,o),
(263,417,qs),
(244,428,o),
(188,446,o),
(172,446,qs),
(155,446,l),
(155,422,ls),
(155,398,o)
);
},
{
closed = 1;
nodes = (
(209,245,o),
(183,186,qs),
(167,150,o),
(150,138,qs),
(129,121,o),
(123,121,qs),
(121,121,o),
(121,126,qs),
(121,134,o),
(122,141,qs),
(128,183,o),
(165,246,qs),
(183,276,o),
(195,276,qs),
(205,276,o),
(208,273,q),
(209,270,l)
);
},
{
closed = 1;
nodes = (
(162,321,qs),
(128,311,o),
(100,288,qs),
(64,257,o),
(15,151,o),
(12,95,qs),
(10,60,l),
(29,50,o),
(67,32,q),
(101,42,ls),
(120,47,o),
(204,91,q),
(205,91,o),
(207,88,o),
(210,82,o),
(212,73,o),
(214,68,q),
(222,37,o),
(235,21,o),
(260,8,qs),
(292,-9,l),
(325,5,ls),
(343,13,o),
(359,21,q),
(351,58,ls),
(337,113,o),
(337,178,qs),
(337,231,o),
(345,270,qs),
(348,286,l),
(295,284,ls),
(290,284,o),
(273,283,o),
(270,283,qs),
(242,283,o),
(242,289,qs),
(242,293,o),
(255,303,qs),
(269,313,o),
(269,316,qs),
(269,318,o),
(237,325,o),
(204,331,o),
(203,331,qs),
(194,331,o)
);
}
);
width = 369;
}
);
note = agrave;
unicode = 224;
},
{
glyphname = atilde;
lastChange = "2026-03-25 05:34:17 +0000";
layers = (
{
layerId = m01;
shapes = (
{
closed = 1;
nodes = (
(132,427,o),
(132,417,qs),
(132,412,o),
(134,408,o),
(141,407,o),
(147,409,qs),
(155,411,o),
(173,419,qs),
(182,423,o),
(189,421,o),
(198,412,qs),
(211,398,o),
(225,398,qs),
(260,398,o),
(322,426,qs),
(339,434,o),
(346,441,o),
(346,451,qs),
(346,462,o),
(342,464,o),
(330,462,qs),
(323,461,o),
(265,438,o),
(257,438,qs),
(250,438,o),
(238,453,qs),
(223,471,o),
(201,471,qs),
(188,471,o),
(176,465,qs),
(159,457,o)
);
},
{
closed = 1;
nodes = (
(207,292,o),
(188,234,o),
(179,215,qs),
(163,183,o),
(139,166,qs),
(125,156,ls),
(114,150,o),
(116,156,q),
(120,178,o),
(121,184,qs),
(128,224,o),
(166,286,qs),
(181,309,o),
(188,309,qs),
(191,309,o),
(193,308,q),
(204,306,o),
(206,304,q),
(207,301,l)
);
},
{
closed = 1;
nodes = (
(10,201,o),
(10,126,qs),
(10,93,l),
(19,88,o),
(54,70,o),
(63,66,q),
(94,74,ls),
(124,81,o),
(165,104,qs),
(198,122,o),
(200,122,qs),
(206,121,o),
(213,98,qs),
(215,88,o),
(217,83,qs),
(222,65,o),
(232,55,o),
(256,42,qs),
(288,25,l),
(320,38,ls),
(354,51,o),
(354,58,qs),
(354,69,o),
(347,102,qs),
(335,154,o),
(334,176,qs),
(334,189,ls),
(334,211,o),
(345,309,o),
(345,316,qs),
(345,320,o),
(333,320,qs),
(332,320,o),
(292,318,qs),
(269,318,ls),
(237,318,o),
(237,320,qs),
(237,321,o),
(265,346,o),
(265,352,o),
(208,363,o),
(198,363,qs),
(187,363,o),
(156,354,qs),
(97,337,o)
);
}
);
width = 364;
}
);
note = atilde;
unicode = 227;
},
{
glyphname = dcroat;
lastChange = "2026-03-25 05:34:17 +0000";
layers = (
{
layerId = m01;
shapes = (
{
closed = 1;
nodes = (
(146,67,ls),
(137,37,o),
(128,37,qs),
(121,37,o),
(115,50,o),
(110,77,qs),
(108,93,o),
(108,96,qs),
(108,105,o),
(120,126,qs),
(128,140,o),
(135,151,q),
(145,124,l),
(155,96,l)
);
},
{
closed = 1;
nodes = (
(151,307,qs),
(146,286,o),
(137,275,o),
(113,260,qs),
(41,211,o),
(20,146,qs),
(10,116,o),
(10,99,qs),
(10,94,o),
(12,68,qs),
(14,37,o),
(20,19,o),
(36,-3,qs),
(51,-23,o),
(63,-33,o),
(78,-35,qs),
(101,-38,o),
(116,-38,qs),
(144,-38,o),
(181,-18,qs),
(217,1,l),
(236,-12,ls),
(255,-25,o),
(258,-25,qs),
(260,-25,o),
(317,7,o),
(320,7,qs),
(327,7,o),
(323,14,qs),
(320,20,o),
(289,111,qs),
(258,198,o),
(256,242,qs),
(256,246,o),
(255,267,o),
(255,272,qs),
(255,293,o),
(257,311,qs),
(260,339,l),
(283,339,ls),
(305,339,o),
(312,346,q),
(317,353,o),
(327,353,qs),
(343,353,o),
(382,401,o),
(382,421,qs),
(382,428,o),
(367,432,o),
(332,434,qs),
(283,436,o),
(283,442,qs),
(283,443,o),
(284,448,o),
(284,449,qs),
(284,458,o),
(266,509,o),
(260,516,qs),
(259,517,o),
(228,521,qs),
(199,525,l),
(183,503,ls),
(167,482,o),
(167,459,qs),
(167,437,l),
(138,435,ls),
(107,431,o),
(94,418,qs),
(85,410,o),
(53,357,o),
(53,351,qs),
(53,350,o),
(158,342,o),
(158,339,qs),
(158,333,o)
);
}
);
width = 392;
}
);
note = dcroat;
unicode = 273;
},
{
glyphname = eacute;
lastChange = "2026-03-25 05:34:17 +0000";
layers = (
{
layerId = m01;
shapes = (
{
closed = 1;
nodes = (
(109,448,qs),
(88,438,o),
(84,421,qs),
(79,404,o),
(79,392,qs),
(79,385,o),
(81,385,qs),
(90,385,o),
(180,420,qs),
(232,441,o),
(263,457,o),
(263,463,qs),
(263,466,o),
(257,474,qs),
(250,484,o),
(227,484,qs),
(216,484,o),
(204,481,qs),
(154,469,o)
);
},
{
closed = 1;
nodes = (
(201,263,o),
(223,220,o),
(228,210,q),
(190,210,ls),
(163,210,o),
(147,206,o),
(128,193,qs),
(104,176,o),
(100,176,qs),
(97,176,o),
(97,208,qs),
(97,241,o),
(111,269,qs),
(126,298,o),
(129,298,qs),
(136,298,o),
(165,286,qs),
(196,274,l)
);
},
{
closed = 1;
nodes = (
(10,222,o),
(10,158,qs),
(10,134,o),
(16,115,o),
(46,65,o),
(62,51,o),
(88,39,qs),
(133,19,o),
(169,19,qs),
(191,19,o),
(218,25,qs),
(284,38,o),
(338,76,qs),
(358,91,o),
(358,94,qs),
(358,96,o),
(355,96,qs),
(351,96,o),
(334,91,qs),
(278,74,o),
(236,74,qs),
(158,74,o),
(123,122,qs),
(107,144,l),
(132,147,o),
(230,162,o),
(255,166,q),
(279,185,ls),
(304,203,o),
(310,209,q),
(315,212,o),
(315,224,o),
(309,251,qs),
(301,289,o),
(283,315,qs),
(270,335,o),
(255,347,o),
(233,354,qs),
(202,363,o),
(197,363,qs),
(188,363,o),
(159,351,qs),
(88,322,o)
);
}
);
width = 368;
}
);
note = eacute;
unicode = 233;
},
{
glyphname = ecircumflex;
lastChange = "2026-03-25 05:34:17 +0000";
layers = (
{
layerId = m01;
shapes = (
{
closed = 1;
nodes = (
(75,451,o),
(71,449,qs),
(55,439,o),
(55,428,qs),
(55,423,ls),
(56,409,o),
(73,401,qs),
(92,393,o),
(108,391,qs),
(110,391,o),
(117,390,o),
(118,390,qs),
(128,390,o),
(143,410,qs),
(160,433,o),
(164,434,qs),
(165,434,ls),
(171,434,o),
(209,417,qs),
(270,387,o),
(304,387,qs),
(324,387,o),
(324,413,o),
(289,435,o),
(263,440,qs),
(244,444,o),
(215,471,qs),
(188,498,o),
(167,501,qs),
(165,501,o),
(157,502,o),
(156,502,qs),
(145,502,o),
(118,483,qs),
(109,477,o)
);
},
{
closed = 1;
nodes = (
(200,272,o),
(212,250,qs),
(228,220,o),
(228,217,qs),
(228,215,o),
(191,215,qs),
(164,215,o),
(147,210,o),
(128,197,qs),
(104,180,o),
(100,180,qs),
(97,180,o),
(97,240,o),
(113,272,qs),
(127,302,o),
(131,302,qs),
(134,302,o),
(165,291,qs),
(187,283,o)
);
},
{
closed = 1;
nodes = (
(13,166,qs),
(10,132,l),
(33,96,ls),
(50,68,o),
(65,55,o),
(91,43,qs),
(136,23,o),
(176,23,qs),
(238,23,o),
(333,74,qs),
(364,91,o),
(364,95,q),
(363,96,l),
(353,96,o),
(301,86,qs),
(262,78,o),
(233,78,qs),
(202,78,o),
(167,93,qs),
(140,105,o),
(124,127,qs),
(118,136,o),
(111,148,o),
(112,148,qs),
(176,158,ls),
(235,166,o),
(265,176,o),
(289,196,qs),
(305,208,o),
(315,221,o),
(315,231,qs),
(315,238,o),
(310,263,qs),
(305,291,o),
(284,320,qs),
(270,340,o),
(255,351,o),
(234,358,qs),
(203,367,o),
(197,367,qs),
(190,367,o),
(161,355,qs),
(23,300,o)
);
}
);
width = 374;
}
);
note = ecircumflex;
unicode = 234;
},
{
glyphname = egrave;
lastChange = "2026-03-25 05:34:17 +0000";
layers = (
{
layerId = m01;
shapes = (
{
closed = 1;
nodes = (
(129,420,o),
(203,385,o),
(218,385,qs),
(232,385,o),
(237,389,o),
(235,399,qs),
(232,420,o),
(232,423,qs),
(232,435,o),
(165,466,o),
(135,467,qs),
(106,469,l),
(106,426,l),
(124,421,ls)
);
},
{
closed = 1;
nodes = (
(201,263,o),
(223,220,o),
(228,210,q),
(190,210,ls),
(163,210,o),
(147,206,o),
(128,193,qs),
(104,176,o),
(100,176,qs),
(97,176,o),
(97,208,qs),
(97,241,o),
(111,269,qs),
(126,298,o),
(129,298,qs),
(136,298,o),
(165,286,qs),
(196,274,l)
);
},
{
closed = 1;
nodes = (
(10,222,o),
(10,158,qs),
(10,134,o),
(16,115,o),
(46,65,o),
(62,51,o),
(88,39,qs),
(129,20,o),
(175,20,qs),
(247,20,o),
(337,73,qs),
(344,77,o),
(356,85,o),
(359,88,qs),
(362,91,l),
(360,91,ls),
(346,91,o),
(301,83,qs),
(250,74,o),
(234,74,qs),
(222,74,o),
(215,75,qs),
(152,83,o),
(123,122,qs),
(107,144,l),
(132,147,o),
(230,162,o),
(255,166,q),
(279,185,ls),
(304,203,o),
(310,209,q),
(315,212,o),
(315,224,o),
(309,251,qs),
(301,289,o),
(283,315,qs),
(270,335,o),
(255,347,o),
(233,354,qs),
(202,363,o),
(197,363,qs),
(188,363,o),
(159,351,qs),
(88,322,o)
);
}
);
width = 372;
}
);
note = egrave;
unicode = 232;
},
{
glyphname = iacute;
lastChange = "2026-03-25 05:34:17 +0000";
layers = (
{
layerId = m01;
shapes = (
{
closed = 1;
nodes = (
(33,393,qs),
(18,384,o),
(14,366,qs),
(10,351,o),
(10,343,qs),
(10,337,o),
(16,337,qs),
(21,337,o),
(24,338,q),
(35,339,o),
(133,377,o),
(168,393,qs),
(193,405,o),
(193,413,qs),
(193,418,o),
(185,426,qs),
(178,433,o),
(164,433,qs),
(154,433,o),
(116,424,qs),
(66,411,o)
);
},
{
closed = 1;
nodes = (
(55,181,ls),
(54,150,o),
(54,110,qs),
(54,68,o),
(59,68,qs),
(61,68,ls),
(65,69,o),
(89,73,qs),
(106,75,o),
(135,87,qs),
(159,98,l),
(156,140,ls),
(154,186,o),
(154,250,qs),
(154,315,o),
(148,325,q),
(144,329,o),
(141,329,qs),
(133,329,o),
(100,314,qs),
(58,296,l)
);
}
);
width = 203;
}
);
note = iacute;
unicode = 237;
},
{
glyphname = igrave;
lastChange = "2026-03-25 05:34:17 +0000";
layers = (
{
layerId = m01;
shapes = (
{
closed = 1;
nodes = (
(34,398,o),
(108,363,o),
(123,363,qs),
(137,363,o),
(141,366,o),
(139,377,qs),
(137,391,o),
(137,401,qs),
(137,413,o),
(70,444,o),
(40,445,qs),
(10,447,l),
(10,404,l),
(29,399,ls)
);
},
{
closed = 1;
nodes = (
(43,181,ls),
(42,143,o),
(42,101,qs),
(42,68,o),
(46,68,qs),
(48,68,ls),
(50,68,o),
(77,73,q),
(93,74,o),
(122,87,qs),
(147,98,l),
(144,140,ls),
(141,209,o),
(141,250,qs),
(141,317,o),
(136,325,q),
(132,329,o),
(129,329,qs),
(121,329,o),
(88,314,qs),
(45,296,l)
);
}
);
width = 157;
}
);
note = igrave;
unicode = 236;
},
{
glyphname = itilde;
lastChange = "2026-03-25 05:34:17 +0000";
layers = (
{
layerId = m01;
shapes = (
{
closed = 1;
nodes = (
(10,325,o),
(10,316,qs),
(10,309,o),
(19,309,qs),
(29,309,o),
(63,324,o),
(63,328,qs),
(63,333,o),
(75,319,qs),
(83,309,o),
(94,304,o),
(107,304,qs),
(136,304,o),
(224,337,o),
(228,349,qs),
(229,351,o),
(229,356,qs),
(229,366,o),
(214,366,qs),
(197,366,o),
(167,353,qs),
(146,345,o),
(138,345,qs),
(129,345,o),
(122,355,qs),
(117,363,o),
(92,379,o),
(84,379,qs),
(82,379,o),
(56,365,qs),
(37,354,o)
);
},
{
closed = 1;
nodes = (
(54,203,o),
(50,52,o),
(50,14,q),
(76,17,ls),
(97,18,o),
(128,31,qs),
(155,42,l),
(152,155,ls),
(150,278,o),
(139,278,qs),
(138,278,ls),
(137,278,o),
(95,259,qs),
(54,241,l)
);
}
);
width = 239;
}
);
note = itilde;
unicode = 297;
},
{
glyphname = oacute;
lastChange = "2026-03-25 05:34:17 +0000";
layers = (
{
layerId = m01;
shapes = (
{
closed = 1;
nodes = (
(121,416,qs),
(108,401,o),
(108,372,qs),
(108,368,o),
(109,367,q),
(110,367,ls),
(130,367,o),
(235,411,qs),
(271,425,o),
(291,437,o),
(291,453,o),
(272,466,o),
(261,466,qs),
(246,466,o),
(219,458,qs),
(136,436,o)
);
},
{
closed = 1;
nodes = (
(226,150,qs),
(226,115,o),
(212,79,qs),
(198,41,l),
(176,43,ls),
(139,48,o),
(123,55,o),
(110,75,qs),
(85,111,o),
(85,154,qs),
(85,204,o),
(119,246,qs),
(139,269,l),
(194,269,l),
(210,228,ls),
(226,184,o)
);
},
{
closed = 1;
nodes = (
(171,313,qs),
(140,307,o),
(105,288,qs),
(82,275,o),
(62,258,o),
(49,237,qs),
(32,210,o),
(17,155,o),
(13,107,qs),
(10,66,l),
(27,32,ls),
(39,6,o),
(51,-5,o),
(73,-15,qs),
(105,-29,o),
(108,-29,qs),
(123,-29,o),
(184,-3,o),
(203,11,qs),
(242,41,o),
(288,148,o),
(288,208,qs),
(288,233,o),
(283,261,qs),
(279,281,o),
(270,297,o),
(256,309,qs),
(236,326,o),
(225,326,qs),
(220,326,o),
(210,322,qs),
(201,318,o)
);
}
);
width = 301;
}
);
note = oacute;
unicode = 243;
},
{
glyphname = ocircumflex;
lastChange = "2026-03-25 05:34:17 +0000";
layers = (
{
layerId = m01;
shapes = (
{
closed = 1;
nodes = (
(77,405,qs),
(51,389,o),
(51,375,qs),
(51,359,o),
(76,349,qs),
(99,339,o),
(119,339,qs),
(129,339,o),
(129,347,o),
(147,367,qs),
(165,388,l),
(186,377,ls),
(242,348,o),
(288,338,qs),
(292,337,o),
(299,337,qs),
(327,337,o),
(327,350,qs),
(327,360,o),
(288,384,o),
(267,389,qs),
(250,392,o),
(234,402,o),
(215,420,qs),
(181,454,o),
(161,454,qs),
(149,454,o),
(113,429,qs),
(89,412,o)
);
},
{
closed = 1;
nodes = (
(226,150,qs),
(226,115,o),
(212,79,qs),
(198,41,l),
(176,43,ls),
(139,48,o),
(123,55,o),
(110,75,qs),
(85,111,o),
(85,154,qs),
(85,204,o),
(119,246,qs),
(139,269,l),
(194,269,l),
(210,228,ls),
(226,184,o)
);
},
{
closed = 1;
nodes = (
(171,313,qs),
(140,307,o),
(105,288,qs),
(82,275,o),
(62,258,o),
(49,237,qs),
(32,210,o),
(17,155,o),
(13,107,qs),
(10,66,l),
(27,32,ls),
(39,6,o),
(51,-5,o),
(73,-15,qs),
(105,-29,o),
(108,-29,qs),
(123,-29,o),
(184,-3,o),
(203,11,qs),
(242,41,o),
(288,148,o),
(288,208,qs),
(288,233,o),
(283,261,qs),
(279,281,o),
(270,297,o),
(256,309,qs),
(236,326,o),
(225,326,qs),
(220,326,o),
(210,322,qs),
(201,318,o)
);
}
);
width = 337;
}
);
note = ocircumflex;
unicode = 244;
},
{
glyphname = ograve;
lastChange = "2026-03-25 05:34:17 +0000";
layers = (
{
layerId = m01;
shapes = (
{
closed = 1;
nodes = (
(85,395,o),
(99,390,qs),
(111,386,o),
(146,369,qs),
(173,355,o),
(194,355,qs),
(212,355,l),
(210,377,ls),
(208,397,o),
(191,413,o),
(160,426,qs),
(131,438,o),
(106,438,qs),
(80,438,l),
(80,417,ls),
(80,401,o)
);
},
{
closed = 1;
nodes = (
(219,116,o),
(207,84,qs),
(195,51,l),
(178,50,ls),
(152,50,o),
(142,52,qs),
(130,54,o),
(118,64,o),
(106,80,qs),
(81,114,o),
(81,155,qs),
(81,171,o),
(86,193,qs),
(95,229,o),
(123,260,qs),
(133,271,o),
(150,271,qs),
(163,271,l),
(191,269,l),
(205,232,ls),
(219,196,o)
);
},
{
closed = 1;
nodes = (
(177,319,qs),
(129,309,o),
(100,292,qs),
(79,280,o),
(59,262,o),
(45,241,qs),
(10,188,o),
(10,101,qs),
(10,74,o),
(15,53,o),
(25,32,qs),
(36,10,o),
(49,-2,o),
(71,-12,qs),
(103,-26,l),
(135,-16,ls),
(268,23,o),
(283,198,qs),
(284,206,o),
(284,219,qs),
(284,236,o),
(279,261,qs),
(275,280,o),
(264,298,o),
(251,312,qs),
(230,333,o),
(226,333,qs),
(225,333,o),
(223,331,qs),
(220,328,o)
);
}
);
width = 294;
}
);
note = ograve;
unicode = 242;
},
{
glyphname = ohorn;
lastChange = "2026-03-25 05:34:17 +0000";
layers = (
{
layerId = m01;
shapes = (
{
closed = 1;
nodes = (
(214,143,qs),
(214,111,o),
(197,51,qs),
(191,30,o),
(187,20,o),
(182,20,qs),
(178,20,o),
(175,21,q),
(154,24,o),
(146,24,qs),
(136,24,o),
(124,32,o),
(111,49,qs),
(81,88,o),
(81,136,qs),
(81,172,o),
(100,231,qs),
(111,265,l),
(180,265,l),
(193,231,ls),
(214,178,o)
);
},
{
closed = 1;
nodes = (
(229,370,o),
(229,354,qs),
(229,332,l),
(189,325,ls),
(138,316,o),
(69,258,o),
(35,195,qs),
(10,148,o),
(10,91,qs),
(10,40,o),
(30,-3,qs),
(45,-36,l),
(58,-38,o),
(111,-47,o),
(124,-50,q),
(161,-35,ls),
(186,-25,o),
(204,-11,o),
(218,8,qs),
(258,64,o),
(268,125,qs),
(275,168,o),
(275,213,qs),
(275,245,o),
(271,265,qs),
(266,298,l),
(291,333,o),
(317,375,q),
(301,395,ls),
(285,414,o),
(275,414,o),
(252,395,qs),
(236,382,o)
);
}
);
width = 327;
}
);
note = ohorn;
unicode = 417;
},
{
glyphname = otilde;
lastChange = "2026-03-25 05:34:17 +0000";
layers = (
{
layerId = m01;
shapes = (
{
closed = 1;
nodes = (
(69,390,o),
(66,380,qs),
(64,373,o),
(67,370,o),
(74,370,qs),
(85,370,o),
(103,377,qs),
(121,384,l),
(134,370,ls),
(146,358,o),
(155,358,qs),
(162,358,o),
(168,359,qs),
(188,362,o),
(255,384,o),
(269,392,qs),
(283,401,o),
(281,421,o),
(267,421,qs),
(251,421,o),
(224,410,qs),
(189,396,l),
(173,414,ls),
(156,432,o),
(140,432,qs),
(121,432,o),
(109,425,qs),
(97,419,o)
);
},
{
closed = 1;
nodes = (
(226,150,qs),
(226,115,o),
(212,79,qs),
(198,41,l),
(176,43,ls),
(139,48,o),
(123,55,o),
(110,75,qs),
(85,111,o),
(85,154,qs),
(85,204,o),
(119,246,qs),
(139,269,l),
(194,269,l),
(210,228,ls),
(226,184,o)
);
},
{
closed = 1;
nodes = (
(171,313,qs),
(140,307,o),
(105,288,qs),
(82,275,o),
(62,258,o),
(49,237,qs),
(32,210,o),
(17,155,o),
(13,107,qs),
(10,66,l),
(27,32,ls),
(39,6,o),
(51,-5,o),
(73,-15,qs),
(105,-29,o),
(108,-29,qs),
(123,-29,o),
(184,-3,o),
(203,11,qs),
(242,41,o),
(288,148,o),
(288,208,qs),
(288,233,o),
(283,261,qs),
(279,281,o),
(270,297,o),
(256,309,qs),
(236,326,o),
(225,326,qs),
(220,326,o),
(210,322,qs),
(201,318,o)
);
}
);
width = 298;
}
);
note = otilde;
unicode = 245;
},
{
glyphname = uacute;
lastChange = "2026-03-25 05:34:17 +0000";
layers = (
{
layerId = m01;
shapes = (
{
closed = 1;
nodes = (
(160,371,qs),
(158,367,o),
(153,344,qs),
(151,332,o),
(153,326,o),
(159,326,qs),
(180,326,o),
(289,373,qs),
(336,393,o),
(336,403,qs),
(336,409,o),
(326,416,qs),
(317,422,o),
(303,422,qs),
(284,422,o),
(250,412,qs),
(170,389,o)
);
},
{
closed = 1;
nodes = (
(15,257,ls),
(10,214,o),
(10,149,qs),
(10,106,o),
(14,79,o),
(25,51,qs),
(35,24,o),
(48,9,o),
(68,-5,qs),
(90,-20,o),
(107,-25,o),
(135,-25,qs),
(194,-25,o),
(255,2,qs),
(281,13,o),
(293,13,qs),
(296,13,o),
(320,11,qs),
(340,8,o),
(352,8,qs),
(368,8,o),
(385,12,qs),
(418,20,o),
(418,22,qs),
(418,28,o),
(400,71,qs),
(380,116,o),
(370,153,o),
(364,205,qs),
(357,262,l),
(337,283,ls),
(316,304,o),
(301,304,qs),
(297,304,o),
(273,300,qs),
(249,295,l),
(240,265,ls),
(230,233,o),
(230,211,qs),
(230,187,o),
(201,109,o),
(184,85,qs),
(168,62,l),
(157,89,ls),
(147,116,o),
(147,160,qs),
(147,205,o),
(142,237,qs),
(139,259,o),
(131,279,o),
(117,296,qs),
(97,320,o),
(85,320,qs),
(76,320,o),
(50,312,qs),
(21,304,l)
);
}
);
width = 428;
}
);
note = uacute;
unicode = 250;
},
{
glyphname = ugrave;
lastChange = "2026-03-25 05:34:17 +0000";
layers = (
{
layerId = m01;
shapes = (
{
closed = 1;
nodes = (
(157,357,o),
(195,335,o),
(214,335,qs),
(229,335,o),
(235,339,o),
(235,350,qs),
(235,371,o),
(220,389,o),
(194,401,qs),
(163,415,o),
(133,418,qs),
(103,420,l),
(103,376,l),
(131,366,ls)
);
},
{
closed = 1;
nodes = (
(15,253,ls),
(10,210,o),
(10,145,qs),
(10,101,o),
(14,73,o),
(25,46,qs),
(35,19,o),
(48,4,o),
(68,-10,qs),
(89,-24,o),
(106,-29,o),
(135,-29,qs),
(217,-29,o),
(271,7,qs),
(280,13,o),
(291,13,qs),
(306,13,o),
(319,11,qs),
(340,8,o),
(352,8,qs),
(368,8,o),
(385,12,qs),
(418,20,o),
(418,22,qs),
(418,28,o),
(400,71,qs),
(380,116,o),
(370,153,o),
(364,205,qs),
(357,262,l),
(337,283,ls),
(316,304,o),
(292,304,o),
(288,296,o),
(268,294,qs),
(250,291,l),
(240,261,ls),
(230,229,o),
(230,207,qs),
(230,183,o),
(201,105,o),
(184,81,qs),
(168,58,l),
(157,85,ls),
(147,112,o),
(147,156,qs),
(147,201,o),
(142,233,qs),
(139,255,o),
(131,275,o),
(117,292,qs),
(97,316,o),
(85,316,qs),
(76,316,o),
(50,308,qs),
(21,299,l)
);
}
);
width = 428;
}
);
note = ugrave;
unicode = 249;
},
{
glyphname = uhorn;
lastChange = "2026-03-25 05:34:17 +0000";
layers = (
{
layerId = m01;
shapes = (
{
closed = 1;
nodes = (
(287,320,qs),
(273,300,o),
(261,291,o),
(244,289,qs),
(221,286,l),
(205,241,ls),
(186,187,o),
(168,152,o),
(152,139,qs),
(133,122,o),
(123,122,o),
(110,140,qs),
(96,157,l),
(98,219,l),
(101,281,l),
(83,302,ls),
(70,318,o),
(58,318,o),
(51,305,qs),
(47,298,o),
(34,278,o),
(30,270,o),
(22,251,o),
(18,226,o),
(16,206,qs),
(10,154,o),
(10,130,qs),
(10,102,o),
(20,72,qs),
(27,50,o),
(39,33,o),
(57,18,qs),
(84,-3,l),
(119,3,ls),
(145,8,o),
(160,16,o),
(179,36,qs),
(205,63,l),
(234,35,o),
(264,10,q),
(303,15,l),
(342,21,l),
(369,48,ls),
(394,73,o),
(394,79,qs),
(394,82,o),
(352,98,qs),
(313,112,l),
(308,122,o),
(292,162,o),
(287,172,q),
(312,193,ls),
(330,208,o),
(341,223,o),
(347,243,qs),
(356,270,o),
(356,313,qs),
(356,329,ls),
(356,344,o),
(352,352,o),
(344,352,qs),
(342,352,o),
(322,350,qs),
(307,348,o)
);
}
);
width = 404;
}
);
note = uhorn;
unicode = 432;
},
{
glyphname = uni1ea1;
lastChange = "2026-03-25 05:34:17 +0000";
layers = (
{
layerId = m01;
shapes = (
{
closed = 1;
nodes = (
(208,242,o),
(189,183,o),
(180,164,qs),
(164,132,o),
(140,115,qs),
(126,105,ls),
(115,99,o),
(117,105,q),
(121,127,o),
(122,133,qs),
(129,174,o),
(167,236,qs),
(182,259,o),
(189,259,qs),
(193,259,o),
(195,258,q),
(205,256,o),
(207,254,q),
(208,251,l)
);
},
{
closed = 1;
nodes = (
(16,160,o),
(12,79,qs),
(10,39,l),
(48,23,o),
(66,14,q),
(98,23,ls),
(129,32,o),
(168,54,qs),
(196,71,o),
(201,71,qs),
(207,70,o),
(214,47,qs),
(216,37,o),
(218,32,qs),
(223,14,o),
(233,4,o),
(257,-9,qs),
(290,-26,l),
(322,-14,ls),
(356,-1,o),
(356,7,qs),
(356,18,o),
(349,51,qs),
(337,103,o),
(336,125,qs),
(336,138,ls),
(336,160,o),
(347,258,o),
(347,265,qs),
(347,270,o),
(332,270,qs),
(330,270,o),
(294,268,qs),
(287,268,o),
(264,267,o),
(260,267,qs),
(239,267,o),
(239,269,qs),
(239,270,o),
(266,296,o),
(266,302,o),
(209,313,o),
(199,313,qs),
(188,313,o),
(157,304,qs),
(97,287,o)
);
},
{
closed = 1;
nodes = (
(120,-87,l),
(157,-85,ls),
(195,-83,o),
(197,-80,q),
(199,-80,o),
(199,-70,qs),
(199,-65,o),
(197,-49,qs),
(194,-20,l),
(178,-21,ls),
(163,-21,o),
(141,-23,qs),
(120,-25,l)
);
}
);
width = 366;
}
);
note = uni1ea1;
unicode = 7841;
},
{
glyphname = uni1ea3;
lastChange = "2026-03-25 05:34:17 +0000";
layers = (
{
layerId = m01;
shapes = (
{
closed = 1;
nodes = (
(183,458,qs),
(183,414,o),
(192,414,qs),
(198,414,o),
(200,425,qs),
(205,444,o),
(239,444,qs),
(246,444,l),
(271,443,l),
(262,434,ls),
(256,428,o),
(220,398,qs),
(186,371,l),
(193,353,ls),
(200,335,o),
(210,335,o),
(265,382,o),
(274,394,qs),
(289,414,o),
(289,437,qs),
(289,453,o),
(284,464,qs),
(277,484,o),
(272,484,qs),
(268,484,o),
(258,486,q),
(254,486,ls),
(242,486,o),
(188,475,o),
(185,472,qs),
(183,470,o)
);
},
{
closed = 1;
nodes = (
(208,242,o),
(189,183,o),
(179,164,qs),
(163,132,o),
(139,115,qs),
(119,102,l),
(116,101,o),
(117,105,qs),
(121,127,o),
(122,133,qs),
(129,174,o),
(167,236,qs),
(182,259,o),
(189,259,qs),
(192,259,o),
(194,258,q),
(205,256,o),
(207,254,q),
(208,251,l)
);
},
{
closed = 1;
nodes = (
(10,150,o),
(10,75,qs),
(10,41,l),
(64,14,l),
(95,22,ls),
(122,28,o),
(166,53,qs),
(199,71,o),
(201,71,qs),
(207,70,o),
(214,47,qs),
(216,37,o),
(218,32,qs),
(223,14,o),
(233,4,o),
(257,-9,qs),
(289,-26,l),
(321,-14,ls),
(355,-1,o),
(355,7,qs),
(355,18,o),
(348,51,qs),
(338,97,o),
(336,125,qs),
(336,140,ls),
(336,162,o),
(346,258,o),
(346,265,qs),
(346,270,o),
(331,270,qs),
(329,270,o),
(293,268,qs),
(286,268,o),
(263,267,o),
(259,267,qs),
(238,267,o),
(238,271,o),
(266,296,o),
(266,302,o),
(209,313,o),
(199,313,qs),
(188,313,o),
(157,304,qs),
(98,287,o)
);
}
);
width = 365;
}
);
note = uni1ea3;
unicode = 7843;
},
{
glyphname = uni1ea5;
lastChange = "2026-03-25 05:34:17 +0000";
layers = (
{
layerId = m01;
shapes = (
{
closed = 1;
nodes = (
(297,442,qs),
(291,430,o),
(291,414,qs),
(291,404,o),
(295,401,o),
(303,403,qs),
(340,413,o),
(437,453,qs),
(458,462,o),
(471,471,o),
(471,477,qs),
(471,486,o),
(465,492,qs),
(460,497,o),
(442,497,qs),
(413,497,o),
(383,487,qs),
(306,463,o)
);
},
{
closed = 1;
nodes = (
(116,404,qs),
(81,383,o),
(81,367,qs),
(81,352,o),
(113,340,qs),
(135,331,o),
(145,331,qs),
(157,331,o),
(177,361,o),
(187,370,qs),
(198,379,l),
(223,367,ls),
(291,332,o),
(334,332,qs),
(356,332,o),
(356,344,qs),
(356,354,o),
(319,378,o),
(298,381,qs),
(283,383,o),
(265,394,o),
(246,413,qs),
(225,432,o),
(209,443,o),
(195,444,qs),
(193,444,o),
(185,445,o),
(184,445,qs),
(172,445,o),
(159,433,qs),
(147,423,o)
);
},
{
closed = 1;
nodes = (
(208,242,o),
(189,183,o),
(179,164,qs),
(163,132,o),
(139,115,qs),
(119,102,l),
(116,101,o),
(117,105,qs),
(121,127,o),
(122,133,qs),
(129,174,o),
(167,236,qs),
(182,259,o),
(189,259,qs),
(192,259,o),
(194,258,q),
(205,256,o),
(207,254,q),
(208,251,l)
);
},
{
closed = 1;
nodes = (
(10,150,o),
(10,75,qs),
(10,41,l),
(64,14,l),
(95,22,ls),
(122,28,o),
(166,53,qs),
(199,71,o),
(201,71,qs),
(207,70,o),
(214,47,qs),
(216,37,o),
(218,32,qs),
(223,14,o),
(233,4,o),
(257,-9,qs),
(289,-26,l),
(321,-14,ls),
(355,-1,o),
(355,7,qs),
(355,18,o),
(348,51,qs),
(338,97,o),
(336,125,qs),
(336,140,ls),
(336,162,o),
(346,258,o),
(346,265,qs),
(346,270,o),
(331,270,qs),
(329,270,o),
(293,268,qs),
(286,268,o),
(263,267,o),
(259,267,qs),
(238,267,o),
(238,271,o),
(266,296,o),
(266,302,o),
(209,313,o),
(199,313,qs),
(188,313,o),
(157,304,qs),
(98,287,o)
);
}
);
width = 481;
}
);
note = uni1ea5;
unicode = 7845;
},
{
glyphname = uni1ea7;
lastChange = "2026-03-25 05:34:17 +0000";
layers = (
{
layerId = m01;
shapes = (
{
closed = 1;
nodes = (
(217,461,o),
(222,455,o),
(235,451,qs),
(239,450,o),
(316,416,o),
(331,416,qs),
(349,416,l),
(347,438,ls),
(345,458,o),
(327,474,o),
(296,487,qs),
(268,499,o),
(243,499,qs),
(217,499,l),
(217,478,l),
(217,473,ls)
);
},
{
closed = 1;
nodes = (
(127,401,qs),
(86,380,o),
(86,360,qs),
(86,343,o),
(120,331,qs),
(138,325,o),
(147,325,qs),
(160,325,o),
(172,343,qs),
(184,359,o),
(193,369,o),
(200,369,qs),
(209,369,o),
(233,357,qs),
(301,323,o),
(336,323,qs),
(352,323,o),
(355,331,qs),
(356,333,o),
(356,336,qs),
(356,347,o),
(324,369,o),
(298,375,qs),
(270,382,o),
(253,400,qs),
(217,439,o),
(192,439,qs),
(176,439,o),
(157,423,qs),
(142,409,o)
);
},
{
closed = 1;
nodes = (
(208,244,qs),
(208,216,o),
(182,159,qs),
(168,128,o),
(146,112,qs),
(125,97,o),
(122,97,qs),
(121,97,o),
(121,103,o),
(122,114,o),
(123,120,qs),
(127,151,o),
(181,252,o),
(192,252,qs),
(193,252,l),
(199,250,o),
(206,250,qs),
(208,250,o)
);
},
{
closed = 1;
nodes = (
(19,154,o),
(13,74,qs),
(10,37,l),
(41,22,o),
(65,9,q),
(99,18,ls),
(130,26,o),
(170,49,qs),
(207,70,l),
(214,48,ls),
(216,41,o),
(222,17,o),
(223,14,qs),
(226,2,o),
(256,-13,qs),
(288,-30,o),
(293,-30,qs),
(296,-30,o),
(356,-5,o),
(359,-2,q),
(351,34,ls),
(337,93,o),
(337,154,qs),
(337,203,o),
(346,248,qs),
(349,264,l),
(296,262,ls),
(279,261,o),
(254,261,qs),
(241,261,o),
(241,263,qs),
(241,266,o),
(266,289,o),
(266,295,o),
(210,306,o),
(200,306,qs),
(191,306,o),
(157,296,qs),
(99,279,o)
);
}
);
width = 369;
}
);
note = uni1ea7;
unicode = 7847;
},
{
glyphname = uni1ea9;
lastChange = "2026-03-25 05:34:17 +0000";
layers = (
{
layerId = m01;
shapes = (
{
closed = 1;
nodes = (
(260,571,qs),
(238,564,l),
(240,541,ls),
(242,516,o),
(243,513,qs),
(244,509,o),
(250,507,o),
(256,513,o),
(257,518,qs),
(259,527,o),
(270,533,qs),
(282,538,o),
(305,538,qs),
(324,538,o),
(324,534,qs),
(324,528,o),
(285,498,qs),
(245,466,o),
(245,463,qs),
(245,458,o),
(259,429,o),
(262,429,qs),
(267,429,o),
(326,480,o),
(333,490,qs),
(345,506,o),
(345,533,qs),
(345,548,o),
(340,561,qs),
(333,577,o),
(327,577,qs),
(325,577,o),
(315,579,o),
(314,579,q),
(309,581,o),
(296,579,qs),
(287,578,o)
);
},
{
closed = 1;
nodes = (
(127,408,qs),
(84,381,o),
(84,364,qs),
(84,348,o),
(118,336,qs),
(135,329,o),
(145,329,qs),
(159,329,o),
(173,350,qs),
(190,374,o),
(199,374,qs),
(204,374,o),
(232,361,qs),
(300,328,o),
(337,328,qs),
(358,328,o),
(358,340,qs),
(358,343,o),
(357,345,qs),
(354,355,o),
(315,377,o),
(293,381,qs),
(276,384,o),
(261,393,o),
(249,407,qs),
(219,442,o),
(192,442,qs),
(178,442,o),
(162,431,qs),
(156,426,o)
);
},
{
closed = 1;
nodes = (
(210,251,qs),
(210,243,o),
(188,179,o),
(179,160,qs),
(165,131,o),
(141,113,qs),
(118,97,l),
(121,120,ls),
(126,164,o),
(168,231,qs),
(185,257,o),
(192,257,qs),
(195,257,o),
(197,256,qs),
(210,252,o)
);
},
{
closed = 1;
nodes = (
(196,310,qs),
(186,310,o),
(157,301,qs),
(89,279,o),
(51,209,qs),
(16,146,o),
(12,76,qs),
(10,40,l),
(20,35,o),
(56,19,o),
(66,14,q),
(99,22,ls),
(129,30,o),
(166,51,qs),
(201,71,o),
(204,71,qs),
(208,71,o),
(217,39,qs),
(226,7,l),
(256,-9,ls),
(286,-25,o),
(292,-25,qs),
(297,-25,o),
(352,-3,o),
(356,1,q),
(357,5,l),
(357,23,o),
(348,56,qs),
(338,97,o),
(338,128,qs),
(338,152,o),
(339,169,qs),
(340,211,o),
(344,249,qs),
(347,269,l),
(294,266,ls),
(288,266,o),
(266,265,o),
(262,265,qs),
(241,265,o),
(241,267,qs),
(241,268,o),
(267,296,o),
(267,300,o),
(208,310,o)
);
}
);
width = 368;
}
);
note = uni1ea9;
unicode = 7849;
},
{
glyphname = uni1eab;
lastChange = "2026-03-25 05:34:17 +0000";
layers = (
{
layerId = m01;
shapes = (
{
closed = 1;
nodes = (
(111,497,o),
(108,487,qs),
(107,480,o),
(109,477,o),
(117,477,qs),
(127,477,o),
(145,484,qs),
(163,491,l),
(176,477,ls),
(188,465,o),
(197,465,qs),
(204,465,o),
(210,466,qs),
(229,468,o),
(295,490,o),
(310,499,qs),
(325,510,o),
(324,517,qs),
(323,527,o),
(309,527,qs),
(292,527,o),
(265,516,qs),
(231,502,l),
(215,520,ls),
(198,538,o),
(182,538,qs),
(163,538,o),
(151,531,qs),
(138,525,o)
);
},
{
closed = 1;
nodes = (
(116,401,qs),
(82,380,o),
(82,365,qs),
(82,351,o),
(113,338,qs),
(135,329,o),
(155,329,o),
(166,343,qs),
(176,358,o),
(186,367,qs),
(197,377,l),
(222,364,ls),
(294,329,o),
(333,329,qs),
(354,329,o),
(354,341,qs),
(354,352,o),
(318,376,o),
(297,379,qs),
(281,381,o),
(264,391,o),
(245,410,qs),
(224,429,o),
(208,440,o),
(194,441,qs),
(192,441,o),
(184,442,o),
(183,442,qs),
(171,442,o),
(158,430,qs),
(144,418,o)
);
},
{
closed = 1;
nodes = (
(207,240,o),
(188,182,o),
(179,163,qs),
(163,131,o),
(139,114,qs),
(120,101,o),
(117,101,qs),
(116,101,o),
(116,105,o),
(120,124,o),
(121,131,qs),
(128,172,o),
(166,234,qs),
(181,257,o),
(188,257,qs),
(191,257,o),
(193,256,q),
(204,254,o),
(206,252,q),
(207,249,l)
);
},
{
closed = 1;
nodes = (
(10,148,o),
(10,73,qs),
(10,40,l),
(34,29,o),
(63,14,q),
(94,21,ls),
(121,27,o),
(165,52,qs),
(198,70,o),
(200,70,qs),
(206,69,o),
(213,46,qs),
(215,36,o),
(217,31,qs),
(222,13,o),
(232,3,o),
(256,-10,qs),
(288,-27,l),
(320,-14,ls),
(354,-1,o),
(354,6,qs),
(354,17,o),
(347,50,qs),
(335,102,o),
(334,123,qs),
(334,136,ls),
(334,158,o),
(345,256,o),
(345,263,qs),
(345,268,o),
(330,268,qs),
(328,268,o),
(292,266,qs),
(285,266,o),
(262,265,o),
(258,265,qs),
(237,265,o),
(237,269,o),
(265,294,o),
(265,300,o),
(209,310,o),
(187,310,o),
(156,301,qs),
(97,284,o)
);
}
);
width = 364;
}
);
note = uni1eab;
unicode = 7851;
},
{
glyphname = uni1ead;
lastChange = "2026-03-25 05:34:17 +0000";
layers = (
{
layerId = m01;
shapes = (
{
closed = 1;
nodes = (
(127,406,qs),
(86,385,o),
(86,365,qs),
(86,347,o),
(120,335,qs),
(138,329,o),
(147,329,qs),
(160,329,o),
(172,347,qs),
(184,363,o),
(193,373,o),
(200,373,qs),
(209,373,o),
(233,361,qs),
(301,327,o),
(336,327,qs),
(352,327,o),
(355,335,qs),
(356,337,o),
(356,340,qs),
(356,351,o),
(324,373,o),
(298,379,qs),
(270,386,o),
(253,404,qs),
(217,443,o),
(192,443,qs),
(176,443,o),
(157,427,qs),
(145,416,o)
);
},
{
closed = 1;
nodes = (
(208,248,qs),
(208,220,o),
(182,163,qs),
(169,133,o),
(146,117,qs),
(124,101,o),
(122,101,qs),
(121,101,o),
(121,107,o),
(122,118,o),
(123,124,qs),
(127,155,o),
(181,257,o),
(192,257,qs),
(193,257,l),
(202,254,o),
(206,254,qs),
(208,254,o)
);
},
{
closed = 1;
nodes = (
(19,159,o),
(13,79,qs),
(10,41,l),
(41,26,o),
(65,13,q),
(99,22,ls),
(130,30,o),
(170,53,qs),
(207,75,l),
(214,52,l),
(215,46,o),
(223,21,o),
(223,18,q),
(226,6,o),
(256,-9,qs),
(286,-25,o),
(293,-25,qs),
(297,-25,o),
(356,0,o),
(359,2,q),
(351,38,ls),
(337,97,o),
(337,158,qs),
(337,208,o),
(346,253,qs),
(349,269,l),
(296,266,ls),
(290,266,o),
(267,265,o),
(263,265,qs),
(241,265,o),
(241,271,o),
(266,294,o),
(266,300,o),
(210,310,o),
(200,310,qs),
(191,310,o),
(157,300,qs),
(99,283,o)
);
},
{
closed = 1;
nodes = (
(134,-166,l),
(171,-164,ls),
(208,-162,o),
(210,-159,q),
(211,-159,o),
(211,-149,qs),
(211,-136,o),
(210,-128,qs),
(207,-100,l),
(191,-100,ls),
(188,-100,o),
(155,-103,qs),
(134,-104,l)
);
}
);
width = 369;
}
);
note = uni1ead;
unicode = 7853;
},
{
glyphname = uni1eaf;
lastChange = "2026-03-25 05:34:17 +0000";
layers = (
{
layerId = m01;
shapes = (
{
closed = 1;
nodes = (
(260,438,o),
(255,424,qs),
(250,407,o),
(250,400,qs),
(250,390,o),
(264,390,o),
(392,439,o),
(413,449,qs),
(433,459,o),
(433,467,qs),
(433,472,o),
(426,478,qs),
(419,485,o),
(400,485,qs),
(376,485,o),
(338,473,qs),
(294,459,o)
);
},
{
closed = 1;
nodes = (
(128,363,qs),
(128,355,o),
(141,344,qs),
(162,326,o),
(198,314,o),
(228,314,qs),
(264,314,o),
(294,327,qs),
(308,334,o),
(340,357,o),
(360,377,o),
(358,379,q),
(357,379,ls),
(351,379,o),
(321,372,qs),
(271,358,o),
(245,358,qs),
(215,358,o),
(195,374,qs),
(182,384,o),
(169,384,qs),
(162,384,o),
(145,379,qs),
(128,373,o)
);
},
{
closed = 1;
nodes = (
(179,131,qs),
(171,111,o),
(157,94,o),
(141,83,qs),
(128,74,o),
(117,68,q),
(116,70,o),
(121,97,qs),
(131,147,o),
(165,200,qs),
(181,224,o),
(207,224,o),
(207,219,qs),
(207,189,o)
);
},
{
closed = 1;
nodes = (
(95,235,qs),
(58,203,o),
(10,93,o),
(10,41,qs),
(10,7,l),
(27,-2,o),
(63,-18,q),
(94,-10,ls),
(122,-4,o),
(164,19,qs),
(202,40,o),
(204,40,q),
(215,7,l),
(224,-25,l),
(259,-45,o),
(289,-60,q),
(322,-46,ls),
(355,-31,o),
(355,-17,o),
(346,19,qs),
(337,56,o),
(335,90,qs),
(334,96,o),
(334,112,qs),
(334,136,o),
(345,226,o),
(345,233,qs),
(345,237,o),
(335,237,qs),
(334,237,o),
(300,235,qs),
(246,231,o),
(242,229,o),
(239,229,qs),
(237,229,o),
(237,231,qs),
(237,238,o),
(253,252,qs),
(270,266,l),
(247,271,ls),
(209,278,o),
(199,278,qs),
(186,278,o),
(157,270,qs),
(125,261,o)
);
}
);
width = 443;
}
);
note = uni1eaf;
unicode = 7855;
},
{
glyphname = uni1eb1;
lastChange = "2026-03-25 05:34:17 +0000";
layers = (
{
layerId = m01;
shapes = (
{
closed = 1;
nodes = (
(169,433,ls),
(197,422,o),
(212,414,qs),
(232,403,o),
(251,403,qs),
(270,403,l),
(270,449,l),
(234,466,ls),
(194,484,o),
(171,485,qs),
(143,486,l),
(144,464,l),
(146,441,l)
);
},
{
closed = 1;
nodes = (
(122,385,qs),
(122,377,o),
(135,366,qs),
(156,348,o),
(192,335,o),
(222,335,qs),
(258,335,o),
(288,348,qs),
(302,355,o),
(334,378,o),
(354,398,o),
(352,400,q),
(351,400,ls),
(345,400,o),
(315,393,qs),
(267,379,o),
(241,379,qs),
(212,379,o),
(189,396,qs),
(176,406,o),
(163,406,qs),
(156,406,o),
(139,401,qs),
(122,395,o)
);
},
{
closed = 1;
nodes = (
(176,136,qs),
(160,101,o),
(137,86,qs),
(112,70,l),
(115,91,ls),
(118,113,o),
(146,180,o),
(162,203,qs),
(172,219,o),
(184,228,o),
(192,228,qs),
(205,228,o),
(205,225,qs),
(205,201,o)
);
},
{
closed = 1;
nodes = (
(105,250,o),
(74,224,qs),
(64,216,o),
(28,147,o),
(20,124,qs),
(10,94,o),
(10,54,qs),
(10,13,l),
(64,-14,l),
(97,-4,ls),
(127,4,o),
(164,25,qs),
(197,45,o),
(200,45,qs),
(204,45,o),
(211,12,qs),
(219,-20,l),
(242,-32,o),
(286,-56,q),
(320,-41,ls),
(353,-26,o),
(353,-23,qs),
(353,-21,o),
(342,28,qs),
(332,75,o),
(332,102,qs),
(332,125,o),
(333,141,qs),
(337,216,o),
(338,223,qs),
(341,242,l),
(295,240,ls),
(246,236,o),
(242,234,qs),
(240,233,o),
(238,233,qs),
(235,233,o),
(235,236,qs),
(235,245,o),
(263,267,o),
(260,270,qs),
(258,272,o),
(201,284,o),
(194,284,qs),
(192,284,o),
(156,274,qs),
(131,266,o)
);
}
);
width = 363;
}
);
note = uni1eb1;
unicode = 7857;
},
{
glyphname = uni1eb3;
lastChange = "2026-03-25 05:34:17 +0000";
layers = (
{
layerId = m01;
shapes = (
{
closed = 1;
nodes = (
(225,514,o),
(225,501,qs),
(225,459,o),
(234,459,qs),
(239,459,o),
(243,470,qs),
(247,482,o),
(255,485,qs),
(265,490,o),
(289,490,qs),
(308,490,o),
(308,486,qs),
(308,479,o),
(243,428,qs),
(228,417,l),
(236,399,ls),
(243,381,o),
(253,381,o),
(308,429,o),
(317,441,qs),
(330,458,o),
(332,471,qs),
(332,472,o),
(333,477,o),
(333,479,qs),
(333,513,o),
(320,524,qs),
(313,531,o),
(293,531,qs),
(287,531,o),
(271,529,qs),
(242,524,o)
);
},
{
closed = 1;
nodes = (
(129,375,o),
(130,368,qs),
(132,357,o),
(171,329,o),
(192,324,qs),
(205,320,o),
(225,320,qs),
(291,320,o),
(343,367,qs),
(358,381,o),
(358,383,q),
(359,385,o),
(351,385,qs),
(339,385,o),
(310,376,qs),
(280,366,o),
(222,366,o),
(200,380,qs),
(181,392,o),
(174,392,qs),
(168,392,o),
(150,386,qs),
(136,381,o)
);
},
{
closed = 1;
nodes = (
(201,186,qs),
(181,114,o),
(142,86,qs),
(119,70,l),
(123,95,ls),
(128,141,o),
(168,203,qs),
(179,220,o),
(188,228,o),
(198,228,qs),
(207,228,o),
(211,225,o),
(210,221,qs),
(203,193,o)
);
},
{
closed = 1;
nodes = (
(18,132,o),
(13,51,qs),
(10,11,l),
(38,-1,l),
(65,-14,l),
(96,-6,ls),
(125,0,o),
(165,23,qs),
(204,45,o),
(208,45,o),
(217,12,qs),
(227,-21,l),
(238,-27,o),
(281,-50,o),
(292,-56,q),
(323,-42,ls),
(354,-29,o),
(357,-26,q),
(358,-23,l),
(358,-14,o),
(351,12,qs),
(337,68,o),
(337,124,qs),
(337,170,o),
(346,223,qs),
(349,241,l),
(319,241,ls),
(290,241,o),
(266,237,qs),
(260,236,o),
(242,236,o),
(242,240,qs),
(242,245,o),
(255,255,qs),
(269,268,o),
(265,272,o),
(203,284,o),
(197,284,qs),
(196,284,o),
(160,274,qs),
(100,256,o)
);
}
);
width = 368;
}
);
note = uni1eb3;
unicode = 7859;
},
